<svg width="70" height="70" viewBox="0 0 70 70" fill="none" xmlns="http://www.w3.org/2000/svg">
<path d="M56.6758 48.5522C56.3981 48.5522 56.1205 48.4507 55.9038 48.2453L42.9159 36.061C42.4622 35.6366 42.4397 34.9211 42.8663 34.4674C43.2929 34.0092 44.0039 33.9889 44.4621 34.4177L57.45 46.602C57.9037 47.0264 57.9262 47.7419 57.4996 48.1956C57.2762 48.4326 56.9782 48.5522 56.6758 48.5522Z" fill="#EB6441"/>
<path d="M13.3219 48.5518C13.0217 48.5518 12.7215 48.4322 12.498 48.1952C12.0714 47.7415 12.094 47.026 12.5477 46.6016L25.5401 34.4173C25.996 33.993 26.7116 34.011 27.1359 34.467C27.5625 34.9207 27.54 35.6362 27.0863 36.0605L14.0939 48.2449C13.8772 48.4503 13.5995 48.5518 13.3219 48.5518Z" fill="#EB6441"/>
<path d="M64.357 59.8811H5.64298C2.53257 59.8811 0 57.3508 0 54.2381V15.7598C0 12.6471 2.53257 10.1168 5.64298 10.1168H64.357C67.4674 10.1168 70 12.6471 70 15.7598V54.2381C70 57.3508 67.4674 59.8811 64.357 59.8811ZM5.64298 12.374C3.77628 12.374 2.25719 13.8931 2.25719 15.7598V54.2381C2.25719 56.1048 3.77628 57.6239 5.64298 57.6239H64.357C66.2237 57.6239 67.7428 56.1048 67.7428 54.2381V15.7598C67.7428 13.8931 66.2237 12.374 64.357 12.374H5.64298Z" fill="#EB6441"/>
<path d="M35 40.6701C33.499 40.6701 31.9979 40.1712 30.8558 39.1758L1.87345 13.893C1.40396 13.4845 1.3543 12.7712 1.76285 12.2995C2.17592 11.83 2.88693 11.7871 3.35643 12.1911L32.3388 37.4716C33.7811 38.7289 36.2189 38.7289 37.659 37.4716L66.6052 12.2317C67.0724 11.8232 67.7834 11.8683 68.1988 12.3401C68.6073 12.8118 68.5599 13.5229 68.0904 13.9337L39.1442 39.1736C37.9998 40.1712 36.501 40.6701 35 40.6701Z" fill="#EB6441"/>
</svg>
