<svg width="70" height="70" viewBox="0 0 70 70" fill="none" xmlns="http://www.w3.org/2000/svg">
<path d="M35 30.3333C39.5033 30.3333 43.1666 26.6688 43.1666 22.1667C43.1666 17.6645 39.5033 14 35 14C30.4966 14 26.8333 17.6645 26.8333 22.1667C26.8333 26.6688 30.4966 30.3333 35 30.3333ZM35 16.3333C38.2165 16.3333 40.8333 18.9502 40.8333 22.1667C40.8333 25.3832 38.2165 28 35 28C31.7835 28 29.1666 25.3832 29.1666 22.1667C29.1666 18.9502 31.7835 16.3333 35 16.3333Z" fill="#EB6441"/>
<path d="M34.7935 63.8832L52.6913 38.0333C59.4043 29.0838 58.4337 14.3733 50.6135 6.55433C46.3878 2.3275 40.7692 0 34.7935 0C28.8178 0 23.1992 2.3275 18.9735 6.55317C11.1533 14.3722 10.1827 29.0827 16.8688 37.9972L34.7935 63.8832ZM20.6232 8.20283C24.409 4.41817 29.4408 2.33333 34.7935 2.33333C40.1462 2.33333 45.178 4.41817 48.9638 8.20283C56.0222 15.26 56.8913 28.546 50.799 36.6683L34.7935 59.7835L18.7623 36.6333C12.6957 28.546 13.566 15.26 20.6232 8.20283Z" fill="#EB6441"/>
<path d="M49.1365 50.1748C48.4948 50.0966 47.9162 50.5563 47.8415 51.1968C47.7668 51.8373 48.2242 52.4171 48.8635 52.4918C61.1322 53.9361 67.6667 57.8281 67.6667 60.0833C67.6667 63.2496 55.2393 67.6666 35 67.6666C14.7607 67.6666 2.33333 63.2496 2.33333 60.0833C2.33333 57.8281 8.86783 53.9361 21.1365 52.4918C21.7758 52.4171 22.2332 51.8361 22.1585 51.1968C22.0827 50.5563 21.504 50.0943 20.8635 50.1748C8.57967 51.6215 0 55.6955 0 60.0833C0 65.0113 12.0225 70 35 70C57.9775 70 70 65.0113 70 60.0833C70 55.6955 61.4203 51.6215 49.1365 50.1748Z" fill="#EB6441"/>
</svg>
