<svg width="70" height="70" viewBox="0 0 70 70" fill="none" xmlns="http://www.w3.org/2000/svg">
<path d="M49.6942 0H20.3059C17.4732 0 15.1667 2.3065 15.1667 5.13917V64.8597C15.1667 67.6935 17.4732 70 20.3059 70H49.693C52.5269 70 54.8334 67.6935 54.8334 64.8608V5.13917C54.8334 2.3065 52.5269 0 49.6942 0ZM17.5 9.33333H52.5V53.6667H17.5V9.33333ZM20.3059 2.33333H49.693C51.2412 2.33333 52.5 3.59217 52.5 5.13917V7H17.5V5.13917C17.5 3.59217 18.7589 2.33333 20.3059 2.33333ZM49.6942 67.6667H20.3059C18.7589 67.6667 17.5 66.4078 17.5 64.8608V56H52.5V64.8608C52.5 66.4078 51.2412 67.6667 49.6942 67.6667Z" fill="#EB6441"/>
<path d="M35 57.1667C32.4263 57.1667 30.3333 59.2597 30.3333 61.8333C30.3333 64.407 32.4263 66.5 35 66.5C37.5737 66.5 39.6667 64.407 39.6667 61.8333C39.6667 59.2597 37.5737 57.1667 35 57.1667ZM35 64.1667C33.7132 64.1667 32.6667 63.1202 32.6667 61.8333C32.6667 60.5465 33.7132 59.5 35 59.5C36.2868 59.5 37.3333 60.5465 37.3333 61.8333C37.3333 63.1202 36.2868 64.1667 35 64.1667Z" fill="#EB6441"/>
<path d="M30.3334 5.83333H35C35.6452 5.83333 36.1667 5.31183 36.1667 4.66667C36.1667 4.0215 35.6452 3.5 35 3.5H30.3334C29.6882 3.5 29.1667 4.0215 29.1667 4.66667C29.1667 5.31183 29.6882 5.83333 30.3334 5.83333Z" fill="#EB6441"/>
<path d="M38.5 5.83333H39.6667C40.3118 5.83333 40.8333 5.31183 40.8333 4.66667C40.8333 4.0215 40.3118 3.5 39.6667 3.5H38.5C37.8548 3.5 37.3333 4.0215 37.3333 4.66667C37.3333 5.31183 37.8548 5.83333 38.5 5.83333Z" fill="#EB6441"/>
<path d="M66.0474 5.3305C65.5912 4.87433 64.8539 4.87433 64.3977 5.3305C63.9415 5.78666 63.9415 6.524 64.3977 6.98016C68.7564 11.3388 68.7564 18.431 64.3977 22.7908C63.9415 23.247 63.9415 23.9843 64.3977 24.4405C64.6252 24.668 64.9239 24.7823 65.2225 24.7823C65.5212 24.7823 65.8199 24.668 66.0474 24.4405C71.316 19.173 71.316 10.5992 66.0474 5.3305Z" fill="#EB6441"/>
<path d="M61.1345 7.98583C60.6784 7.52967 59.941 7.52967 59.4849 7.98583C59.0287 8.442 59.0287 9.17933 59.4849 9.6355C60.928 11.0787 61.7225 13.0013 61.7225 15.0477C61.7225 17.094 60.928 19.0155 59.4849 20.4587C59.0287 20.9148 59.0287 21.6522 59.4849 22.1083C59.7124 22.3358 60.011 22.4502 60.3097 22.4502C60.6084 22.4502 60.907 22.3358 61.1345 22.1083C63.0187 20.2253 64.0559 17.717 64.0559 15.0477C64.0559 12.3783 63.0199 9.86883 61.1345 7.98583Z" fill="#EB6441"/>
<path d="M5.60236 6.98016C6.05852 6.524 6.05852 5.78666 5.60236 5.3305C5.14619 4.87433 4.40886 4.87433 3.95269 5.3305C-1.31598 10.5992 -1.31598 19.1718 3.95269 24.4405C4.18019 24.668 4.47886 24.7823 4.77752 24.7823C5.07619 24.7823 5.37486 24.668 5.60236 24.4405C6.05852 23.9843 6.05852 23.247 5.60236 22.7908C1.24252 18.4322 1.24252 11.34 5.60236 6.98016Z" fill="#EB6441"/>
<path d="M10.5152 7.66384C10.059 7.20767 9.32168 7.20767 8.86552 7.66384C6.98135 9.54684 5.94418 12.0552 5.94418 14.7245C5.94418 17.3938 6.98135 19.9022 8.86552 21.7863C9.09302 22.0138 9.39168 22.1282 9.69035 22.1282C9.98902 22.1282 10.2877 22.0138 10.5152 21.7863C10.9713 21.3302 10.9713 20.5928 10.5152 20.1367C9.07202 18.6935 8.27752 16.7708 8.27752 14.7245C8.27752 12.6782 9.07085 10.7567 10.5152 9.31351C10.9702 8.85851 10.9702 8.12001 10.5152 7.66384Z" fill="#EB6441"/>
</svg>
