<svg width="70" height="70" viewBox="0 0 70 70" fill="none" xmlns="http://www.w3.org/2000/svg">
<path d="M67.6666 34.7666C67.6659 34.65 67.6629 34.5342 67.6614 34.4179C67.6596 34.2586 67.6577 34.0994 67.6543 33.9407C67.6535 33.9015 67.6521 33.8624 67.6512 33.8231C67.4285 24.273 64.5081 15.6613 59.9386 9.51727C55.8765 4.02664 50.5099 0.486309 44.5666 0C44.45 0 44.45 0 44.3332 0C44.2498 0.00738281 44.1671 0.0181836 44.084 0.0270703C43.7795 0.0109375 43.474 0 43.1666 0H26.8334C20.7654 0 15.2143 3.16805 10.9354 8.39658C10.8138 8.50062 10.7131 8.62572 10.6373 8.76709C5.54572 15.193 2.33337 24.5833 2.33337 35C2.33337 54.25 13.3 70 26.8334 70H43.1668C43.4995 70 43.8301 69.9877 44.1596 69.9688C44.2564 69.9794 44.3529 69.9914 44.45 70C55.65 69.0666 64.9834 57.6334 67.2 41.8834C67.2128 41.7616 67.2254 41.6381 67.2383 41.5155C67.5184 39.4028 67.6666 37.2252 67.6666 35V34.7666ZM29.0801 53.3684C29.0553 53.2329 29.0035 53.1054 28.9283 52.9921C26.861 47.8282 25.6666 41.6449 25.6666 35.0001C25.6666 17.7762 33.7992 3.64697 44.1622 2.36797C55.9493 3.13879 65.3334 17.5228 65.3334 35C65.3334 52.4783 55.9482 66.863 44.1602 67.6323C37.8246 66.8592 32.3876 61.386 29.0801 53.3684ZM6.11843 46.6186C6.37341 46.5389 6.62839 46.3699 6.88337 46.2L8.4 43.8666L10.85 46.3166C11.3166 46.7832 12.0166 46.7832 12.4834 46.3166L15.1668 43.6332L17.9668 46.4332C18.4334 46.8999 19.1334 46.8999 19.6001 46.4332L22.4001 43.6332L24.3173 45.3487C24.7241 47.4301 25.2502 49.4292 25.8847 51.3254L23.8003 50.2832C23.2169 49.9332 22.6336 50.1666 22.2836 50.6332L20.767 52.9666L18.317 50.5166C17.8504 50.05 17.1504 50.05 16.6836 50.5166L14 53.2L11.3166 50.5166C10.85 50.05 10.15 50.05 9.68324 50.5166L7.99886 52.201C7.2573 50.4433 6.6258 48.5756 6.11843 46.6186ZM4.67167 35.5742L7.58337 37.2168C8.05 37.4501 8.63337 37.3334 8.98337 36.9834L11.6668 34.3L14.4668 36.9834C14.9334 37.45 15.6334 37.45 16.1001 36.9834L18.9001 34.1834L23.3658 36.8836C23.422 38.5614 23.5518 40.2086 23.7521 41.816L22.8668 41.0668C22.4001 40.7168 21.7001 40.8334 21.3501 41.1834L18.6668 43.8668L15.9834 41.1834C15.5168 40.7168 14.8168 40.7168 14.35 41.1834L11.6666 43.8668L8.98324 41.1834C8.74986 40.95 8.39986 40.8334 8.04986 40.8334C7.69986 40.8334 7.34986 41.0668 7.11648 41.3L5.47763 43.7582C4.98326 41.1448 4.7049 38.4018 4.67167 35.5742ZM8.48271 16.6996L11.0832 18.4334C11.4332 18.6668 12.0166 18.6668 12.3666 18.4334L15.1666 16.5668L18.0832 18.5501C18.4332 18.7835 19.0166 18.7835 19.3666 18.5501L22.2832 16.5668L26.0008 18.3724C25.3873 20.1597 24.8697 22.0387 24.4586 23.9922L22.9831 22.5168C22.5165 22.0501 21.8165 22.0501 21.3497 22.5168L18.6663 25.2001L15.983 22.5168C15.5163 22.0501 14.8163 22.0501 14.3496 22.5168L11.6666 25.2L8.98324 22.5166C8.74986 22.2832 8.51662 22.1666 8.16662 22.1666C7.81662 22.1666 7.58324 22.2832 7.35 22.5166L5.97789 23.9362C6.60939 21.36 7.45458 18.9319 8.48271 16.6996ZM12.2393 10.4349L19.6 8.28338L22.6334 10.2668C22.9834 10.5001 23.5668 10.5001 23.9168 10.2668L26.8334 8.28338L30.0874 9.86399C28.836 11.7804 27.7283 13.9254 26.7902 16.2535L22.5168 14.1168C22.1668 14.0001 21.7001 14.0001 21.3501 14.2334L18.5501 16.1L15.7501 14.2334C15.4001 14 14.8168 14 14.4668 14.2334L11.6668 16.1L9.53968 14.5934C10.3558 13.094 11.2592 11.7018 12.2393 10.4349ZM19.25 31.7334C18.7834 31.5 18.2 31.6168 17.85 31.9668L15.1666 34.6501L12.4832 31.9668C12.0166 31.5001 11.3166 31.5001 10.8499 31.9668L7.93324 34.8834L4.70832 33.0266C4.77941 31.2819 4.94375 29.5734 5.19462 27.9113C5.33941 27.8529 5.48406 27.7659 5.6 27.6501L8.16662 24.9668L10.85 27.65C11.3166 28.1166 12.0166 28.1166 12.4834 27.65L15.1668 24.9666L17.8501 27.65C18.3168 28.1166 19.0168 28.1166 19.4835 27.65L22.1669 24.9666L23.6835 26.4832C23.7705 26.5702 23.8656 26.6409 23.9657 26.6954C23.592 29.1082 23.3773 31.6153 23.3398 34.1871L19.25 31.7334ZM37.5088 2.33338C35.2729 3.70781 33.2169 5.63459 31.4042 8.00215L27.3 5.95C26.95 5.83338 26.4834 5.83338 26.1334 6.06662L23.3334 7.93324L20.5334 6.06662C20.1834 5.83324 19.8334 5.83324 19.4834 5.83324L15.4405 6.98838C18.7692 4.03594 22.6659 2.33324 26.8334 2.33324H37.5088V2.33338ZM9.03027 54.4363L10.5 52.9666L13.1834 55.65C13.65 56.1166 14.35 56.1166 14.8168 55.65L17.5 52.9666L20.1834 55.65C20.4168 55.8834 20.65 56 21 56C21.4666 56 21.8166 55.7666 21.9334 55.4166L23.6834 52.7332L27.0529 54.418C27.9304 56.4899 28.945 58.4068 30.0784 60.1366L27.8832 61.6L25.0832 59.7334C24.7332 59.5 24.1499 59.5 23.7999 59.7334L21 61.6L18.2 59.7334C17.85 59.5 17.2666 59.5 16.9166 59.7334L14.0335 61.6555C12.1186 59.6518 10.4288 57.2119 9.03027 54.4363ZM26.8334 67.6666C22.7814 67.6666 18.9853 66.0572 15.7184 63.2544L17.5 62.0666L20.4166 63.9332C20.7666 64.1666 21.35 64.1666 21.7 63.9332L24.5 62.0666L27.1834 64.05C27.5334 64.2834 28.1168 64.2834 28.4668 64.05L31.4493 62.0617C33.2601 64.4021 35.3139 66.3056 37.5493 67.6668H26.8334V67.6666Z" fill="#EB6441"/>
<path d="M45.5 9.33325C39.4596 9.33325 34.3957 16.0918 32.4054 25.7848C32.3937 25.8416 32.3819 25.8986 32.3704 25.9557C32.3171 26.2213 32.2657 26.4887 32.2169 26.7585C32.2002 26.8509 32.1845 26.9439 32.1684 27.0366C32.1354 27.2262 32.1037 27.4168 32.0731 27.6083C32.0526 27.7361 32.0322 27.864 32.0129 27.9925C31.9807 28.2065 31.95 28.4218 31.9208 28.6382C31.9031 28.7685 31.886 28.8991 31.8695 29.0298C31.8449 29.2243 31.8217 29.42 31.7994 29.6164C31.7815 29.7749 31.7645 29.9338 31.7482 30.093C31.7299 30.2717 31.7124 30.4511 31.6961 30.6313C31.6855 30.7487 31.6747 30.8662 31.6648 30.984C31.6432 31.2442 31.6237 31.5058 31.6063 31.7687C31.5999 31.8666 31.5943 31.9649 31.5884 32.063C31.5745 32.2948 31.5622 32.5276 31.5515 32.7614C31.5485 32.8293 31.5447 32.8969 31.5419 32.965C31.5298 33.2575 31.521 33.552 31.5142 33.8476C31.5124 33.9234 31.511 33.999 31.5095 34.0748C31.5038 34.3819 31.4998 34.6901 31.4998 35C31.4998 35.3101 31.5038 35.6181 31.5095 35.9252C31.5109 36.0009 31.5124 36.0767 31.5142 36.1524C31.521 36.448 31.5299 36.7424 31.5419 37.0351C31.5447 37.103 31.5485 37.1707 31.5515 37.2386C31.5622 37.4724 31.5745 37.7051 31.5884 37.9369C31.5943 38.035 31.5999 38.1333 31.6063 38.2314C31.6238 38.4943 31.6432 38.7558 31.6648 39.016C31.6745 39.1338 31.6855 39.2513 31.6961 39.3689C31.7126 39.5489 31.7299 39.7282 31.7482 39.9068C31.7645 40.0661 31.7815 40.2251 31.7994 40.3837C31.8217 40.58 31.8449 40.7757 31.8695 40.9702C31.886 41.1011 31.9031 41.2315 31.9208 41.3618C31.95 41.5781 31.9807 41.7933 32.0129 42.0071C32.0323 42.1358 32.0527 42.2637 32.0732 42.3917C32.1038 42.5833 32.1356 42.7737 32.1684 42.9632C32.1845 43.056 32.2002 43.149 32.2169 43.2414C32.2656 43.5112 32.317 43.7786 32.3703 44.0441C32.3818 44.1012 32.3935 44.1583 32.4053 44.2153C34.3954 53.9082 39.4594 60.6666 45.4998 60.6666C53.3164 60.6666 59.4998 49.35 59.4998 35C59.4998 20.65 53.3166 9.33325 45.5 9.33325ZM33.9886 38.6898C33.9826 38.6177 33.9759 38.5459 33.9702 38.4738C33.9617 38.3667 33.9545 38.2591 33.9467 38.1517C33.9359 38.0003 33.9256 37.8488 33.9165 37.6968C33.9113 37.6109 33.9058 37.5251 33.9011 37.4391C33.8882 37.202 33.8764 36.9644 33.8671 36.7257C33.8655 36.6823 33.8644 36.6386 33.8627 36.5952C33.8552 36.3844 33.8492 36.1729 33.8445 35.9609C33.843 35.8928 33.8417 35.8248 33.8404 35.7566C33.8362 35.505 33.8332 35.2531 33.8332 35C33.8332 34.7796 33.8358 34.5598 33.8385 34.3401C33.9033 29.9883 34.6061 25.881 35.7608 22.3881C37.474 25.3109 38.5 29.9269 38.5 34.9999C38.5 40.0728 37.474 44.6889 35.7609 47.6118C34.8783 44.9418 34.2599 41.9128 33.9886 38.6898ZM45.5 58.3333C42.0685 58.3333 38.9141 55.1483 36.7527 50.2122C39.2237 47.1756 40.8332 41.3904 40.8332 34.9999C40.8332 28.6094 39.2236 22.8241 36.7527 19.7876C38.9139 14.8515 42.0683 11.6665 45.5 11.6665C51.8 11.6665 57.1666 22.3999 57.1666 34.9999C57.1666 47.5999 51.8 58.3333 45.5 58.3333Z" fill="#EB6441"/>
</svg>
