<svg width="68" height="68" viewBox="0 0 68 68" fill="none" xmlns="http://www.w3.org/2000/svg">
<path d="M63.3104 30.4828H56.2758V28.1376C58.2158 28.1338 59.7931 26.5577 59.7931 24.6207C59.7931 23.7194 59.4487 22.8989 58.8883 22.2759C59.4487 21.6529 59.7931 20.8323 59.7931 19.9311C59.7931 19.0298 59.4487 18.2093 58.8883 17.5863C59.4487 16.9632 59.7931 16.1427 59.7931 15.2415C59.7931 14.3402 59.4487 13.5197 58.8883 12.8967C59.4487 12.2736 59.7931 11.4531 59.7931 10.5518C59.7931 8.61252 58.2122 7.03457 56.2691 7.03457H55.1035V5.27587C55.1035 3.01314 53.2575 1.17236 50.9886 1.17236H49.8391C47.5701 1.17236 45.7242 3.01314 45.7242 5.27587V7.03444H44.5586C42.6154 7.03444 41.0345 8.61226 41.0345 10.5517C41.0345 11.453 41.3789 12.2735 41.9394 12.8965C41.3789 13.5195 41.0345 14.3401 41.0345 15.2413C41.0345 16.1426 41.3789 16.9631 41.9394 17.5861C41.3789 18.2092 41.0345 19.0297 41.0345 19.9309C41.0345 20.8322 41.3789 21.6527 41.9394 22.2757C41.3789 22.8988 41.0345 23.7193 41.0345 24.6205C41.0345 26.5576 42.6118 28.1337 44.5518 28.1374V30.4826H32.8277V21.1033C32.8277 20.4558 32.3027 19.9308 31.6552 19.9308H25.7931V10.5629C25.7931 10.56 25.7929 10.557 25.7929 10.554C25.7929 10.5518 25.7927 10.5497 25.7927 10.5476C25.7845 6.66947 22.6348 3.51717 18.764 3.51717H7.0287C3.15815 3.51717 0.0085 6.66961 0.000265625 10.5476C0.000265625 10.5497 0.000132813 10.5518 0.000132813 10.554C0.000265625 10.557 0 10.56 0 10.5629V59.7819C0 63.6669 3.1531 66.8276 7.0287 66.8276H18.764C22.6399 66.8276 25.793 63.667 25.793 59.7819V52.7586H31.6551C32.3025 52.7586 32.8275 52.2336 32.8275 51.5861V42.2068H63.3104C65.8962 42.2068 68 40.1021 68 37.5152V35.1744C68 32.5874 65.8962 30.4828 63.3104 30.4828ZM23.4483 17.1006L17.7855 22.7634C17.3275 23.2214 17.3275 23.9637 17.7855 24.4216C18.0142 24.6504 18.3144 24.7649 18.6143 24.7649C18.9142 24.7649 19.2145 24.6504 19.4432 24.4216L23.4482 20.4166V21.1034V24.1351L17.7853 29.798C17.3274 30.2559 17.3274 30.9982 17.7853 31.4561C18.014 31.685 18.3143 31.7995 18.6142 31.7995C18.9141 31.7995 19.2144 31.685 19.4431 31.4561L23.448 27.4512V31.1697L17.7852 36.8325C17.3272 37.2905 17.3272 38.0328 17.7852 38.4907C18.0139 38.7195 18.3142 38.834 18.6141 38.834C18.914 38.834 19.2144 38.7195 19.443 38.4907L23.4479 34.4857V38.2042L17.7851 43.8671C17.3271 44.325 17.3271 45.0673 17.7851 45.5251C18.0138 45.7541 18.314 45.8686 18.6139 45.8686C18.9138 45.8686 19.2143 45.7541 19.4428 45.5251L23.4478 41.5203V45.2388L17.7849 50.9018C17.327 51.3594 17.327 52.102 17.7849 52.5597C18.0136 52.7886 18.3139 52.9031 18.6138 52.9031C18.9137 52.9031 19.2141 52.7886 19.4427 52.5597L23.4476 48.5547V51.5865V52.2734L17.7848 57.9363C17.3269 58.394 17.3269 59.1365 17.7848 59.5942C18.0135 59.8232 18.3138 59.9377 18.6137 59.9377C18.9136 59.9377 19.214 59.8232 19.4426 59.5942L23.4475 55.5892V59.7823C23.4475 62.3744 21.3463 64.483 18.7634 64.483H7.02804C4.44537 64.483 2.34414 62.3744 2.34414 59.7823V55.5892L6.3491 59.5942C6.5778 59.8232 6.87809 59.9377 7.17798 59.9377C7.47788 59.9377 7.77816 59.8232 8.00687 59.5942C8.4648 59.1365 8.4648 58.394 8.00687 57.9363L2.34401 52.2734V48.5547L6.34897 52.5597C6.57767 52.7886 6.87796 52.9031 7.17785 52.9031C7.47774 52.9031 7.77803 52.7886 8.00673 52.5597C8.46467 52.102 8.46467 51.3594 8.00673 50.9018L2.3448 45.2386V41.5201L6.34977 45.5251C6.57847 45.7541 6.87876 45.8686 7.17865 45.8686C7.47854 45.8686 7.77883 45.7541 8.00753 45.5251C8.46547 45.0673 8.46547 44.325 8.00753 43.8671L2.34467 38.2042V34.4857L6.34963 38.4907C6.57834 38.7195 6.87862 38.834 7.17852 38.834C7.47841 38.834 7.7787 38.7195 8.0074 38.4907C8.46534 38.0328 8.46534 37.2905 8.0074 36.8325L2.34454 31.1697V27.4512L6.3495 31.4561C6.5782 31.685 6.87849 31.7995 7.17838 31.7995C7.47827 31.7995 7.77856 31.685 8.00727 31.4561C8.4652 30.9982 8.4652 30.2559 8.00727 29.798L2.34441 24.1351V20.4166L6.34977 24.4216C6.57847 24.6504 6.87876 24.7649 7.17865 24.7649C7.47854 24.7649 7.77883 24.6504 8.00753 24.4216C8.46547 23.9637 8.46547 23.2214 8.00753 22.7634L2.34467 17.1006V13.3822L6.34963 17.3872C6.57834 17.616 6.87862 17.7305 7.17852 17.7305C7.47841 17.7305 7.7787 17.616 8.0074 17.3872C8.46534 16.9292 8.46534 16.187 8.0074 15.729L2.36871 10.0901C2.60578 7.71936 4.60501 5.86211 7.0287 5.86211H18.764C21.188 5.86211 23.1873 7.71922 23.4243 10.0901L17.7853 15.729C17.3274 16.187 17.3274 16.9292 17.7853 17.3872C18.014 17.616 18.3143 17.7305 18.6142 17.7305C18.9141 17.7305 19.2144 17.616 19.4431 17.3872L23.448 13.3822V17.1006H23.4483ZM30.4827 31.6552V41.0346V50.4139H25.7931V22.2759H30.4827V31.6552ZM48.069 5.27587C48.069 4.30607 48.8629 3.5173 49.8391 3.5173H50.9886C51.9646 3.5173 52.7586 4.30621 52.7586 5.27587V7.03444H48.069V5.27587ZM44.5586 9.37938H46.8966H53.9312H56.2692C56.9303 9.37938 57.4484 9.89429 57.4484 10.5518C57.4484 11.1982 56.9195 11.7243 56.2692 11.7243H44.5586C43.8973 11.7243 43.3794 11.2094 43.3794 10.5518C43.3794 9.90532 43.9082 9.37938 44.5586 9.37938ZM44.5586 14.069H56.2689C56.9302 14.069 57.4482 14.5839 57.4482 15.2415C57.4482 15.888 56.9192 16.4139 56.2689 16.4139H44.5586C43.8973 16.4139 43.3794 15.899 43.3794 15.2415C43.3794 14.5949 43.9082 14.069 44.5586 14.069ZM44.5586 18.7586H56.2689C56.9302 18.7586 57.4482 19.2735 57.4482 19.9311C57.4482 20.5776 56.9192 21.1035 56.2689 21.1035H44.5586C43.8973 21.1035 43.3794 20.5886 43.3794 19.9311C43.3794 19.2845 43.9082 18.7586 44.5586 18.7586ZM43.3794 24.6207C43.3794 23.9741 43.9083 23.4482 44.5586 23.4482H56.2689C56.9302 23.4482 57.4482 23.9631 57.4482 24.6207C57.4482 25.2671 56.9192 25.7931 56.2689 25.7931H55.1034H45.724H44.5586C43.8975 25.7931 43.3794 25.2782 43.3794 24.6207ZM53.931 28.138V30.4828H46.8965V28.138H53.931ZM65.6552 37.5153C65.6552 38.8093 64.6033 39.8621 63.3104 39.8621H32.8275V32.8276H45.724H55.1034H63.3103C64.6032 32.8276 65.6551 33.8804 65.6551 35.1744V37.5153H65.6552Z" fill="#EB6441"/>
</svg>
