<svg width="70" height="70" viewBox="0 0 70 70" fill="none" xmlns="http://www.w3.org/2000/svg">
<path d="M66.5213 59.8385H66.6128V53.0645C66.6128 52.9189 66.5993 49.4537 65.3923 45.8454L61.7116 37.258H58.7095H55.7074L51.9928 45.9333C50.8196 49.4537 50.8061 52.9187 50.8061 53.0642V55.3223H47.4192C45.5518 55.3223 44.0321 53.8025 44.0321 51.9352V47.2329C49.422 44.1032 53.0642 38.282 53.0642 31.6127V31.4524C55.006 30.9477 56.4514 29.1955 56.4514 27.0968C56.4514 25.0679 55.687 23.7864 55.259 23.2264C55.2974 23.0175 55.3223 22.8041 55.3223 22.5806V20.3224C55.3223 9.11705 46.2055 0 34.9999 0C23.7942 0 14.6774 9.11682 14.6774 20.3224V22.5806C14.6774 22.8041 14.7023 23.0175 14.7407 23.2264C14.3128 23.7864 13.5484 25.0679 13.5484 27.0968C13.5484 29.1955 14.9935 30.9479 16.9355 31.4524V31.6127C16.9355 38.282 20.5778 44.1032 25.9677 47.2329V51.9352C25.9677 53.8025 24.4479 55.3223 22.5806 55.3223H16.9353V53.7314C19.155 52.3857 20.3224 50.2179 20.3224 47.419C20.3224 44.671 18.4686 41.4712 14.9257 40.6719L13.5481 40.3613V46.2899H11.29V40.3592L9.91038 40.6719C6.36864 41.4781 4.51597 44.6755 4.51597 47.419C4.51597 50.2179 5.68343 52.3845 7.90312 53.7314V56.5711C3.24703 58.7164 0 63.4163 0 68.8709V70H2.2581V68.8709C2.2581 63.027 6.72238 58.2061 12.4193 57.6383V70H14.6774V57.5807H18.0643V70H20.3224V57.5807H22.5806C23.0412 57.5807 23.4815 57.5095 23.9107 57.4057C24.8918 62.6377 29.4869 66.6128 34.9999 66.6128C40.5128 66.6128 45.108 62.6375 46.0891 57.4057C46.5182 57.5095 46.9585 57.5807 47.4192 57.5807H49.6773V70H51.9354V57.5807H55.3226V70H57.5807V57.6381C63.2779 58.2071 67.7419 63.027 67.7419 68.8707V69.9998H70V68.8707C69.9998 65.3989 68.6765 62.2389 66.5213 59.8385ZM15.3038 52.0528L14.6772 52.3643V55.3223H13.5481C12.3774 55.3223 11.2459 55.4871 10.161 55.7683V52.3643L9.53458 52.0528C7.67741 51.1305 6.77407 49.6152 6.77407 47.4192C6.77407 45.9684 7.54511 44.3291 9.03217 43.4282V48.5483H15.8062V43.4258C17.2931 44.3244 18.0643 45.966 18.0643 47.4192C18.0643 49.6152 17.161 51.1302 15.3038 52.0528ZM53.0645 26.1282C53.3784 25.9227 53.6674 25.706 53.9237 25.4745C54.0717 25.8845 54.1935 26.4217 54.1935 27.097C54.1933 27.929 53.7362 28.6493 53.0645 29.0412V26.1282ZM33.8708 2.31595V10.1615H36.1289V2.31595C45.3655 2.89186 52.729 10.4223 53.0339 19.729C49.0156 17.5873 40.5818 16.9358 34.9999 16.9358C29.4179 16.9358 20.9842 17.5873 16.9659 19.7278C17.2708 10.422 24.6343 2.8902 33.8708 2.31595ZM16.9355 29.04C16.2636 28.6493 15.8065 27.929 15.8065 27.097C15.8065 26.4208 15.9283 25.8833 16.0763 25.4734C16.3326 25.706 16.6216 25.9227 16.9355 26.127V29.04ZM16.9365 22.5841C17.1577 21.4325 23.7253 19.1936 34.9999 19.1936C46.2811 19.1936 52.8508 21.4347 53.0642 22.5808C53.0645 24.8002 46.3072 27.0968 34.9999 27.0968C23.6982 27.0968 16.9422 24.8026 16.9365 22.5841ZM19.1934 31.6127V27.249C24.1712 29.1457 31.8859 29.3546 34.9999 29.3546C38.1139 29.3546 45.8283 29.1457 50.8064 27.249V31.6127C50.8064 40.3288 43.716 47.4192 34.9999 47.4192C26.2838 47.4192 19.1934 40.3288 19.1934 31.6127ZM34.9999 64.3547C30.3741 64.3547 26.5536 60.8571 26.0331 56.3679C27.3576 55.3349 28.2258 53.7418 28.2258 51.9354V48.3474C30.3201 49.1986 32.6043 49.6775 34.9999 49.6775C37.3955 49.6775 39.6797 49.1988 41.774 48.3474V51.9354C41.774 53.7418 42.6422 55.3349 43.9666 56.3679C43.4462 60.8569 39.6256 64.3547 34.9999 64.3547ZM56.2031 55.3226H53.0645V53.0645C53.0645 53.0329 53.0768 49.8241 54.102 46.7352L57.1956 39.5161H57.5807V49.885C56.2698 50.3523 55.3226 51.5945 55.3226 53.0645C55.3226 53.9351 55.6623 54.7218 56.2031 55.3226ZM58.7095 54.1935C58.0873 54.1935 57.5804 53.6878 57.5804 53.0645C57.5804 52.4411 58.0873 51.9354 58.7095 51.9354C59.3316 51.9354 59.8385 52.4411 59.8385 53.0645C59.8385 53.6878 59.3316 54.1935 58.7095 54.1935ZM64.3547 57.8887C63.1873 57.0465 61.8889 56.3746 60.4856 55.9355C61.4487 55.3382 62.0966 54.2791 62.0966 53.0642C62.0966 51.5942 61.1494 50.3523 59.8385 49.8848V39.5159H60.2236L63.2833 46.647C64.3379 49.8082 64.3547 53.0327 64.3547 53.0654V57.8887Z" fill="#EB6441"/>
<path d="M36.129 34.7417H42.2902V32.4836H33.8708V39.7739H36.129V34.7417Z" fill="#EB6441"/>
<path d="M22.5806 14.6774H20.3224V16.9355H22.5806V14.6774Z" fill="#EB6441"/>
<path d="M27.0967 13.5485H24.8386V15.8066H27.0967V13.5485Z" fill="#EB6441"/>
</svg>
