<svg width="100" height="100" viewBox="0 0 100 100" fill="none" xmlns="http://www.w3.org/2000/svg">
<circle cx="50" cy="50" r="49" stroke="#EB6441" stroke-width="2"/>
<path d="M73.1921 29.6725L64.794 21.2744C64.6251 21.1045 64.3917 21 64.1332 21H35.1999C32.6267 21 30.5332 23.0935 30.5332 25.6667V72.3333C30.5332 74.9065 32.6267 77 35.1999 77H68.7999C71.3731 77 73.4665 74.9065 73.4665 72.3333V30.3333C73.4665 30.0748 73.362 29.8415 73.1921 29.6725ZM65.0665 24.1864L70.2801 29.4H65.0665V24.1864ZM71.5999 72.3333C71.5999 73.8771 70.3436 75.1333 68.7999 75.1333H35.1999C33.6561 75.1333 32.3999 73.8771 32.3999 72.3333V25.6667C32.3999 24.1229 33.6561 22.8667 35.1999 22.8667H63.1999V30.3333C63.1999 30.8495 63.618 31.2667 64.1332 31.2667H71.5999V72.3333Z" fill="#EB6441"/>
<path d="M38.9335 34.0667C36.8746 34.0667 35.2002 35.7411 35.2002 37.8C35.2002 39.8589 36.8746 41.5333 38.9335 41.5333C40.9925 41.5333 42.6669 39.8589 42.6669 37.8C42.6669 35.7411 40.9925 34.0667 38.9335 34.0667ZM38.9335 39.6667C37.9041 39.6667 37.0669 38.8295 37.0669 37.8C37.0669 36.7705 37.9041 35.9333 38.9335 35.9333C39.963 35.9333 40.8002 36.7705 40.8002 37.8C40.8002 38.8295 39.963 39.6667 38.9335 39.6667Z" fill="#EB6441"/>
<path d="M38.9335 44.3333C36.8746 44.3333 35.2002 46.0077 35.2002 48.0667C35.2002 50.1256 36.8746 51.8 38.9335 51.8C40.9925 51.8 42.6669 50.1256 42.6669 48.0667C42.6669 46.0077 40.9925 44.3333 38.9335 44.3333ZM38.9335 49.9333C37.9041 49.9333 37.0669 49.0961 37.0669 48.0667C37.0669 47.0372 37.9041 46.2 38.9335 46.2C39.963 46.2 40.8002 47.0372 40.8002 48.0667C40.8002 49.0961 39.963 49.9333 38.9335 49.9333Z" fill="#EB6441"/>
<path d="M38.9335 54.6C36.8746 54.6 35.2002 56.2744 35.2002 58.3333C35.2002 60.3923 36.8746 62.0667 38.9335 62.0667C40.9925 62.0667 42.6669 60.3923 42.6669 58.3333C42.6669 56.2744 40.9925 54.6 38.9335 54.6ZM38.9335 60.2C37.9041 60.2 37.0669 59.3628 37.0669 58.3333C37.0669 57.3039 37.9041 56.4667 38.9335 56.4667C39.963 56.4667 40.8002 57.3039 40.8002 58.3333C40.8002 59.3628 39.963 60.2 38.9335 60.2Z" fill="#EB6441"/>
<path d="M38.9335 64.8667C36.8746 64.8667 35.2002 66.5411 35.2002 68.6C35.2002 70.6589 36.8746 72.3333 38.9335 72.3333C40.9925 72.3333 42.6669 70.6589 42.6669 68.6C42.6669 66.5411 40.9925 64.8667 38.9335 64.8667ZM38.9335 70.4667C37.9041 70.4667 37.0669 69.6295 37.0669 68.6C37.0669 67.5705 37.9041 66.7333 38.9335 66.7333C39.963 66.7333 40.8002 67.5705 40.8002 68.6C40.8002 69.6295 39.963 70.4667 38.9335 70.4667Z" fill="#EB6441"/>
<path d="M68.7999 38.7333H44.5332V40.6H68.7999V38.7333Z" fill="#EB6441"/>
<path d="M58.5335 25.6667H45.4668V27.5333H58.5335V25.6667Z" fill="#EB6441"/>
<path d="M61.3332 29.4H42.6665V31.2667H61.3332V29.4Z" fill="#EB6441"/>
<path d="M68.7999 49H44.5332V50.8667H68.7999V49Z" fill="#EB6441"/>
<path d="M68.7999 59.2667H44.5332V61.1333H68.7999V59.2667Z" fill="#EB6441"/>
<path d="M68.7999 69.5333H44.5332V71.4H68.7999V69.5333Z" fill="#EB6441"/>
<path d="M53.8667 35H52V36.8667H53.8667V35Z" fill="#EB6441"/>
<path d="M50.1333 35H48.2666V36.8667H50.1333V35Z" fill="#EB6441"/>
<path d="M46.3999 35H44.5332V36.8667H46.3999V35Z" fill="#EB6441"/>
</svg>
