<svg width="100" height="100" viewBox="0 0 100 100" fill="none" xmlns="http://www.w3.org/2000/svg">
<circle cx="50" cy="50" r="49" stroke="#A4A4A4" stroke-width="2"/>
<path d="M73.1923 29.6725L64.7941 21.2744C64.6252 21.1045 64.3919 21 64.1333 21H35.2C32.6268 21 30.5333 23.0935 30.5333 25.6667V72.3333C30.5333 74.9065 32.6268 77 35.2 77H68.8C71.3732 77 73.4667 74.9065 73.4667 72.3333V30.3333C73.4667 30.0748 73.3621 29.8415 73.1923 29.6725ZM65.0667 24.1864L70.2803 29.4H65.0667V24.1864ZM71.6 72.3333C71.6 73.8771 70.3437 75.1333 68.8 75.1333H35.2C33.6563 75.1333 32.4 73.8771 32.4 72.3333V25.6667C32.4 24.1229 33.6563 22.8667 35.2 22.8667H63.2V30.3333C63.2 30.8495 63.6181 31.2667 64.1333 31.2667H71.6V72.3333Z" fill="#A4A4A4"/>
<path d="M38.9333 34.0667C36.8744 34.0667 35.2 35.7411 35.2 37.8C35.2 39.8589 36.8744 41.5333 38.9333 41.5333C40.9922 41.5333 42.6666 39.8589 42.6666 37.8C42.6666 35.7411 40.9922 34.0667 38.9333 34.0667ZM38.9333 39.6667C37.9038 39.6667 37.0666 38.8295 37.0666 37.8C37.0666 36.7705 37.9038 35.9333 38.9333 35.9333C39.9628 35.9333 40.8 36.7705 40.8 37.8C40.8 38.8295 39.9628 39.6667 38.9333 39.6667Z" fill="#A4A4A4"/>
<path d="M38.9333 44.3333C36.8744 44.3333 35.2 46.0077 35.2 48.0667C35.2 50.1256 36.8744 51.8 38.9333 51.8C40.9922 51.8 42.6666 50.1256 42.6666 48.0667C42.6666 46.0077 40.9922 44.3333 38.9333 44.3333ZM38.9333 49.9333C37.9038 49.9333 37.0666 49.0961 37.0666 48.0667C37.0666 47.0372 37.9038 46.2 38.9333 46.2C39.9628 46.2 40.8 47.0372 40.8 48.0667C40.8 49.0961 39.9628 49.9333 38.9333 49.9333Z" fill="#A4A4A4"/>
<path d="M38.9333 54.6C36.8744 54.6 35.2 56.2744 35.2 58.3333C35.2 60.3923 36.8744 62.0667 38.9333 62.0667C40.9922 62.0667 42.6666 60.3923 42.6666 58.3333C42.6666 56.2744 40.9922 54.6 38.9333 54.6ZM38.9333 60.2C37.9038 60.2 37.0666 59.3628 37.0666 58.3333C37.0666 57.3039 37.9038 56.4667 38.9333 56.4667C39.9628 56.4667 40.8 57.3039 40.8 58.3333C40.8 59.3628 39.9628 60.2 38.9333 60.2Z" fill="#A4A4A4"/>
<path d="M38.9333 64.8667C36.8744 64.8667 35.2 66.5411 35.2 68.6C35.2 70.6589 36.8744 72.3333 38.9333 72.3333C40.9922 72.3333 42.6666 70.6589 42.6666 68.6C42.6666 66.5411 40.9922 64.8667 38.9333 64.8667ZM38.9333 70.4667C37.9038 70.4667 37.0666 69.6295 37.0666 68.6C37.0666 67.5705 37.9038 66.7333 38.9333 66.7333C39.9628 66.7333 40.8 67.5705 40.8 68.6C40.8 69.6295 39.9628 70.4667 38.9333 70.4667Z" fill="#A4A4A4"/>
<path d="M68.8 38.7333H44.5333V40.6H68.8V38.7333Z" fill="#A4A4A4"/>
<path d="M58.5333 25.6667H45.4667V27.5333H58.5333V25.6667Z" fill="#A4A4A4"/>
<path d="M61.3333 29.4H42.6666V31.2667H61.3333V29.4Z" fill="#A4A4A4"/>
<path d="M68.8 49H44.5333V50.8667H68.8V49Z" fill="#A4A4A4"/>
<path d="M68.8 59.2667H44.5333V61.1333H68.8V59.2667Z" fill="#A4A4A4"/>
<path d="M68.8 69.5333H44.5333V71.4H68.8V69.5333Z" fill="#A4A4A4"/>
<path d="M53.8667 35H52V36.8667H53.8667V35Z" fill="#A4A4A4"/>
<path d="M50.1334 35H48.2667V36.8667H50.1334V35Z" fill="#A4A4A4"/>
<path d="M46.4 35H44.5333V36.8667H46.4V35Z" fill="#A4A4A4"/>
</svg>
