<svg width="68" height="68" viewBox="0 0 68 68" fill="none" xmlns="http://www.w3.org/2000/svg">
<path d="M60.0667 2.2666H7.93333C3.55399 2.27156 0.00495833 5.82059 0 10.1999V46.4666C0.00495833 50.8459 3.55399 54.395 7.93333 54.3999H25.6768L22.9568 63.4666H19.2667V65.7333H48.7333V63.4666H45.0432L42.3232 54.3999H60.0667C64.446 54.395 67.995 50.8459 68 46.4666V10.1999C67.995 5.82059 64.446 2.27156 60.0667 2.2666ZM42.6768 63.4666H25.3232L28.0432 54.3999H39.9568L42.6768 63.4666ZM65.7333 46.4666C65.7297 49.5946 63.1947 52.1296 60.0667 52.1333H7.93333C4.80533 52.1296 2.27035 49.5946 2.26667 46.4666V45.3333H65.7333V46.4666ZM65.7333 43.0666H2.26667V10.1999C2.27035 7.07193 4.80533 4.53695 7.93333 4.53327H60.0667C63.1947 4.53695 65.7297 7.07193 65.7333 10.1999V43.0666Z" fill="#EB6441"/>
<path d="M47.6 18.1334H44.7667L41.7067 14.0534C41.4927 13.7681 41.1568 13.6001 40.8001 13.6001H29.4667C29.11 13.6001 28.7741 13.7681 28.5601 14.0534L25.4196 18.2468L20.1734 19.2894C19.6457 19.3971 19.2666 19.8615 19.2667 20.4001V26.0668C19.2667 26.6926 19.7742 27.2001 20.4001 27.2001H24.0086C24.6227 28.9627 26.5494 29.8937 28.3119 29.2798C29.2861 28.9403 30.0521 28.1745 30.3915 27.2001H37.6086C38.2227 28.9627 40.1494 29.8937 41.9118 29.2798C42.8861 28.9403 43.6521 28.1745 43.9915 27.2001H47.6C48.2259 27.2001 48.7334 26.6926 48.7334 26.0668V19.2668C48.7334 18.6409 48.2259 18.1334 47.6 18.1334ZM27.2001 27.2001C26.5742 27.2001 26.0667 26.6926 26.0667 26.0668C26.0667 25.4409 26.5742 24.9334 27.2001 24.9334C27.8259 24.9334 28.3334 25.4409 28.3334 26.0668C28.3334 26.6926 27.8259 27.2001 27.2001 27.2001ZM40.8001 27.2001C40.1742 27.2001 39.6667 26.6926 39.6667 26.0668C39.6667 25.4409 40.1742 24.9334 40.8001 24.9334C41.4259 24.9334 41.9334 25.4409 41.9334 26.0668C41.9334 26.6926 41.4259 27.2001 40.8001 27.2001ZM46.4667 24.9334H44.0063C43.9926 24.8949 43.9722 24.8609 43.9575 24.8201C43.9326 24.7566 43.9031 24.6966 43.8748 24.6354C43.8161 24.5098 43.7498 24.388 43.6764 24.2704C43.6425 24.2149 43.6096 24.1571 43.5711 24.1061C43.476 23.9722 43.3714 23.8454 43.2583 23.7264C43.2344 23.7015 43.2141 23.6732 43.1903 23.6494C43.0501 23.511 42.8984 23.3846 42.7369 23.272C42.6882 23.2448 42.6383 23.2187 42.5919 23.1892C42.4686 23.1117 42.3407 23.0422 42.2088 22.9807C42.1465 22.9524 42.083 22.9274 42.0184 22.9025C41.8854 22.8511 41.7491 22.8086 41.6104 22.7756C41.5481 22.7597 41.488 22.7416 41.4245 22.7302C41.0133 22.6459 40.5891 22.6459 40.1779 22.7302C40.1144 22.7416 40.0543 22.7597 39.992 22.7756C39.8533 22.8086 39.717 22.8511 39.584 22.9025C39.5194 22.9274 39.4571 22.9524 39.3947 22.9807C39.2623 23.0419 39.1339 23.1115 39.0105 23.1892C38.9641 23.2187 38.9142 23.2448 38.8689 23.2754C38.7074 23.388 38.5556 23.5144 38.4155 23.6528C38.3917 23.6766 38.3713 23.7049 38.3475 23.7298C38.2343 23.8488 38.1298 23.9756 38.0347 24.1095C37.9973 24.1628 37.9633 24.2228 37.9293 24.2738C37.8559 24.3914 37.7896 24.5132 37.731 24.6388C37.7015 24.7 37.6732 24.76 37.6483 24.8235C37.6335 24.8609 37.6131 24.8949 37.5995 24.9368H30.4063C30.3927 24.8983 30.3723 24.8643 30.3575 24.8235C30.3326 24.76 30.3031 24.7 30.2748 24.6388C30.2161 24.5132 30.1498 24.3914 30.0765 24.2738C30.0425 24.2183 30.0096 24.1605 29.9711 24.1095C29.876 23.9756 29.7714 23.8488 29.6583 23.7298C29.6345 23.7049 29.6141 23.6766 29.5903 23.6528C29.4501 23.5144 29.2984 23.388 29.1369 23.2754C29.0916 23.2448 29.0417 23.2187 28.9953 23.1892C28.872 23.1117 28.7441 23.0422 28.6122 22.9807C28.5499 22.9524 28.4864 22.9274 28.4218 22.9025C28.2888 22.8511 28.1525 22.8086 28.0138 22.7756C27.9515 22.7597 27.8914 22.7416 27.8279 22.7302C27.4167 22.6459 26.9925 22.6459 26.5813 22.7302C26.5178 22.7416 26.4577 22.7597 26.3954 22.7756C26.2567 22.8086 26.1204 22.8511 25.9874 22.9025C25.9228 22.9274 25.8605 22.9524 25.7981 22.9807C25.6657 23.0419 25.5373 23.1115 25.4139 23.1892C25.3675 23.2187 25.3176 23.2448 25.2723 23.2754C25.1108 23.388 24.959 23.5144 24.8189 23.6528C24.7951 23.6766 24.7747 23.7049 24.7509 23.7298C24.6377 23.8488 24.5332 23.9756 24.4381 24.1095C24.4007 24.1628 24.3667 24.2228 24.3327 24.2738C24.2593 24.3914 24.193 24.5132 24.1344 24.6388C24.1049 24.7 24.0766 24.76 24.0517 24.8235C24.0369 24.8609 24.0165 24.8949 24.0029 24.9368H21.5334V21.3283L26.2934 20.3774C26.5654 20.3227 26.8076 20.1693 26.9734 19.9468L30.0334 15.8668H40.2334L43.2934 19.9468C43.5074 20.2321 43.8433 20.4001 44.2001 20.4001H46.4667V24.9334Z" fill="#EB6441"/>
<path d="M21.2013 11.6653C20.9888 11.4528 20.7006 11.3333 20.4 11.3333H15.8667V13.5999H19.9308L22.9988 16.6679L24.6013 15.0653L21.2013 11.6653Z" fill="#EB6441"/>
<path d="M63.4667 9.06665H54.4V11.3333H63.4667V9.06665Z" fill="#EB6441"/>
<path d="M63.4667 13.6001H54.4V15.8668H63.4667V13.6001Z" fill="#EB6441"/>
<path d="M63.4667 20.3999H54.4V22.6666H63.4667V20.3999Z" fill="#EB6441"/>
<path d="M63.4667 24.9333H54.4V27.2H63.4667V24.9333Z" fill="#EB6441"/>
<path d="M47.6 11.3333C47.2994 11.3333 47.0113 11.4528 46.7988 11.6653L44.5321 13.932L46.1346 15.5345L48.0692 13.5999H52.1334V11.3333H47.6Z" fill="#EB6441"/>
<path d="M13.6 9.06665H4.53333V11.3333H13.6V9.06665Z" fill="#EB6441"/>
<path d="M13.6 13.6001H4.53333V15.8668H13.6V13.6001Z" fill="#EB6441"/>
<path d="M13.6 20.3999H4.53333V22.6666H13.6V20.3999Z" fill="#EB6441"/>
<path d="M13.6 24.9333H4.53333V27.2H13.6V24.9333Z" fill="#EB6441"/>
<path d="M11.3333 32.8667H6.79996C6.17408 32.8667 5.66663 33.3741 5.66663 34V38.5334C5.66663 39.1593 6.17408 39.6667 6.79996 39.6667H11.3333C11.9592 39.6667 12.4666 39.1593 12.4666 38.5334V34C12.4666 33.3741 11.9592 32.8667 11.3333 32.8667ZM10.2 37.4H7.93329V35.1334H10.2V37.4Z" fill="#EB6441"/>
<path d="M24.9333 31.7334H18.1333C17.5074 31.7334 17 32.2408 17 32.8667V39.6667C17 40.2926 17.5074 40.8001 18.1333 40.8001H24.9333C25.5592 40.8001 26.0667 40.2926 26.0667 39.6667V32.8667C26.0667 32.2408 25.5592 31.7334 24.9333 31.7334ZM23.8 38.5334H19.2667V34.0001H23.8V38.5334Z" fill="#EB6441"/>
<path d="M36.2666 32.8667H31.7333C31.1074 32.8667 30.6 33.3741 30.6 34V38.5334C30.6 39.1593 31.1074 39.6667 31.7333 39.6667H36.2666C36.8925 39.6667 37.4 39.1593 37.4 38.5334V34C37.4 33.3741 36.8925 32.8667 36.2666 32.8667ZM35.1333 37.4H32.8666V35.1334H35.1333V37.4Z" fill="#EB6441"/>
<path d="M48.7333 32.8667H44.2C43.5741 32.8667 43.0667 33.3741 43.0667 34V38.5334C43.0667 39.1593 43.5741 39.6667 44.2 39.6667H48.7333C49.3592 39.6667 49.8666 39.1593 49.8666 38.5334V34C49.8666 33.3741 49.3592 32.8667 48.7333 32.8667ZM47.6 37.4H45.3333V35.1334H47.6V37.4Z" fill="#EB6441"/>
<path d="M61.2 32.8667H56.6667C56.0408 32.8667 55.5333 33.3741 55.5333 34V38.5334C55.5333 39.1593 56.0408 39.6667 56.6667 39.6667H61.2C61.8259 39.6667 62.3333 39.1593 62.3333 38.5334V34C62.3333 33.3741 61.8259 32.8667 61.2 32.8667ZM60.0667 37.4H57.8V35.1334H60.0667V37.4Z" fill="#EB6441"/>
<path d="M41.9333 9.06665H26.0667V11.3333H41.9333V9.06665Z" fill="#EB6441"/>
</svg>
