<svg width="68" height="68" viewBox="0 0 68 68" fill="none" xmlns="http://www.w3.org/2000/svg">
<path d="M60.0667 2.2666H7.93333C3.55399 2.27156 0.00495833 5.82059 0 10.1999V46.4666C0.00495833 50.8459 3.55399 54.395 7.93333 54.3999H25.6768L22.9568 63.4666H19.2667V65.7333H48.7333V63.4666H45.0432L42.3232 54.3999H60.0667C64.446 54.395 67.995 50.8459 68 46.4666V10.1999C67.995 5.82059 64.446 2.27156 60.0667 2.2666ZM42.6768 63.4666H25.3232L28.0432 54.3999H39.9568L42.6768 63.4666ZM65.7333 46.4666C65.7297 49.5946 63.1947 52.1296 60.0667 52.1333H7.93333C4.80533 52.1296 2.27035 49.5946 2.26667 46.4666V45.3333H65.7333V46.4666ZM65.7333 43.0666H2.26667V10.1999C2.27035 7.07193 4.80533 4.53695 7.93333 4.53327H60.0667C63.1947 4.53695 65.7297 7.07193 65.7333 10.1999V43.0666Z" fill="#EB6441"/>
<path d="M47.6 18.1333H44.7667L41.7067 14.0533C41.4927 13.768 41.1568 13.6 40.8001 13.6H29.4667C29.11 13.6 28.7741 13.768 28.5601 14.0533L25.4196 18.2466L20.1734 19.2893C19.6457 19.397 19.2666 19.8614 19.2667 20.4V26.0666C19.2667 26.6925 19.7742 27.2 20.4001 27.2H24.0086C24.6227 28.9626 26.5494 29.8936 28.3119 29.2796C29.2861 28.9402 30.0521 28.1744 30.3915 27.2H37.6086C38.2227 28.9626 40.1494 29.8936 41.9118 29.2796C42.8861 28.9402 43.6521 28.1744 43.9915 27.2H47.6C48.2259 27.2 48.7334 26.6925 48.7334 26.0666V19.2666C48.7334 18.6408 48.2259 18.1333 47.6 18.1333ZM27.2001 27.2C26.5742 27.2 26.0667 26.6925 26.0667 26.0666C26.0667 25.4408 26.5742 24.9333 27.2001 24.9333C27.8259 24.9333 28.3334 25.4408 28.3334 26.0666C28.3334 26.6925 27.8259 27.2 27.2001 27.2ZM40.8001 27.2C40.1742 27.2 39.6667 26.6925 39.6667 26.0666C39.6667 25.4408 40.1742 24.9333 40.8001 24.9333C41.4259 24.9333 41.9334 25.4408 41.9334 26.0666C41.9334 26.6925 41.4259 27.2 40.8001 27.2ZM46.4667 24.9333H44.0063C43.9926 24.8948 43.9722 24.8608 43.9575 24.82C43.9326 24.7565 43.9031 24.6964 43.8748 24.6352C43.8161 24.5097 43.7498 24.3879 43.6764 24.2703C43.6425 24.2148 43.6096 24.157 43.5711 24.106C43.476 23.9721 43.3714 23.8453 43.2583 23.7263C43.2344 23.7014 43.2141 23.673 43.1903 23.6492C43.0501 23.5108 42.8984 23.3845 42.7369 23.2718C42.6882 23.2446 42.6383 23.2186 42.5919 23.1891C42.4686 23.1116 42.3407 23.0421 42.2088 22.9806C42.1465 22.9522 42.083 22.9273 42.0184 22.9024C41.8854 22.8509 41.7491 22.8085 41.6104 22.7754C41.5481 22.7596 41.488 22.7414 41.4245 22.7301C41.0133 22.6458 40.5891 22.6458 40.1779 22.7301C40.1144 22.7414 40.0543 22.7596 39.992 22.7754C39.8533 22.8085 39.717 22.8509 39.584 22.9024C39.5194 22.9273 39.4571 22.9522 39.3947 22.9806C39.2623 23.0418 39.1339 23.1113 39.0105 23.1891C38.9641 23.2186 38.9142 23.2446 38.8689 23.2752C38.7074 23.3879 38.5556 23.5142 38.4155 23.6526C38.3917 23.6764 38.3713 23.7048 38.3475 23.7297C38.2343 23.8487 38.1298 23.9755 38.0347 24.1094C37.9973 24.1626 37.9633 24.2227 37.9293 24.2737C37.8559 24.3913 37.7896 24.5131 37.731 24.6386C37.7015 24.6998 37.6732 24.7599 37.6483 24.8234C37.6335 24.8608 37.6131 24.8948 37.5995 24.9367H30.4063C30.3927 24.8982 30.3723 24.8642 30.3575 24.8234C30.3326 24.7599 30.3031 24.6998 30.2748 24.6386C30.2161 24.5131 30.1498 24.3913 30.0765 24.2737C30.0425 24.2182 30.0096 24.1604 29.9711 24.1094C29.876 23.9755 29.7714 23.8487 29.6583 23.7297C29.6345 23.7048 29.6141 23.6764 29.5903 23.6526C29.4501 23.5142 29.2984 23.3879 29.1369 23.2752C29.0916 23.2446 29.0417 23.2186 28.9953 23.1891C28.872 23.1116 28.7441 23.0421 28.6122 22.9806C28.5499 22.9522 28.4864 22.9273 28.4218 22.9024C28.2888 22.8509 28.1525 22.8085 28.0138 22.7754C27.9515 22.7596 27.8914 22.7414 27.8279 22.7301C27.4167 22.6458 26.9925 22.6458 26.5813 22.7301C26.5178 22.7414 26.4577 22.7596 26.3954 22.7754C26.2567 22.8085 26.1204 22.8509 25.9874 22.9024C25.9228 22.9273 25.8605 22.9522 25.7981 22.9806C25.6657 23.0418 25.5373 23.1113 25.4139 23.1891C25.3675 23.2186 25.3176 23.2446 25.2723 23.2752C25.1108 23.3879 24.959 23.5142 24.8189 23.6526C24.7951 23.6764 24.7747 23.7048 24.7509 23.7297C24.6377 23.8487 24.5332 23.9755 24.4381 24.1094C24.4007 24.1626 24.3667 24.2227 24.3327 24.2737C24.2593 24.3913 24.193 24.5131 24.1344 24.6386C24.1049 24.6998 24.0766 24.7599 24.0517 24.8234C24.0369 24.8608 24.0165 24.8948 24.0029 24.9367H21.5334V21.3282L26.2934 20.3773C26.5654 20.3226 26.8076 20.1692 26.9734 19.9466L30.0334 15.8666H40.2334L43.2934 19.9466C43.5074 20.232 43.8433 20.4 44.2001 20.4H46.4667V24.9333Z" fill="#EB6441"/>
<path d="M21.2013 11.6653C20.9888 11.4528 20.7006 11.3333 20.4 11.3333H15.8667V13.5999H19.9308L22.9988 16.6679L24.6013 15.0653L21.2013 11.6653Z" fill="#EB6441"/>
<path d="M63.4667 9.06665H54.4V11.3333H63.4667V9.06665Z" fill="#EB6441"/>
<path d="M63.4667 13.6H54.4V15.8666H63.4667V13.6Z" fill="#EB6441"/>
<path d="M63.4667 20.3999H54.4V22.6666H63.4667V20.3999Z" fill="#EB6441"/>
<path d="M63.4667 24.9333H54.4V27.2H63.4667V24.9333Z" fill="#EB6441"/>
<path d="M47.6 11.3333C47.2994 11.3333 47.0113 11.4528 46.7988 11.6653L44.5321 13.932L46.1346 15.5345L48.0692 13.5999H52.1334V11.3333H47.6Z" fill="#EB6441"/>
<path d="M13.6 9.06665H4.53333V11.3333H13.6V9.06665Z" fill="#EB6441"/>
<path d="M13.6 13.6H4.53333V15.8666H13.6V13.6Z" fill="#EB6441"/>
<path d="M13.6 20.3999H4.53333V22.6666H13.6V20.3999Z" fill="#EB6441"/>
<path d="M13.6 24.9333H4.53333V27.2H13.6V24.9333Z" fill="#EB6441"/>
<path d="M11.3333 32.8667H6.79996C6.17408 32.8667 5.66663 33.3741 5.66663 34V38.5334C5.66663 39.1593 6.17408 39.6667 6.79996 39.6667H11.3333C11.9592 39.6667 12.4666 39.1593 12.4666 38.5334V34C12.4666 33.3741 11.9592 32.8667 11.3333 32.8667ZM10.2 37.4H7.93329V35.1334H10.2V37.4Z" fill="#EB6441"/>
<path d="M24.9333 31.7333H18.1333C17.5074 31.7333 17 32.2407 17 32.8666V39.6666C17 40.2925 17.5074 40.7999 18.1333 40.7999H24.9333C25.5592 40.7999 26.0667 40.2925 26.0667 39.6666V32.8666C26.0667 32.2407 25.5592 31.7333 24.9333 31.7333ZM23.8 38.5333H19.2667V33.9999H23.8V38.5333Z" fill="#EB6441"/>
<path d="M36.2666 32.8667H31.7333C31.1074 32.8667 30.6 33.3741 30.6 34V38.5334C30.6 39.1593 31.1074 39.6667 31.7333 39.6667H36.2666C36.8925 39.6667 37.4 39.1593 37.4 38.5334V34C37.4 33.3741 36.8925 32.8667 36.2666 32.8667ZM35.1333 37.4H32.8666V35.1334H35.1333V37.4Z" fill="#EB6441"/>
<path d="M48.7333 32.8667H44.2C43.5741 32.8667 43.0667 33.3741 43.0667 34V38.5334C43.0667 39.1593 43.5741 39.6667 44.2 39.6667H48.7333C49.3592 39.6667 49.8666 39.1593 49.8666 38.5334V34C49.8666 33.3741 49.3592 32.8667 48.7333 32.8667ZM47.6 37.4H45.3333V35.1334H47.6V37.4Z" fill="#EB6441"/>
<path d="M61.2 32.8667H56.6667C56.0408 32.8667 55.5333 33.3741 55.5333 34V38.5334C55.5333 39.1593 56.0408 39.6667 56.6667 39.6667H61.2C61.8259 39.6667 62.3333 39.1593 62.3333 38.5334V34C62.3333 33.3741 61.8259 32.8667 61.2 32.8667ZM60.0667 37.4H57.8V35.1334H60.0667V37.4Z" fill="#EB6441"/>
<path d="M41.9333 9.06665H26.0667V11.3333H41.9333V9.06665Z" fill="#EB6441"/>
</svg>
