<svg width="18" height="18" viewBox="0 0 18 18" fill="none" xmlns="http://www.w3.org/2000/svg">
<path d="M6.61563 3.48601C6.61563 3.93962 6.61563 5.96425 6.61563 5.96425H4.79999V8.99464H6.61563V17.9999H10.3453V8.99489H12.8481C12.8481 8.99489 13.0825 7.54184 13.1962 5.95307C12.8704 5.95307 10.3594 5.95307 10.3594 5.95307C10.3594 5.95307 10.3594 4.19008 10.3594 3.88107C10.3594 3.57138 10.7661 3.15481 11.168 3.15481C11.5692 3.15481 12.4159 3.15481 13.2001 3.15481C13.2001 2.74222 13.2001 1.31662 13.2001 1.0825e-08C12.1532 1.0825e-08 10.9622 1.0825e-08 10.4372 1.0825e-08C6.52343 -0.000209236 6.61563 3.0332 6.61563 3.48601Z" fill="white"/>
</svg>
