<svg width="15" height="15" viewBox="0 0 15 15" fill="none" xmlns="http://www.w3.org/2000/svg">
<g clip-path="url(#clip0)">
<path d="M14.8405 6.09562L7.73026 0.889655C7.59315 0.789284 7.40688 0.789284 7.26983 0.889655L0.159538 6.09562C-0.0141334 6.2228 -0.0518678 6.46667 0.0753099 6.64034C0.202488 6.81401 0.446384 6.85169 0.620027 6.72457L7.50002 1.68715L14.38 6.72454C14.4494 6.77537 14.53 6.79983 14.6099 6.79983C14.7299 6.79983 14.8483 6.74461 14.9247 6.64031C15.0519 6.46667 15.0142 6.2228 14.8405 6.09562Z" fill="black" stroke="black" stroke-width="0.5"/>
<path d="M12.9564 6.81277C12.7412 6.81277 12.5667 6.98727 12.5667 7.20251V13.4061H9.44886V10.0198C9.44886 8.94518 8.57458 8.07096 7.50003 8.07096C6.42548 8.07096 5.5512 8.94524 5.5512 10.0198V13.4061H2.43334V7.20254C2.43334 6.9873 2.25882 6.8128 2.04361 6.8128C1.82839 6.8128 1.65387 6.9873 1.65387 7.20254V13.7959C1.65387 14.0111 1.82839 14.1856 2.04361 14.1856H5.94094C6.1459 14.1856 6.31363 14.0273 6.32915 13.8262C6.33009 13.8171 6.33068 13.8072 6.33068 13.7959V10.0198C6.33068 9.37502 6.85524 8.85046 7.50003 8.85046C8.14483 8.85046 8.66939 9.37505 8.66939 10.0198V13.7959C8.66939 13.8071 8.66997 13.8169 8.67091 13.8259C8.68626 14.0271 8.85405 14.1856 9.05912 14.1856H12.9565C13.1717 14.1856 13.3462 14.0111 13.3462 13.7959V7.20254C13.3462 6.98727 13.1717 6.81277 12.9564 6.81277Z" fill="black" stroke="black" stroke-width="0.5"/>
</g>
<defs>
<clipPath id="clip0">
<rect width="15" height="15" fill="white"/>
</clipPath>
</defs>
</svg>
