<svg width="70" height="70" viewBox="0 0 70 70" fill="none" xmlns="http://www.w3.org/2000/svg">
<g clip-path="url(#clip0)">
<path d="M40.8334 11.6665C38.2596 11.6665 36.1667 13.7595 36.1667 16.3331V18.6665H33.8334V16.3331C33.8334 13.7594 31.7403 11.6665 29.1667 11.6665C26.593 11.6665 24.5001 13.7595 24.5001 16.3331C24.5001 18.9067 26.5931 20.9997 29.1667 20.9997H31.5V33.8331C31.5 34.4783 32.0227 34.9997 32.6666 34.9997C33.3105 34.9997 33.8332 34.4783 33.8332 33.8331V20.9999H36.1666V33.8333C36.1666 34.4784 36.6893 34.9999 37.3332 34.9999C37.9772 34.9999 38.4998 34.4784 38.4998 33.8333V20.9999H40.8332C43.4069 20.9999 45.4998 18.9069 45.4998 16.3333C45.4998 13.7597 43.4069 11.6665 40.8334 11.6665ZM31.5 18.6665H29.1666C27.8798 18.6665 26.8332 17.6201 26.8332 16.3331C26.8332 15.0462 27.8797 13.9997 29.1666 13.9997C30.4534 13.9997 31.5 15.0462 31.5 16.3331V18.6665ZM40.8334 18.6665H38.5V16.3331C38.5 15.0463 39.5464 13.9997 40.8334 13.9997C42.1201 13.9997 43.1667 15.0462 43.1667 16.3331C43.1667 17.6201 42.1201 18.6665 40.8334 18.6665Z" fill="#EB6441"/>
<path d="M47.8334 51.3335H22.1666C21.5227 51.3335 21 51.8549 21 52.5001V68.8335C21 69.4787 21.5227 70.0001 22.1666 70.0001H47.8332C48.4772 70.0001 48.9999 69.4787 48.9999 68.8335V52.5001C49 51.8549 48.4773 51.3335 47.8334 51.3335ZM46.6666 67.6667H23.3334V53.6667H46.6668V67.6667H46.6666Z" fill="#EB6441"/>
<path d="M52.5 44.3333H17.5C16.856 44.3333 16.3334 44.8547 16.3334 45.4999V48.9986C16.3334 51.5724 18.4275 53.6665 21.0012 53.6665H48.9989C51.5726 53.6665 53.6667 51.5724 53.6667 48.9986V45.4999C53.6666 44.8547 53.1439 44.3333 52.5 44.3333ZM51.3334 48.9986C51.3334 50.2867 50.2869 51.3331 49 51.3331H21.0012C19.7132 51.3331 18.6668 50.2867 18.6668 48.9986V46.6665H51.3334V48.9986Z" fill="#EB6441"/>
<path d="M52.5 39.6667H17.5C14.2836 39.6667 11.6666 42.2835 11.6666 45.5001C11.6666 46.1453 12.1893 46.6667 12.8332 46.6667H57.1666C57.8106 46.6667 58.3332 46.1453 58.3332 45.5001C58.3334 42.2837 55.7164 39.6667 52.5 39.6667ZM14.1995 44.3335C14.6813 42.9755 15.9786 42.0001 17.5 42.0001H52.4989C54.0202 42.0001 55.3176 42.9755 55.7994 44.3335H14.1995Z" fill="#EB6441"/>
<path d="M51.3334 32.6665H18.6666C18.0227 32.6665 17.5 33.188 17.5 33.8331V40.8331C17.5 41.4783 18.0227 41.9998 18.6666 41.9998H51.3332C51.9772 41.9998 52.4999 41.4783 52.4999 40.8331V33.8331C52.5 33.1881 51.9773 32.6665 51.3334 32.6665ZM50.1666 39.6665H19.8334V34.9999H50.1668V39.6665H50.1666Z" fill="#EB6441"/>
<path d="M46.137 7.76412L40.7855 5.08785C40.4191 2.2225 37.9645 0 35 0C32.0355 0 29.5809 2.2225 29.2134 5.08785L23.863 7.76426C21.3768 9.00676 19.8334 11.5046 19.8334 14.2836V33.8334C19.8334 34.4786 20.3561 35 21 35H49C49.6439 35 50.1666 34.4786 50.1666 33.8334V14.2836C50.1666 11.5045 48.6232 9.00662 46.137 7.76412ZM47.8334 32.6666H22.1666V14.2834C22.1666 12.3946 23.2166 10.6959 24.9059 9.85236L30.8547 6.87736C31.2502 6.67898 31.4999 6.27539 31.4999 5.83324C31.4999 3.90359 33.0702 2.33324 34.9999 2.33324C36.9295 2.33324 38.4998 3.90359 38.4998 5.83324C38.4998 6.27539 38.7495 6.67912 39.145 6.87627L45.0938 9.85127C46.7831 10.6959 47.8331 12.3946 47.8331 14.2834V32.6666H47.8334Z" fill="#EB6441"/>
<path d="M54.8334 32.6665H15.1666C14.5227 32.6665 14 33.188 14 33.8331C14 34.4783 14.5227 34.9997 15.1666 34.9997H54.8332C55.4772 34.9997 55.9999 34.4783 55.9999 33.8331C55.9999 33.188 55.4773 32.6665 54.8334 32.6665Z" fill="#EB6441"/>
<path d="M60.6666 44.3333H9.33337C8.68942 44.3333 8.16675 44.8547 8.16675 45.4999C8.16675 46.145 8.68942 46.6665 9.33337 46.6665H60.6667C61.3107 46.6665 61.8334 46.145 61.8334 45.4999C61.8334 44.8547 61.3107 44.3333 60.6666 44.3333Z" fill="#EB6441"/>
<path d="M39.6666 51.3335H30.3332C29.6893 51.3335 29.1666 51.8549 29.1666 52.5001V59.5001C29.1666 62.7166 31.7834 65.3335 35 65.3335C38.2166 65.3335 40.8334 62.7167 40.8334 59.5001V52.5001C40.8334 51.8549 40.3107 51.3335 39.6666 51.3335ZM38.5 59.5001C38.5 61.4298 36.9297 63.0001 35 63.0001C33.0704 63.0001 31.5 61.4298 31.5 59.5001V53.6667H38.5V59.5001Z" fill="#EB6441"/>
<path d="M35 51.3335C34.3561 51.3335 33.8334 51.8549 33.8334 52.5001V58.3335C33.8334 58.9787 34.3561 59.5001 35 59.5001C35.6439 59.5001 36.1666 58.9787 36.1666 58.3335V52.5001C36.1666 51.8549 35.6439 51.3335 35 51.3335Z" fill="#EB6441"/>
<path d="M32.6666 23.3335H29.1666C28.5227 23.3335 28 23.8549 28 24.5001C28 25.1453 28.5227 25.6667 29.1666 25.6667H32.6666C33.3106 25.6667 33.8332 25.1453 33.8332 24.5001C33.8332 23.8549 33.3107 23.3335 32.6666 23.3335Z" fill="#EB6441"/>
<path d="M40.8334 23.3335H37.3334C36.6894 23.3335 36.1667 23.8549 36.1667 24.5001C36.1667 25.1453 36.6894 25.6667 37.3334 25.6667H40.8334C41.4773 25.6667 42 25.1453 42 24.5001C42 23.8549 41.4773 23.3335 40.8334 23.3335Z" fill="#EB6441"/>
<path d="M32.6666 28.0002H29.1666C28.5227 28.0002 28 28.5217 28 29.1669C28 29.812 28.5227 30.3335 29.1666 30.3335H32.6666C33.3106 30.3335 33.8332 29.812 33.8332 29.1669C33.8334 28.5217 33.3107 28.0002 32.6666 28.0002Z" fill="#EB6441"/>
<path d="M40.8334 28.0002H37.3334C36.6894 28.0002 36.1667 28.5217 36.1667 29.1669C36.1667 29.812 36.6894 30.3335 37.3334 30.3335H40.8334C41.4773 30.3335 42 29.812 42 29.1669C42 28.5217 41.4773 28.0002 40.8334 28.0002Z" fill="#EB6441"/>
</g>
<defs>
<clipPath id="clip0">
<rect width="70" height="70" fill="white"/>
</clipPath>
</defs>
</svg>
