<?xml version="1.0" encoding="utf-8"?>
<!-- Generator: Adobe Illustrator 22.1.0, SVG Export Plug-In . SVG Version: 6.00 Build 0)  -->
<svg version="1.1" id="Слой_1" xmlns="http://www.w3.org/2000/svg" xmlns:xlink="http://www.w3.org/1999/xlink" x="0px" y="0px"
	 viewBox="0 0 100 100" style="enable-background:new 0 0 100 100;" xml:space="preserve">
<style type="text/css">
	.st0{fill:none;stroke:#A4A4A4;stroke-width:2;}
	.st1{fill:#EB6441;stroke:#A4A4A4;}
	.st2{fill:none;stroke:#A4A4A4;}
	.st3{fill:#A4A4A4;stroke:#A4A4A4;}
</style>
<path class="st0" d="M89.1,79.5C95.3,71.3,99,61.1,99,50C99,23.1,77.3,1.3,50.5,1"/>
<path class="st1" d="M64.9,43.1h-2.1c-0.3,0-0.5,0.2-0.5,0.5c0,0.3,0.2,0.5,0.5,0.5h2.1c0.3,0,0.5-0.2,0.5-0.5L64.9,43.1z
	 M64.9,43.1c0.3,0,0.5,0.2,0.5,0.5L64.9,43.1z"/>
<path class="st2" d="M39,52.6L39,52.6l0.5,2.1l0,0c0.2,0.7,0.8,1.2,1.5,1.2H63c0.7,0,1.4-0.5,1.5-1.2l0.5-2.1c0.1-0.5,0-1-0.3-1.4
	s-0.8-0.6-1.2-0.6h-23c-0.5,0-0.9,0.2-1.2,0.6L39,52.6z M39,52.6c-0.1-0.5,0-1,0.3-1.4L39,52.6z M63.5,54.5
	C63.5,54.5,63.5,54.5,63.5,54.5c-0.1,0.3-0.3,0.4-0.6,0.4H41c-0.3,0-0.5-0.2-0.6-0.4L63.5,54.5z M63.5,54.5l0.5-2.1l0,0
	c0,0,0-0.1,0-0.2c0-0.1,0-0.2-0.1-0.3c-0.1-0.1-0.2-0.2-0.3-0.2c-0.1,0-0.2,0-0.2,0h0h-23c0,0,0,0,0,0c0,0-0.1,0-0.2,0
	c-0.1,0-0.2,0.1-0.3,0.2c-0.1,0.1-0.1,0.2-0.1,0.3c0,0.1,0,0.2,0,0.2c0,0,0,0,0,0l0.5,2.1L63.5,54.5z M63.5,52.7
	C63.5,52.7,63.5,52.7,63.5,52.7L63.5,52.7z M40.5,52.7L40.5,52.7C40.5,52.7,40.5,52.7,40.5,52.7z"/>
<path class="st3" d="M74.2,41.2l0.7,1.8l0.3-1.9c0.2-1.3,1.3-2.2,2.6-2.2h1.1c1.5,0,2.7,1.2,2.7,2.7c0,1.5-1.2,2.7-2.7,2.7h-1.1
	c-0.4,0-0.8-0.1-1.2-0.3L76,44.6l2.3,2.9l0,0c0.7,0.8,1.1,1.9,1.1,3v20c0,0.9-0.7,1.6-1.6,1.6h-3.2c-0.9,0-1.6-0.7-1.6-1.6v-4.4
	v-0.5h-0.5H31.5H31v0.5v4.4c0,0.9-0.7,1.6-1.6,1.6h-3.2c-0.9,0-1.6-0.7-1.6-1.6v-20c0-1.1,0.4-2.2,1.1-3v0l2.3-2.9l-0.6-0.8
	c-0.4,0.2-0.7,0.3-1.2,0.3h-1.1c-1.5,0-2.7-1.2-2.7-2.7c0-1.5,1.2-2.7,2.7-2.7h1.1c1.3,0,2.4,1,2.6,2.2l0.3,1.9l0.7-1.8l2.7-7.4
	c0.5-1.5,1.9-2.5,3.5-2.5h0.1h0.1h0.1h0.1h0.1h0.1h0.1h0.1h0.1h0.1h0.1h0.1h0.1H37H37h0.1h0.1h0.1h0.1h0.1h0.1h0.1h0.1h0.1h0.1h0.1
	h0.1h0.1h0.1H38h0.1h0.1h0.1h0.1h0.1h0.1h0.1h0.1h0.1h0.1h0.1h0.1h0.1h0.1H39H39h0.1h0.1h0.1h0.1h0.1h0.1h0.1h0.1h0.1h0.1h0.1h0.1
	h0.1h0.1H40h0.1h0.1h0.1h0.1h0.1h0.1h0.1h0.1h0.1h0.1h0.1h0.1h0.1h0.1h0.1H41H41h0.1h0.1h0.1h0.1h0.1h0.1h0.1h0.1h0.1h0.1h0.1h0.1
	h0.1h0.1H42H42h0.1h0.1h0.1h0.1h0.1h0.1h0.1h0.1h0.1h0.1h0.1h0.1h0.1h0.1h0.1H43H43h0.1h0.1h0.1h0.1h0.1h0.1h0.1h0.1h0.1h0.1h0.1
	h0.1h0.1h0.1h0.1H44H44h0.1h0.1h0.1h0.1h0.1h0.1h0.1h0.1h0.1h0.1h0.1h0.1h0.1h0.1h0.1H45H45h0.1h0.1h0.1h0.1h0.1h0.1h0.1h0.1h0.1
	h0.1h0.1h0.1h0.1h0.1h0.1h0.1H46H46h0.1h0.1h0.1h0.1h0.1h0.1h0.1h0.1h0.1h0.1h0.1h0.1h0.1h0.1h0.1H47H47h0.1h0.1h0.1h0.1h0.1h0.1
	h0.1h0.1h0.1h0.1h0.1h0.1h0.1h0.1h0.1h0.1H48H48h0.1h0.1h0.1h0.1h0.1h0.1h0.1h0.1h0.1h0.1h0.1h0.1h0.1h0.1h0.1h0.1H49H49h0.1h0.1
	h0.1h0.1h0.1h0.1h0.1h0.1h0.1h0.1h0.1h0.1h0.1h0.1h0.1h0.1H50h0.1h0.1h0.1h0.1h0.1h0.1h0.1h0.1h0.1h0.1h0.1h0.1h0.1h0.1h0.1h0.1H51
	H51h0.1h0.1h0.1h0.1h0.1h0.1h0.1h0.1h0.1h0.1h0.1h0.1h0.1h0.1h0.1h0.1H52H52h0.1h0.1h0.1h0.1h0.1h0.1h0.1h0.1h0.1h0.1h0.1h0.1h0.1
	h0.1h0.1H53H53h0.1h0.1h0.1h0.1h0.1h0.1h0.1h0.1h0.1h0.1h0.1h0.1h0.1h0.1h0.1h0.1H54h0.1h0.1h0.1h0.1h0.1h0.1h0.1h0.1h0.1h0.1h0.1
	h0.1h0.1h0.1h0.1h0.1H55h0.1h0.1h0.1h0.1h0.1h0.1h0.1h0.1h0.1h0.1h0.1h0.1h0.1h0.1h0.1h0.1H56h0.1h0.1h0.1h0.1h0.1h0.1h0.1h0.1h0.1
	h0.1h0.1h0.1h0.1h0.1h0.1H57H57h0.1h0.1h0.1h0.1h0.1h0.1h0.1h0.1h0.1h0.1h0.1h0.1h0.1h0.1H58H58h0.1h0.1h0.1h0.1h0.1h0.1h0.1h0.1
	h0.1h0.1h0.1h0.1h0.1h0.1H59H59h0.1h0.1h0.1h0.1h0.1h0.1h0.1h0.1h0.1h0.1h0.1h0.1h0.1H60H60h0.1h0.1h0.1h0.1h0.1h0.1h0.1h0.1h0.1
	h0.1h0.1h0.1h0.1h0.1H61h0.1h0.1h0.1h0.1h0.1h0.1h0.1h0.1h0.1h0.1h0.1h0.1h0.1H62H62h0.1h0.1h0.1h0.1h0.1h0.1h0.1h0.1h0.1h0.1h0.1
	h0.1h0.1H63h0.1h0.1h0.1h0.1h0.1h0.1h0.1h0.1h0.1h0.1h0.1h0.1h0.1H64h0.1h0.1h0.1h0.1h0.1h0.1h0.1h0.1h0.1h0.1h0.1h0.1h0.1H65h0.1
	h0.1h0.1h0.1h0.1h0.1h0.1h0.1h0.1h0.1h0.1h0.1H66h0.1h0.1h0.1h0.1h0.1h0.1h0.1h0.1h0.1h0.1h0.1h0.1H67h0.1h0.1h0.1h0.1h0.1h0.1h0.1
	h0.1h0.1h0.1h0.1h0.1H68c1.6,0,3,1,3.5,2.5l0,0L74.2,41.2z M26.4,65.1l-0.8-0.5v0.9v5c0,0.3,0.3,0.6,0.6,0.6h3.2
	c0.3,0,0.6-0.3,0.6-0.6l0-4.4v-0.5h-0.5h-1.1C27.7,65.6,27,65.4,26.4,65.1z M39.6,64.1v0.5h0.5h23.8h0h0.5v-0.5v-2.2
	c0-0.3-0.3-0.6-0.6-0.6H40.2c-0.3,0-0.6,0.3-0.6,0.6V64.1z M78.3,70.5V70h0v-4.5v-0.9l-0.8,0.5c-0.6,0.4-1.2,0.6-2,0.6h-1.1H74v0.5
	v4.4c0,0.3,0.3,0.6,0.6,0.6h3.2C78.1,71,78.3,70.8,78.3,70.5z M77.5,48.1L77.5,48.1l-3.1-3.8l-0.2-0.2h-0.2h-4.9
	c-0.3,0-0.5-0.2-0.5-0.5c0-0.3,0.2-0.5,0.5-0.5h3.9h0.7l-0.2-0.7l-3-8.3l0,0c-0.4-1.1-1.4-1.8-2.6-1.8H36c-1.1,0-2.2,0.7-2.6,1.8
	l0,0l-3,8.3l-0.2,0.7h0.7h27.6c0.3,0,0.5,0.2,0.5,0.5c0,0.3-0.2,0.5-0.5,0.5H29.9h-0.2l-0.2,0.2l-3.1,3.8c-0.5,0.7-0.8,1.5-0.8,2.4
	v11.4c0,1.5,1.2,2.7,2.7,2.7h9.7h0.5v-0.5v-2.2c0-0.9,0.7-1.6,1.6-1.6h23.6c0.9,0,1.6,0.7,1.6,1.6v2.2v0.5h0.5h9.7
	c1.5,0,2.7-1.2,2.7-2.7V50.5C78.3,49.6,78,48.8,77.5,48.1z M25.2,43.1h1.1c0.9,0,1.6-0.7,1.6-1.6c0-0.9-0.7-1.6-1.6-1.6h-1.1
	c-0.9,0-1.6,0.7-1.6,1.6C23.5,42.4,24.2,43.1,25.2,43.1z M77.8,39.8c-0.9,0-1.6,0.7-1.6,1.6c0,0.9,0.7,1.6,1.6,1.6h1.1
	c0.9,0,1.6-0.7,1.6-1.6c0-0.9-0.7-1.6-1.6-1.6H77.8z"/>
<path class="st3" d="M31.1,59.7c0-0.9,0.7-1.6,1.6-1.6c0.9,0,1.6,0.7,1.6,1.6c0,0.9-0.7,1.6-1.6,1.6C31.8,61.3,31.1,60.6,31.1,59.7z
	"/>
<path class="st3" d="M69.7,59.7c0-0.9,0.7-1.6,1.6-1.6c0.9,0,1.6,0.7,1.6,1.6c0,0.9-0.7,1.6-1.6,1.6S69.7,60.6,69.7,59.7z"/>
<path class="st1" d="M28.9,52.8c0-1.8,1.4-3.2,3.2-3.2s3.2,1.4,3.2,3.2c0,1.8-1.4,3.2-3.2,3.2S28.9,54.5,28.9,52.8z M30,52.8
	c0,1.2,1,2.2,2.2,2.2c1.2,0,2.2-1,2.2-2.2c0-1.2-1-2.2-2.2-2.2C30.9,50.6,30,51.6,30,52.8z"/>
<path class="st1" d="M68.7,52.8c0-1.8,1.4-3.2,3.2-3.2s3.2,1.4,3.2,3.2c0,1.8-1.4,3.2-3.2,3.2S68.7,54.5,68.7,52.8z M69.7,52.8
	c0,1.2,1,2.2,2.2,2.2c1.2,0,2.2-1,2.2-2.2c0-1.2-1-2.2-2.2-2.2C70.7,50.6,69.7,51.6,69.7,52.8z"/>
</svg>
