<svg width="70" height="70" viewBox="0 0 70 70" fill="none" xmlns="http://www.w3.org/2000/svg">
<path d="M34.9999 33.5294C31.2108 33.5294 28.1282 36.6121 28.1282 40.4012C28.1282 44.1902 31.2109 47.2729 34.9999 47.2729C35.8878 47.2729 36.7543 47.1043 37.5757 46.772C38.1275 46.5487 38.3938 45.9203 38.1706 45.3685C37.9473 44.8167 37.3185 44.5504 36.7671 44.7737C36.2039 45.0016 35.6093 45.1173 34.9999 45.1173C32.3994 45.1173 30.2838 43.0015 30.2838 40.4012C30.2838 37.8006 32.3995 35.6851 34.9999 35.6851C37.6003 35.6851 39.716 37.8008 39.716 40.4012C39.716 41.0753 39.5755 41.7279 39.2983 42.3408C39.0532 42.8833 39.2941 43.5217 39.8363 43.7669C40.379 44.0122 41.0173 43.7713 41.2624 43.2289C41.6667 42.335 41.8715 41.3838 41.8715 40.4012C41.8717 36.612 38.7889 33.5294 34.9999 33.5294Z" fill="#EB6441"/>
<path d="M44.6706 56.866C42.1348 56.866 40.0719 58.9289 40.0719 61.4646C40.0719 64.0004 42.1348 66.0633 44.6706 66.0633C47.2063 66.0633 49.2692 64.0005 49.2692 61.4646C49.2694 58.9288 47.2064 56.866 44.6706 56.866ZM44.6706 63.9075C43.3235 63.9075 42.2275 62.8116 42.2275 61.4645C42.2275 60.1174 43.3235 59.0215 44.6706 59.0215C46.0177 59.0215 47.1136 60.1174 47.1136 61.4645C47.1136 62.8116 46.0178 63.9075 44.6706 63.9075Z" fill="#EB6441"/>
<path d="M67.9976 26.7648L62.9077 21.6749C62.7056 21.4727 62.4315 21.3593 62.1456 21.3593C61.8598 21.3593 61.5856 21.4727 61.3836 21.6749L57.2588 25.7997C56.8251 25.5912 56.3481 25.4776 55.8527 25.4776C55.2896 25.4776 54.7492 25.622 54.2706 25.8896L50.4376 22.9297C49.9662 22.5659 49.2897 22.653 48.9258 23.124C48.562 23.5953 48.6491 24.272 49.12 24.6359L52.8389 27.5076C52.5613 28.1948 52.5305 28.9894 52.7499 29.6974L51.6634 30.6141L43.0555 23.9672V19.953L45.6907 21.9879C46.1619 22.3516 46.8386 22.2646 47.2026 21.7936C47.5664 21.3225 47.4793 20.6457 47.0083 20.2818L43.0556 17.2294V14.9554C43.0556 14.3601 42.573 13.8776 41.9779 13.8776H40.6096V12.7052H44.944C45.2969 12.7052 45.6273 12.5326 45.8288 12.243C46.0303 11.9534 46.0772 11.5835 45.9546 11.2528L42.0409 0.703007C41.8841 0.28041 41.4812 0 41.0303 0H28.9694C28.5235 0 28.1239 0.274394 27.9637 0.690292L26.8248 3.64533C26.6107 4.20081 26.8874 4.82466 27.4429 5.03862C27.9985 5.253 28.6223 4.97601 28.8362 4.42052L29.7093 2.15564H40.2808L43.3947 10.5493H39.532H30.4684H26.4741L27.1747 8.73166C27.3888 8.17618 27.1121 7.55233 26.5566 7.33837C26.0011 7.12399 25.3772 7.40098 25.1633 7.95647L23.898 11.2396C23.7703 11.5712 23.814 11.9443 24.015 12.2371C24.2158 12.53 24.5485 12.705 24.9037 12.705H29.3903V13.8773H28.0221C27.4268 13.8773 26.9443 14.36 26.9443 14.9551V17.2291L15.7293 25.8893C15.2508 25.6219 14.7106 25.4774 14.1472 25.4774C13.6517 25.4774 13.1748 25.5908 12.7412 25.7995L8.61652 21.6748C8.41445 21.4726 8.14033 21.3591 7.85445 21.3591C7.56857 21.3591 7.29445 21.4726 7.09238 21.6748L2.00249 26.7647C1.75776 27.0093 1.64551 27.3566 1.70048 27.6981L2.94284 35.4151C2.07167 36.6813 2.19622 38.431 3.32141 39.5561C3.93555 40.1702 4.75244 40.5086 5.62101 40.5086C5.95488 40.5086 6.28054 40.4577 6.59035 40.3614L7.51908 41.4621C7.15062 41.9987 6.95087 42.6322 6.95087 43.2972C6.95087 44.166 7.28912 44.9828 7.90339 45.5969C8.51753 46.2111 9.33442 46.5494 10.203 46.5495C10.6797 46.5495 11.1391 46.4444 11.5597 46.2509L12.3683 47.2094C11.952 47.7671 11.7237 48.439 11.7237 49.1477C11.7237 50.0164 12.062 50.8332 12.6762 51.4473C13.2904 52.0616 14.1073 52.4 14.9758 52.4C15.4967 52.4 15.9982 52.276 16.4493 52.046L17.2176 52.9567C16.7509 53.5332 16.4963 54.2458 16.4963 54.9979C16.4963 55.8666 16.8345 56.6834 17.4488 57.2975C18.0631 57.9116 18.8798 58.2501 19.7485 58.2501C20.455 58.2501 21.125 58.0229 21.6817 57.6091V61.8037C21.6817 62.399 22.1644 62.8815 22.7595 62.8815C23.3546 62.8815 23.8372 62.3989 23.8372 61.8037V55.0617V48.9116V44.4387C23.8372 44.4387 23.8372 41.0537 23.8372 41.0536C23.8372 36.1916 27.1223 31.7756 31.7705 30.3675C32.8161 30.0507 33.9075 29.8912 34.9999 29.8912C39.5437 29.8912 43.7346 32.7594 45.3938 36.9881C45.8998 38.2775 46.1624 39.6686 46.1624 41.054V44.439V48.9119V53.0596C45.6708 52.9728 45.1697 52.9296 44.6704 52.9296C39.9641 52.9296 36.1351 56.7585 36.1351 61.4649C36.1351 63.2919 36.7433 65.0854 37.824 66.5557C38.1611 67.0144 38.5482 67.4323 38.9716 67.8122C38.9832 67.8228 38.9941 67.834 39.0059 67.8444H23.8372V66.1153C23.8372 65.5199 23.3546 65.0375 22.7595 65.0375C22.1642 65.0375 21.6817 65.52 21.6817 66.1153V68.9223C21.6817 69.5177 22.1644 70 22.7595 70H44.6707H47.2404C47.741 70 48.1604 69.6583 48.282 69.196C51.1878 67.8332 53.206 64.881 53.206 61.4648C53.206 60.0572 52.8614 58.7292 52.2553 57.5575C52.3585 57.4769 52.4579 57.391 52.5513 57.2978C53.1656 56.6836 53.5038 55.8667 53.5038 54.9982C53.5038 54.2459 53.2492 53.5335 52.7825 52.957L53.5508 52.0463C54.0019 52.2762 54.5032 52.4002 55.0242 52.4002C55.8929 52.4002 56.7097 52.062 57.3238 51.4476C58.478 50.2934 58.578 48.4826 57.6313 47.2101L58.4404 46.2513C58.861 46.4448 59.3203 46.5499 59.7971 46.5499C60.6658 46.5499 61.4825 46.2117 62.0967 45.5974C62.7108 44.9833 63.0492 44.1664 63.0493 43.2977C63.0493 42.6327 62.8496 41.999 62.4811 41.4625L63.4099 40.3616C63.7197 40.4579 64.0455 40.5089 64.3793 40.5089C65.248 40.5089 66.0648 40.1706 66.6789 39.5564C67.2931 38.9421 67.6316 38.1253 67.6316 37.2567C67.6316 36.5885 67.4297 35.9522 67.0577 35.4139L68.2997 27.6985C68.3546 27.3566 68.2423 27.0094 67.9976 26.7648ZM31.546 12.705H38.454V13.8773H31.546V12.705ZM29.0995 24.4967H29.0997V17.7589V16.0333H30.468H39.5316H40.8998V24.7317H29.0997V24.4967H29.0995ZM26.9442 19.9528V23.9672L18.3362 30.6143L17.2521 29.6994C17.3483 29.3896 17.3993 29.0638 17.3993 28.7299C17.3993 28.3036 17.3169 27.8903 17.1613 27.5069L26.9442 19.9528ZM7.85431 23.9613L11.0854 27.1925L4.81219 33.4657L3.91613 27.8997L7.85431 23.9613ZM6.39621 38.0318C6.3958 38.0322 6.39539 38.0325 6.39498 38.0329C6.35724 38.0705 6.31076 38.1088 6.25265 38.1499C6.24349 38.1565 6.23515 38.1641 6.22613 38.1708C6.04812 38.2891 5.83935 38.353 5.62088 38.353C5.32789 38.353 5.05254 38.2388 4.84541 38.0318C4.41789 37.6041 4.41789 36.9085 4.84541 36.4809L13.372 27.9543C13.5791 27.7472 13.8545 27.6331 14.1473 27.6331C14.4402 27.6331 14.7157 27.7473 14.9228 27.9544C14.9237 27.9554 14.9247 27.9566 14.9257 27.9576C14.933 27.9659 14.9395 27.9749 14.9471 27.983C15.3004 28.3607 15.3399 28.9406 15.0411 29.3613C15.0411 29.3614 15.0409 29.3614 15.0409 29.3615C14.9994 29.42 14.9608 29.4669 14.9227 29.5049L6.39621 38.0318ZM8.36003 39.1164L16.0071 31.4693L16.7796 32.1211L9.01177 39.8889L8.36003 39.1164ZM10.9969 44.0541L10.9782 44.0728C10.7711 44.28 10.4956 44.394 10.2027 44.394C9.90987 44.394 9.63439 44.2798 9.42726 44.0727C9.22013 43.8656 9.10611 43.5902 9.10611 43.2972C9.10611 43.0044 9.21999 42.729 9.42726 42.5218L19.2219 32.7271C19.429 32.52 19.7044 32.4061 19.9972 32.4061C20.2901 32.4061 20.5656 32.5201 20.7727 32.7273C20.9798 32.9344 21.0939 33.2097 21.0939 33.5027C21.0939 33.7529 21.0099 33.9899 20.8566 34.1829C20.8561 34.1836 20.8553 34.1843 20.8546 34.1852C20.8449 34.1974 20.8356 34.2081 20.8263 34.219C20.8089 34.2391 20.7916 34.2592 20.7726 34.2782L10.9969 44.0541ZM20.5237 55.7732C20.3166 55.9803 20.0413 56.0944 19.7484 56.0944C19.4554 56.0944 19.1801 55.9802 18.9729 55.7731C18.7658 55.566 18.6518 55.2906 18.6518 54.9977C18.6518 54.7049 18.7658 54.4294 18.9729 54.2223L21.6816 51.5136V54.6153L20.5237 55.7732ZM21.6816 48.4652L18.7348 51.4122L18.0829 50.6397L21.6816 47.041V48.4652ZM21.6816 41.0536V43.9923L15.8582 49.8157L15.7509 49.9229C15.5438 50.13 15.2683 50.244 14.9754 50.244C14.6826 50.244 14.4072 50.1299 14.2 49.9228C13.9928 49.7156 13.8788 49.4403 13.8788 49.1474C13.8788 48.8546 13.9927 48.5791 14.2 48.372L21.6824 40.8895C21.682 40.9443 21.6816 40.999 21.6816 41.0536ZM22.22 37.3038L13.8732 45.6506L13.2215 44.8781L17.4507 40.6489L21.7687 36.3309L22.3668 36.8355C22.315 36.9903 22.2662 37.1464 22.22 37.3038ZM35 27.7355C29.9276 27.7355 25.5092 30.5861 23.2607 34.769L23.0575 34.5976C23.1815 34.2506 23.2496 33.8823 23.2496 33.5026C23.2496 32.6339 22.9114 31.817 22.297 31.203C22.1162 31.0222 21.9159 30.8684 21.704 30.7369L27.1934 26.4981C27.3911 26.7356 27.6889 26.8869 28.0221 26.8869H41.9779C42.3112 26.8869 42.609 26.7356 42.8067 26.4981L48.2961 30.7369C48.0839 30.8683 47.8838 31.022 47.703 31.203C46.7868 32.1193 46.5363 33.4495 46.9442 34.5962L46.7395 34.7689C44.4908 30.5861 40.0722 27.7355 35 27.7355ZM50.4346 64.1978C50.041 65.0246 49.468 65.7632 48.7668 66.3518C48.0424 66.9598 47.1844 67.4048 46.2663 67.6416C45.7457 67.7757 45.2083 67.8442 44.6705 67.8442C41.1528 67.8442 38.2909 64.9824 38.2909 61.4647C38.2909 57.9469 41.1528 55.085 44.6705 55.085C46.5065 55.085 48.2866 55.9192 49.4938 57.296C50.496 58.4388 51.0501 59.9472 51.0501 61.4647C51.0501 62.4076 50.8398 63.3463 50.4346 64.1978ZM51.0282 55.7717C50.2668 54.9194 49.3484 54.2327 48.3182 53.746V51.5138L51.0269 54.2224C51.234 54.4295 51.348 54.7049 51.348 54.9979C51.3479 55.2899 51.2345 55.5647 51.0282 55.7717ZM51.2652 51.4122L48.3183 48.4653V47.041L51.917 50.6397L51.2652 51.4122ZM55.7997 49.923C55.5926 50.1302 55.3171 50.2442 55.0242 50.2442C54.7312 50.2442 54.4559 50.13 54.2488 49.923L48.3182 43.9925V41.0538C48.3182 40.9993 48.3179 40.9445 48.3172 40.8899L55.7997 48.3722C56.2272 48.7996 56.2272 49.4955 55.7997 49.923ZM56.1266 45.6506L47.7798 37.3039C47.7336 37.1465 47.6848 36.9901 47.633 36.8354L48.2311 36.3308L56.7783 44.8781L56.1266 45.6506ZM60.5724 44.0728C60.3653 44.28 60.0899 44.394 59.7971 44.394C59.5042 44.394 59.2287 44.2798 59.0216 44.0728L49.2271 34.2783C49.2065 34.2577 49.1876 34.2358 49.1689 34.2139C49.1611 34.2048 49.1537 34.1962 49.1455 34.1859C49.1451 34.1854 49.1444 34.1848 49.1438 34.184C48.8022 33.7539 48.8295 33.1248 49.2271 32.7274C49.4342 32.5203 49.7097 32.4062 50.0026 32.4062C50.2954 32.4062 50.5709 32.5203 50.778 32.7274L60.5725 42.5221C60.7797 42.7292 60.8937 43.0045 60.8937 43.2974C60.8937 43.5902 60.7797 43.8656 60.5724 44.0728ZM60.988 39.8889L53.2202 32.1211L53.9927 31.4693L57.8162 35.2928L61.6396 39.1163L60.988 39.8889ZM65.1545 38.0318C64.9474 38.2389 64.6721 38.353 64.3791 38.353C64.1604 38.353 63.9517 38.2892 63.7737 38.1708C63.7646 38.164 63.7562 38.1564 63.7467 38.1498C63.6884 38.1084 63.6416 38.07 63.6035 38.0318L55.077 29.5052C55.0685 29.4967 55.0614 29.4877 55.0534 29.4791C55.0227 29.4457 54.9917 29.4083 54.9586 29.3617V29.3615C54.6599 28.9404 54.6993 28.3607 55.0523 27.983C55.0576 27.9774 55.0618 27.9711 55.067 27.9654C55.0704 27.9619 55.0733 27.958 55.0767 27.9546C55.2839 27.7474 55.5594 27.6334 55.8522 27.6334C56.1451 27.6334 56.4205 27.7476 56.6277 27.9546L65.1541 36.481C65.5821 36.9087 65.5821 37.6041 65.1545 38.0318ZM65.1878 33.4657L58.9146 27.1925L62.1456 23.9613L66.0838 27.8995L65.1878 33.4657Z" fill="#EB6441"/>
</svg>
