<svg width="15" height="15" viewBox="0 0 15 15" fill="none" xmlns="http://www.w3.org/2000/svg">
<g clip-path="url(#clip0)">
<path d="M1.4397 5.24022C1.62945 5.37412 2.20142 5.77179 3.15564 6.43303C4.1099 7.09428 4.84092 7.60342 5.34874 7.96048C5.40453 7.99962 5.52307 8.08471 5.7044 8.21585C5.88576 8.34707 6.03646 8.45312 6.15637 8.53401C6.27637 8.61487 6.42144 8.70558 6.59172 8.80599C6.76194 8.90632 6.9224 8.98179 7.07307 9.03174C7.22376 9.08211 7.36326 9.10706 7.49159 9.10706H7.5H7.50844C7.63677 9.10706 7.77632 9.08208 7.92702 9.03174C8.07763 8.98179 8.23823 8.90623 8.40831 8.80599C8.57847 8.70546 8.72354 8.61484 8.84354 8.53401C8.96354 8.45312 9.11412 8.34707 9.29554 8.21585C9.47684 8.08459 9.59552 7.99962 9.65132 7.96048C10.1646 7.60342 11.4705 6.69657 13.5687 5.24004C13.976 4.95557 14.3164 4.61231 14.5897 4.2105C14.8633 3.80887 15 3.38754 15 2.94674C15 2.57838 14.8674 2.26307 14.6023 2.00081C14.3372 1.7385 14.0233 1.60742 13.6607 1.60742H1.33923C0.909571 1.60742 0.578919 1.75249 0.347334 2.04262C0.115778 2.33281 0 2.69554 0 3.13077C0 3.48232 0.153511 3.86329 0.460385 4.27342C0.76723 4.68358 1.09378 5.00588 1.4397 5.24022Z" fill="#EB6441"/>
<path d="M14.1628 6.13543C12.3327 7.37416 10.943 8.33685 9.99444 9.02331C9.67637 9.25759 9.41834 9.44048 9.22018 9.57153C9.02201 9.70267 8.75847 9.8366 8.42917 9.97325C8.09999 10.1101 7.7932 10.1783 7.50855 10.1783H7.50002H7.4916C7.20701 10.1783 6.90005 10.1101 6.57086 9.97325C6.24168 9.8366 5.97796 9.70267 5.77986 9.57153C5.58181 9.44048 5.32369 9.25759 5.00565 9.02331C4.25226 8.4709 2.86557 7.50814 0.845509 6.13543C0.527347 5.92352 0.24554 5.68062 0 5.40723V12.0532C0 12.4218 0.131082 12.7369 0.393392 12.9992C0.655644 13.2616 0.970991 13.3927 1.33932 13.3927H13.6608C14.029 13.3927 14.3443 13.2616 14.6066 12.9992C14.869 12.7368 15 12.4218 15 12.0532V5.40723C14.76 5.67496 14.4811 5.91786 14.1628 6.13543Z" fill="#EB6441"/>
</g>
<defs>
<clipPath id="clip0">
<rect width="15" height="15" fill="white"/>
</clipPath>
</defs>
</svg>
