<svg width="100" height="100" viewBox="0 0 100 100" fill="none" xmlns="http://www.w3.org/2000/svg">
<mask id="mask0" mask-type="alpha" maskUnits="userSpaceOnUse" x="0" y="0" width="100" height="100">
<path d="M99 50C99 77.062 77.062 99 50 99C22.938 99 1 77.062 1 50C1 22.938 22.938 1 50 1C77.062 1 99 22.938 99 50Z" stroke="#EB6441" stroke-width="2"/>
</mask>
<g mask="url(#mask0)">
<rect x="50" width="50" height="80" fill="#EB6441"/>
</g>
<path d="M64.8858 42.6242H62.7386C62.1826 42.6242 61.7318 43.0749 61.7318 43.631C61.7318 44.1869 62.1825 44.6377 62.7386 44.6377H64.8858C65.4417 44.6377 65.8925 44.187 65.8925 43.631C65.8924 43.0749 65.4417 42.6242 64.8858 42.6242Z" fill="#EB6441"/>
<path d="M65.1504 50.9411C64.7534 50.4326 64.1556 50.1409 63.5105 50.1409H40.4894C39.8442 50.1409 39.2466 50.4326 38.8494 50.9411C38.4524 51.4497 38.3144 52.1002 38.4709 52.7261L39.0079 54.8739C39.2399 55.8017 40.0699 56.4497 41.0263 56.4497H62.9737C63.93 56.4497 64.7599 55.8017 64.9921 54.8738L65.529 52.7261C65.6855 52.1001 65.5474 51.4496 65.1504 50.9411ZM63.5756 52.2379L63.0387 54.3855C63.0312 54.4156 63.0045 54.4363 62.9737 54.4363H41.0263C40.9955 54.4363 40.9685 54.4153 40.9612 54.3856L40.4242 52.2379C40.4217 52.2284 40.4162 52.2061 40.4364 52.1803C40.4565 52.1546 40.4795 52.1546 40.4892 52.1546H63.5105C63.5203 52.1546 63.5432 52.1546 63.5633 52.1803C63.5835 52.2061 63.5781 52.2283 63.5756 52.2379Z" fill="#EB6441"/>
<path d="M78.8457 44.6376C80.585 44.6376 82 43.2225 82 41.4832C82 39.7439 80.585 38.3289 78.8457 38.3289H77.7719C76.2036 38.3289 74.8993 39.4797 74.6578 40.981L71.9723 33.5955C71.367 31.9306 69.7701 30.8121 67.9987 30.8121C54.4234 30.8121 47.7028 30.8121 36.0012 30.8121C34.2298 30.8121 32.6329 31.9307 32.0276 33.5953L29.3421 40.9809C29.1009 39.4797 27.7966 38.3289 26.2282 38.3289H25.1545C23.415 38.3289 22 39.7439 22 41.4832C22 43.2225 23.415 44.6376 25.1543 44.6376H26.2281C26.7239 44.6376 27.1932 44.5223 27.6111 44.3175L25.3095 47.1946C24.5602 48.1312 24.1476 49.3074 24.1476 50.5067V70.4765C24.1476 71.6238 25.0809 72.557 26.2281 72.557H29.4496C30.5969 72.557 31.5302 71.6238 31.5302 70.4765V66.1141H72.4697V70.4765C72.4697 71.6238 73.403 72.557 74.5503 72.557H77.7718C78.919 72.557 79.8523 71.6238 79.8523 70.4765V50.5067C79.8523 49.3074 79.4397 48.131 78.6904 47.1946L76.3888 44.3175C76.8067 44.5223 77.2759 44.6376 77.7718 44.6376H78.8457ZM26.2282 42.6242H25.1545C24.5253 42.6242 24.0135 42.1124 24.0135 41.4832C24.0135 40.8541 24.5253 40.3423 25.1545 40.3423H26.2282C26.8574 40.3423 27.3692 40.8541 27.3692 41.4832C27.3692 42.1123 26.8573 42.6242 26.2282 42.6242ZM29.5168 70.4765C29.5168 70.5135 29.4866 70.5436 29.4496 70.5436H26.2281C26.1911 70.5436 26.161 70.5135 26.161 70.4765V65.4857C26.8055 65.8837 27.5642 66.1141 28.3757 66.1141H29.5166L29.5168 70.4765ZM63.8792 64.1007H40.1208V61.8859C40.1208 61.8489 40.1509 61.8188 40.188 61.8188H63.8121C63.8492 61.8188 63.8793 61.8489 63.8793 61.8859V64.1007H63.8792ZM77.8389 70.4765C77.8389 70.5135 77.8088 70.5436 77.7718 70.5436H74.5503C74.5132 70.5436 74.4831 70.5135 74.4831 70.4765V66.1141H75.6241C76.4356 66.1141 77.1943 65.8837 77.8388 65.4857V70.4765H77.8389ZM77.1184 48.4524C77.583 49.0333 77.839 49.7629 77.839 50.5068V61.8859C77.839 63.1072 76.8455 64.1007 75.6243 64.1007H65.8926V61.8859C65.8926 60.7387 64.9593 59.8054 63.812 59.8054H40.188C39.0407 59.8054 38.1074 60.7387 38.1074 61.8859V64.1007H28.3758C27.1546 64.1007 26.1611 63.1072 26.1611 61.8859V50.5068C26.1611 49.7629 26.417 49.0333 26.8818 48.4524L29.9335 44.6376H58.443C58.9989 44.6376 59.4497 44.1869 59.4497 43.6308C59.4497 43.0749 58.999 42.6241 58.443 42.6241H30.887L33.9201 34.2832C34.2371 33.4112 35.0736 32.8254 36.0014 32.8254H67.9988C68.9267 32.8254 69.763 33.4114 70.0802 34.2832L73.1132 42.6241H69.1814C68.6255 42.6241 68.1747 43.0748 68.1747 43.6308C68.1747 44.1867 68.6254 44.6376 69.1814 44.6376H74.0668L77.1184 48.4524ZM76.6308 41.4832C76.6308 40.8541 77.1426 40.3423 77.7718 40.3423H78.8455C79.4747 40.3423 79.9865 40.8541 79.9865 41.4832C79.9865 42.1124 79.4747 42.6242 78.8455 42.6242H77.7718C77.1427 42.6242 76.6308 42.1123 76.6308 41.4832Z" fill="#EB6441"/>
<path d="M32.6711 57.6577C31.5239 57.6577 30.5906 58.591 30.5906 59.7382C30.5906 60.8855 31.5239 61.8188 32.6711 61.8188C33.8184 61.8188 34.7517 60.8855 34.7517 59.7382C34.7517 58.591 33.8184 57.6577 32.6711 57.6577Z" fill="#EB6441"/>
<path d="M71.3289 57.6577C70.1816 57.6577 69.2484 58.591 69.2484 59.7382C69.2484 60.8855 70.1816 61.8188 71.3289 61.8188C72.4762 61.8188 73.4095 60.8855 73.4095 59.7382C73.4095 58.591 72.4761 57.6577 71.3289 57.6577Z" fill="#EB6441"/>
<path d="M32.1342 49.0672C30.0988 49.0672 28.4429 50.723 28.4429 52.7585C28.4429 54.7939 30.0988 56.4497 32.1342 56.4497C34.1697 56.4497 35.8255 54.7939 35.8255 52.7585C35.8255 50.723 34.1697 49.0672 32.1342 49.0672ZM32.1342 54.4362C31.209 54.4362 30.4563 53.6837 30.4563 52.7583C30.4563 51.833 31.2089 51.0804 32.1342 51.0804C33.0595 51.0804 33.8121 51.833 33.8121 52.7583C33.8121 53.6837 33.0594 54.4362 32.1342 54.4362Z" fill="#EB6441"/>
<path d="M71.8658 49.0672C69.8304 49.0672 68.1745 50.723 68.1745 52.7585C68.1745 54.7939 69.8304 56.4497 71.8658 56.4497C73.9012 56.4497 75.5571 54.7939 75.5571 52.7585C75.5571 50.723 73.9012 49.0672 71.8658 49.0672ZM71.8658 54.4362C70.9406 54.4362 70.1879 53.6837 70.1879 52.7583C70.1879 51.833 70.9405 51.0804 71.8658 51.0804C72.791 51.0804 73.5437 51.833 73.5437 52.7583C73.5437 53.6837 72.7911 54.4362 71.8658 54.4362Z" fill="#EB6441"/>
</svg>
