<svg width="17" height="17" viewBox="0 0 17 17" fill="none" xmlns="http://www.w3.org/2000/svg">
<path d="M8.4997 0C5.049 0 2.24133 2.80767 2.24133 6.25872C2.24133 7.15888 2.42558 8.01834 2.78867 8.81342C4.35344 12.2375 7.35353 15.8526 8.23595 16.8789C8.30206 16.9556 8.39845 16.9998 8.49988 16.9998C8.60131 16.9998 8.69769 16.9556 8.7638 16.8789C9.64588 15.8528 12.646 12.2379 14.2113 8.81342C14.5745 8.01834 14.7586 7.15888 14.7586 6.25872C14.7582 2.80767 11.9506 0 8.4997 0ZM8.4997 9.50951C6.7072 9.50951 5.24873 8.05105 5.24873 6.25854C5.24873 4.46586 6.7072 3.0074 8.4997 3.0074C10.2922 3.0074 11.7507 4.46586 11.7507 6.25854C11.7508 8.05105 10.2924 9.50951 8.4997 9.50951Z" fill="#EB6441"/>
</svg>
