<svg width="70" height="70" viewBox="0 0 70 70" fill="none" xmlns="http://www.w3.org/2000/svg">
<path d="M51.9355 9.03226H28.2258V6.77419H29.3548C29.9794 6.77419 30.4839 6.26811 30.4839 5.64516V1.12903C30.4839 0.50608 29.9794 0 29.3548 0H13.5484C12.9238 0 12.4193 0.50608 12.4193 1.12903V5.64516C12.4193 6.26811 12.9238 6.77419 13.5484 6.77419H14.6774V9.80571C12.012 11.077 10.1613 13.791 10.1613 16.9355V62.0968C10.1613 66.4536 13.7077 70 18.0645 70H51.9355C56.2923 70 59.8387 66.4536 59.8387 62.0968V16.9355C59.8387 12.5776 56.2923 9.03226 51.9355 9.03226ZM57.5806 16.9355V34.5325L53.0645 30.0164V19.1935C53.0645 17.3263 51.5446 15.8065 49.6774 15.8065H38.8546L34.3385 11.2903H51.9355C55.048 11.2903 57.5806 13.8229 57.5806 16.9355ZM50.8064 27.7583L41.1126 18.0645H49.6774C50.3004 18.0645 50.8064 18.5717 50.8064 19.1935V27.7583ZM14.6774 2.25806H28.2258V4.51613H14.6774V2.25806ZM16.9355 6.77419H25.9677V9.03226H18.0645C17.6808 9.03226 17.3059 9.06975 16.9355 9.12267V6.77419ZM51.9355 67.7419H18.0645C14.952 67.7419 12.4193 65.2093 12.4193 62.0968V16.9355C12.4193 13.8229 14.952 11.2903 18.0645 11.2903H31.1454L57.5806 37.7256V62.0968C57.5806 65.2093 55.048 67.7419 51.9355 67.7419Z" fill="#EB6441"/>
<path d="M30.1531 13.8791C29.942 13.6669 29.6553 13.5483 29.3548 13.5483H19.1936C16.7029 13.5483 14.6774 15.5738 14.6774 18.0645V60.9677C14.6774 63.4584 16.7029 65.4838 19.1936 65.4838H50.8065C53.2972 65.4838 55.3226 63.4584 55.3226 60.9677V39.5161C55.3226 39.2156 55.2041 38.929 54.9918 38.7178L30.1531 13.8791ZM53.0645 60.9677C53.0645 62.213 52.0518 63.2258 50.8065 63.2258H19.1936C17.9482 63.2258 16.9355 62.213 16.9355 60.9677V18.0645C16.9355 16.8191 17.9482 15.8064 19.1936 15.8064H28.8874L53.0645 39.9836V60.9677Z" fill="#EB6441"/>
<path d="M25.9677 50.5219C25.9677 54.6901 28.9552 58.187 32.9156 58.6533C33.2287 58.6892 33.5424 58.7085 33.8528 58.7085C35.7894 58.7085 37.6688 58.005 39.1198 56.7145C40.8078 55.215 41.7742 53.0622 41.7742 50.8063V50.5219C41.7742 48.3024 41.213 46.1006 40.1507 44.154L34.8622 34.4591C34.4669 33.733 33.275 33.733 32.8798 34.4591L27.5913 44.1529C26.529 46.1006 25.9677 48.3024 25.9677 50.5219ZM29.5737 45.2345L33.871 37.3583L38.1682 45.2367C39.0497 46.8514 39.5161 48.6795 39.5161 50.5219V50.8063C39.5161 52.4172 38.8254 53.9553 37.6192 55.0264C36.3986 56.1119 34.8192 56.6026 33.1802 56.4107C30.4028 56.0832 28.2258 53.4966 28.2258 50.5219C28.2258 48.6795 28.6922 46.8514 29.5737 45.2345Z" fill="#EB6441"/>
<path d="M38.3871 50.8064H36.129C36.129 52.0517 35.1163 53.0645 33.871 53.0645V55.3225C36.3617 55.3225 38.3871 53.2971 38.3871 50.8064Z" fill="#EB6441"/>
</svg>
