<svg width="70" height="70" viewBox="0 0 70 70" fill="none" xmlns="http://www.w3.org/2000/svg">
<path d="M14.5832 28H43.7498C44.3938 28 44.9165 27.4773 44.9165 26.8333C44.9165 26.1893 44.3938 25.6667 43.7498 25.6667H14.5832C13.9392 25.6667 13.4165 26.1893 13.4165 26.8333C13.4165 27.4773 13.9392 28 14.5832 28Z" fill="#EB6441"/>
<path d="M14.5832 18.6667H26.2498C26.8938 18.6667 27.4165 18.144 27.4165 17.5C27.4165 16.856 26.8938 16.3333 26.2498 16.3333H14.5832C13.9392 16.3333 13.4165 16.856 13.4165 17.5C13.4165 18.144 13.9392 18.6667 14.5832 18.6667Z" fill="#EB6441"/>
<path d="M14.5832 37.3333H43.7498C44.3938 37.3333 44.9165 36.8107 44.9165 36.1667C44.9165 35.5227 44.3938 35 43.7498 35H14.5832C13.9392 35 13.4165 35.5227 13.4165 36.1667C13.4165 36.8107 13.9392 37.3333 14.5832 37.3333Z" fill="#EB6441"/>
<path d="M34.4165 44.3333H14.5832C13.9392 44.3333 13.4165 44.856 13.4165 45.5C13.4165 46.144 13.9392 46.6667 14.5832 46.6667H34.4165C35.0605 46.6667 35.5832 46.144 35.5832 45.5C35.5832 44.856 35.0605 44.3333 34.4165 44.3333Z" fill="#EB6441"/>
<path d="M30.9165 53.6667H14.5832C13.9392 53.6667 13.4165 54.1893 13.4165 54.8333C13.4165 55.4773 13.9392 56 14.5832 56H30.9165C31.5605 56 32.0832 55.4773 32.0832 54.8333C32.0832 54.1893 31.5605 53.6667 30.9165 53.6667Z" fill="#EB6441"/>
<path d="M56.5833 40.0902V17.017L39.5663 0H1.75V70H53.0833C61.446 70 68.25 63.196 68.25 54.8333C68.25 47.677 63.2613 41.6768 56.5833 40.0902ZM40.25 3.983L52.6003 16.3333H40.25V3.983ZM45.0077 67.6667H4.08333V2.33333H37.9167V18.6667H54.25V39.718C53.851 39.6842 53.4637 39.6667 53.0833 39.6667C44.7207 39.6667 37.9167 46.4707 37.9167 54.8333C37.9167 55.2988 37.9458 55.7573 37.9867 56.2135C37.996 56.3197 38.0065 56.4247 38.0182 56.5308C38.0683 56.9765 38.1325 57.4175 38.22 57.8503C38.2305 57.9017 38.2445 57.9518 38.255 58.0032C38.339 58.3975 38.4405 58.7848 38.5548 59.1675C38.584 59.2632 38.6108 59.36 38.6412 59.4545C38.773 59.8652 38.92 60.2688 39.0845 60.6643C39.116 60.739 39.151 60.8113 39.1825 60.8848C39.333 61.2302 39.4963 61.5673 39.6713 61.8987C39.7133 61.978 39.753 62.0585 39.7962 62.1378C40.0003 62.5077 40.2197 62.8682 40.4542 63.2193C40.5078 63.2998 40.5638 63.3768 40.6187 63.4562C40.8322 63.7642 41.0562 64.064 41.2907 64.3545C41.335 64.4093 41.377 64.4665 41.4225 64.5213C41.692 64.8457 41.9767 65.156 42.2718 65.4558C42.3442 65.5293 42.4177 65.6005 42.4923 65.6728C42.7782 65.9517 43.071 66.2223 43.3778 66.4778C43.4047 66.5012 43.4303 66.5257 43.4583 66.5478C43.7873 66.8185 44.1315 67.0717 44.4838 67.3155C44.569 67.375 44.6553 67.4322 44.7417 67.4893C44.8315 67.5465 44.9178 67.6095 45.0077 67.6667ZM53.0833 67.6667C46.0075 67.6667 40.25 61.9092 40.25 54.8333C40.25 47.7575 46.0075 42 53.0833 42C53.4473 42 53.8067 42.0245 54.1637 42.0548C54.5032 42.0875 54.8543 42.1318 55.2242 42.1937L55.741 42.28C61.5452 43.5085 65.9167 48.6687 65.9167 54.8333C65.9167 61.9092 60.1592 67.6667 53.0833 67.6667Z" fill="#EB6441"/>
<path d="M59.1257 48.3338L52.5971 57.7138L47.9899 53.9315C47.4929 53.522 46.7567 53.5955 46.3484 54.0937C45.9389 54.5918 46.0112 55.3268 46.5106 55.7352L52.0942 60.319C52.3042 60.4905 52.5656 60.5838 52.8339 60.5838C52.8864 60.5838 52.9401 60.5803 52.9937 60.5733C53.3157 60.5278 53.6051 60.3517 53.7917 60.0845L61.0414 49.6673C61.4089 49.1388 61.2794 48.4108 60.7497 48.0433C60.2201 47.6735 59.4944 47.8053 59.1257 48.3338Z" fill="#EB6441"/>
</svg>
