<svg width="70" height="70" viewBox="0 0 70 70" fill="none" xmlns="http://www.w3.org/2000/svg">
<g clip-path="url(#clip0)">
<path d="M38.041 34.4253C37.8503 34.1433 37.5323 33.9746 37.192 33.9746H34.3226L35.952 29.9011C36.1625 29.3753 35.9067 28.7785 35.3808 28.5682C34.8549 28.3574 34.2582 28.6136 34.048 29.1394L31.8561 34.6193C31.7297 34.9352 31.7682 35.2933 31.959 35.5749C32.1497 35.8567 32.4679 36.0254 32.8081 36.0254H35.6774L34.048 40.099C33.8375 40.6248 34.0934 41.2216 34.6192 41.4318C34.7441 41.4819 34.8729 41.5055 34.9997 41.5055C35.4067 41.5055 35.7917 41.2616 35.952 40.8608L38.1439 35.3809C38.2703 35.065 38.2318 34.7069 38.041 34.4253Z" fill="#EB6441"/>
<path d="M64.346 5.87412C60.7042 2.17492 55.8499 0.089951 50.6771 0.00327112C45.5154 -0.0847759 40.5879 1.91911 36.8031 5.64102C32.9161 9.46341 30.6869 14.752 30.6869 20.1503V24.1113H27.3285C25.5544 24.1113 24.1112 25.5547 24.1112 27.3286V42.6719C24.1112 44.446 25.5546 45.8892 27.3285 45.8892H30.6869V50.3436C30.6869 53.437 29.3701 56.41 27.0741 58.5C24.7486 60.6168 21.7353 61.6195 18.5908 61.3235C13.0034 60.7976 8.62671 55.8195 8.62671 49.9905C8.62671 49.4242 8.16761 48.9651 7.60132 48.9651C7.03503 48.9651 6.57593 49.4242 6.57593 49.9905C6.57593 53.2974 7.76798 56.4875 9.93238 58.9731C12.1316 61.4985 15.1384 63.0584 18.3986 63.3652C18.8268 63.4055 19.2525 63.4254 19.6755 63.4254C22.935 63.4254 26.0137 62.2385 28.4547 60.0165C31.1766 57.5386 32.7378 54.013 32.7378 50.3436V45.8892H37.2628V49.8502C37.2628 54.7025 35.2568 59.458 31.7593 62.8973C28.3696 66.2306 23.9674 68.024 19.3577 67.9467C14.7257 67.8692 10.3781 66.0015 7.11597 62.6877C3.84989 59.3701 2.05135 54.9862 2.05135 50.3435V36.0963C2.05135 36.0573 2.08293 36.0257 2.1219 36.0257H6.50565C6.54462 36.0257 6.5762 36.0573 6.5762 36.0963V45.5489C6.5762 46.1152 7.0353 46.5743 7.60159 46.5743C8.16788 46.5743 8.62699 46.1152 8.62699 45.5489V36.0963C8.62699 34.9265 7.67542 33.9749 6.50565 33.9749H5.33903V28.4246C5.33903 27.8583 4.87993 27.3992 4.31364 27.3992C3.74735 27.3992 3.28825 27.8583 3.28825 28.4246V33.9749H2.12176C0.951991 33.9749 0.000427246 34.9265 0.000427246 36.0963V50.3435C0.000427246 55.528 2.00842 60.423 5.65444 64.1264C9.29623 67.8256 14.1506 69.9107 19.3233 69.9973C19.4305 69.999 19.537 70 19.6439 70C24.6889 70 29.491 68.0043 33.1972 64.3595C37.0842 60.5371 39.3134 55.2486 39.3134 49.8502V45.8892H42.6718C44.4459 45.8892 45.8891 44.4458 45.8891 42.6719V27.3288C45.8891 25.5547 44.4457 24.1115 42.6718 24.1115H39.3134V19.657C39.3134 16.5636 40.6302 13.5907 42.9262 11.5007C45.2517 9.38384 48.2648 8.38141 51.4095 8.67714C56.9969 9.20309 61.3736 14.1812 61.3736 20.0102C61.3736 20.5765 61.8327 21.0356 62.399 21.0356C62.9653 21.0356 63.4244 20.5765 63.4244 20.0102C63.4244 16.7032 62.2323 13.5132 60.0679 11.0276C57.8687 8.50213 54.8619 6.94231 51.6017 6.63551C47.8741 6.28469 44.3034 7.47387 41.5456 9.98417C38.8237 12.4621 37.2625 15.9876 37.2625 19.657V24.1115H32.7374V20.1505C32.7374 15.2982 34.7433 10.5427 38.2409 7.10336C41.6305 3.77002 46.0333 1.97777 50.6425 2.05392C55.2744 2.13144 59.6221 3.99916 62.8842 7.31295C66.1503 10.6306 67.9488 15.0145 67.9488 19.6572V33.9044C67.9488 33.9434 67.9172 33.9749 67.8783 33.9749H63.4945C63.4555 33.9749 63.424 33.9434 63.424 33.9044V24.4518C63.424 23.8855 62.9649 23.4264 62.3986 23.4264C61.8323 23.4264 61.3732 23.8855 61.3732 24.4518V33.9044C61.3732 35.0742 62.3247 36.0257 63.4945 36.0257H64.661V41.5761C64.661 42.1424 65.1201 42.6015 65.6864 42.6015C66.2527 42.6015 66.7118 42.1424 66.7118 41.5761V36.0257H67.8783C69.048 36.0257 69.9996 35.0742 69.9996 33.9044V19.657C70 14.4725 67.992 9.57784 64.346 5.87412ZM42.6718 26.1623C43.3149 26.1623 43.8383 26.6856 43.8383 27.3288V42.672C43.8383 43.3153 43.3149 43.8385 42.6718 43.8385H27.3285C26.6852 43.8385 26.162 43.3152 26.162 42.672V27.3288C26.162 26.6855 26.6854 26.1623 27.3285 26.1623H42.6718Z" fill="#EB6441"/>
<path d="M3.03893 24.6782L1.94299 22.4863C1.68978 21.9798 1.07386 21.7743 0.56732 22.0278C0.0607756 22.281 -0.144576 22.8969 0.108764 23.4034L1.2047 25.5953C1.38435 25.9546 1.74638 26.1623 2.12264 26.1623C2.27672 26.1623 2.43312 26.1274 2.58037 26.0539C3.08691 25.8007 3.29227 25.1847 3.03893 24.6782Z" fill="#EB6441"/>
<path d="M8.05968 22.0277C7.55314 21.7743 6.93722 21.9799 6.68401 22.4863L5.58807 24.6782C5.33487 25.1847 5.54009 25.8006 6.04663 26.0538C6.19388 26.1275 6.35028 26.1623 6.50436 26.1623C6.88048 26.1623 7.24265 25.9545 7.4223 25.5953L8.51824 23.4034C8.77158 22.8969 8.56622 22.2809 8.05968 22.0277Z" fill="#EB6441"/>
<path d="M69.8916 46.5971L68.7956 44.4053C68.5424 43.8987 67.9267 43.6932 67.42 43.9467C66.9134 44.1999 66.7081 44.8158 66.9614 45.3224L68.0574 47.5143C68.237 47.8736 68.599 48.0812 68.9753 48.0812C69.1294 48.0812 69.2858 48.0464 69.433 47.9728C69.9396 47.7196 70.1449 47.1037 69.8916 46.5971Z" fill="#EB6441"/>
<path d="M63.9533 43.9464C63.4467 43.693 62.831 43.8986 62.5776 44.405L61.4817 46.5969C61.2283 47.1034 61.4337 47.7193 61.9402 47.9725C62.0875 48.0462 62.2439 48.081 62.398 48.081C62.7741 48.081 63.1363 47.8732 63.3159 47.514L64.4118 45.3221C64.6652 44.8156 64.4598 44.1997 63.9533 43.9464Z" fill="#EB6441"/>
</g>
<defs>
<clipPath id="clip0">
<rect width="70" height="70" fill="white"/>
</clipPath>
</defs>
</svg>
