<svg width="70" height="70" viewBox="0 0 70 70" fill="none" xmlns="http://www.w3.org/2000/svg">
<g clip-path="url(#clip0)">
<path d="M34.9284 13.6602C31.1998 13.6602 28.1677 16.6923 28.1677 20.4209C28.1677 24.1496 31.1998 27.1817 34.9284 27.1817C38.6571 27.1817 41.6892 24.1496 41.6892 20.4209C41.6892 16.6923 38.6571 13.6602 34.9284 13.6602ZM34.9284 24.9281C32.4427 24.9281 30.4213 22.9067 30.4213 20.4209C30.4213 17.9352 32.4427 15.9137 34.9284 15.9137C37.4142 15.9137 39.4356 17.9352 39.4356 20.4209C39.4356 22.9067 37.4142 24.9281 34.9284 24.9281Z" fill="#EB6441"/>
<path d="M60.836 9.83912L59.844 4.87802L42.7699 0L39.1336 3.63623C38.8431 3.56195 38.5466 3.51904 38.2478 3.51904C36.8767 3.51904 35.6663 4.29976 35.0693 5.48048C34.4707 4.29976 33.2609 3.51904 31.8909 3.51904C31.5932 3.51904 31.2967 3.56195 31.0051 3.63623L27.3688 0L10.2958 4.87802L9.30377 9.83912C7.80064 10.3183 6.75858 11.7241 6.75858 13.3075C6.75858 13.6443 6.80589 13.9804 6.89832 14.3094L8.5324 20.0298C8.93074 21.4229 10.1274 22.4336 11.5464 22.6328L11.5777 22.7368C14.2109 31.2901 18.2758 39.2112 23.638 46.3373H15.7729V48.5909H13.5194V46.3373H11.2658V53.0981H13.5194V50.8445H15.7729V53.0981H18.0265V70.0001H24.7873V67.7465H50.7036C54.4323 67.7465 57.4644 64.7143 57.4644 60.9857V56.4785H59.718V47.4641C59.718 43.7355 56.6859 40.7033 52.9572 40.7033H50.3609C53.8431 35.1051 56.6023 29.0975 58.561 22.7351L58.5912 22.6339C60.003 22.4391 61.2063 21.4273 61.6052 20.0298L63.2393 14.3067C63.3317 13.9804 63.379 13.6443 63.379 13.3075C63.3801 11.7241 62.338 10.3183 60.836 9.83912ZM43.4257 2.53089L57.9029 6.66725L58.3965 9.13267L41.6183 4.33828L43.4257 2.53089ZM51.6412 21.051L56.3206 22.3274C55.9558 23.4993 55.5602 24.6586 55.141 25.8057L49.7425 23.4927L51.6412 21.051ZM18.2653 21.1137L20.1855 23.583L14.9988 25.8057C14.5785 24.6586 14.184 23.4993 13.8181 22.3274L18.2653 21.1137ZM21.6413 25.409C22.2779 26.181 22.9711 26.8885 23.7133 27.5289L24.0671 28.5182L17.3135 31.4128C16.7815 30.2601 16.2824 29.0904 15.8087 27.9086L21.6413 25.409ZM31.0612 41.401L29.8309 37.9562L33.8017 36.6336V40.7606C32.8471 40.8552 31.9321 41.0819 31.0612 41.401ZM36.0553 36.5384L40.3066 37.9562L39.0434 41.4923C38.1004 41.1204 37.1007 40.8645 36.0542 40.7595V36.5384H36.0553ZM41.0648 35.833L36.0553 34.1632V31.6257C38.65 31.459 41.1215 30.7234 43.3322 29.4871L41.0648 35.833ZM33.8017 34.2567L29.0739 35.833L26.8775 29.6846C28.998 30.8053 31.3451 31.4667 33.8028 31.6257V34.2567H33.8017ZM24.8269 30.643L26.1122 34.2413L20.0942 36.8201C19.4664 35.7092 18.8683 34.5824 18.2994 33.4413L24.8269 30.643ZM26.872 36.3673L28.3064 40.3842L23.5863 42.4067C22.7681 41.2183 21.9813 40.0123 21.2358 38.7821L26.872 36.3673ZM28.4302 42.782C27.4046 43.5088 26.5089 44.4023 25.7755 45.4245C25.4872 45.0471 25.1917 44.673 24.9111 44.2911L28.4302 42.782ZM34.9285 42.9569C39.8989 42.9569 43.9429 47.0009 43.9429 51.9713C43.9429 56.9418 39.8989 60.9857 34.9285 60.9857C29.958 60.9857 25.9141 56.9418 25.9141 51.9713C25.9141 47.0009 29.958 42.9569 34.9285 42.9569ZM43.9214 45.2105C43.1302 44.1613 42.1668 43.2535 41.0648 42.5333L41.0731 42.5096L45.2276 44.29C44.9998 44.5998 44.7588 44.903 44.5255 45.2105H43.9214ZM46.5524 42.4067L41.8323 40.3842L43.2667 36.3673L48.9029 38.7832C48.1568 40.0123 47.3706 41.2194 46.5524 42.4067ZM44.0265 34.2413L45.3106 30.643L51.8392 33.4413C51.2703 34.5824 50.6723 35.7092 50.0445 36.8201L44.0265 34.2413ZM46.0705 28.5182L46.5601 27.1477C47.1747 26.5832 47.7557 25.9807 48.2921 25.3227L54.3283 27.9097C53.8552 29.0915 53.3561 30.2612 52.8241 31.4139L46.0705 28.5182ZM46.7698 23.6446C43.9066 27.3248 39.5914 29.4354 34.9285 29.4354C30.2656 29.4354 25.9499 27.3248 23.0872 23.6446L20.5811 20.421L23.0883 17.1974C25.9499 13.5172 30.2656 11.4066 34.9285 11.4066C39.5914 11.4066 43.9066 13.5172 46.7698 17.1974L49.2759 20.421L46.7698 23.6446ZM26.713 2.53089L28.5204 4.33828L11.7422 9.13267L12.2358 6.66725L26.713 2.53089ZM10.7002 19.4103L9.06609 13.6916C9.03143 13.5656 9.01217 13.4357 9.01217 13.3075C9.01217 12.6891 9.42812 12.1378 10.0218 11.9678L11.225 11.6239L11.2432 11.6272L11.2454 11.6184L31.5255 5.82325C32.2386 5.61913 32.9951 6.06424 33.1717 6.77178L33.7835 9.2174C28.93 9.53385 24.2963 11.971 21.309 15.8148L19.2029 18.5234L12.4239 20.3726C12.3023 20.4039 12.1796 20.421 12.0399 20.421C11.4215 20.421 10.8691 20.005 10.7002 19.4103ZM18.0265 48.5909H24.1799C23.9521 49.3133 23.7948 50.0671 23.7166 50.8445H18.0265V48.5909ZM20.2801 67.7465V53.0981H22.5337V67.7465H20.2801ZM24.7873 65.4929V56.8504C26.6107 60.6236 30.4653 63.2393 34.9285 63.2393C41.1418 63.2393 46.1965 58.1846 46.1965 51.9713C46.1965 50.4962 45.9032 49.091 45.386 47.7986C45.473 47.688 45.5555 47.5747 45.6408 47.4641H48.4501V51.9713C48.4501 59.4275 42.3847 65.4929 34.9285 65.4929H24.7873ZM55.2108 60.9857C55.2108 63.4715 53.1894 65.4929 50.7036 65.4929H43.0119C46.3555 63.4858 48.9007 60.288 50.0401 56.4785H55.2108V60.9857ZM52.9572 42.9569C55.443 42.9569 57.4644 44.9783 57.4644 47.4641V54.2249H50.5232C50.6294 53.4865 50.7036 52.7388 50.7036 51.9713V45.2105H47.3546C47.8911 44.47 48.4027 43.714 48.9122 42.9569H52.9572ZM61.0726 13.6894L59.4385 19.4103C59.2355 20.1222 58.4482 20.5695 57.717 20.3726L50.5788 18.4254L48.548 15.8148C45.6229 12.0509 41.0998 9.62022 36.3518 9.2328L36.9681 6.77178C37.1425 6.06534 37.9034 5.62023 38.612 5.82325L58.8933 11.6184L58.8955 11.6272L58.9136 11.6239L60.1169 11.9678C60.7106 12.1378 61.1265 12.6891 61.1265 13.3075C61.1265 13.4357 61.1073 13.5656 61.0726 13.6894Z" fill="#EB6441"/>
<path d="M34.9285 47.4645C37.4143 47.4645 39.4357 49.4859 39.4357 51.9717C39.4357 52.8537 39.1765 53.7114 38.6852 54.4531L40.5647 55.6971C41.3003 54.5857 41.6893 53.2977 41.6893 51.9717C41.6893 48.2431 38.6571 45.2109 34.9285 45.2109C33.602 45.2109 32.3145 45.5994 31.2031 46.3355L32.4471 48.215C33.1888 47.7237 34.046 47.4645 34.9285 47.4645Z" fill="#EB6441"/>
<path d="M34.9285 58.7322C36.2544 58.7322 37.5424 58.3432 38.6538 57.6076L37.4098 55.7282C36.6682 56.2195 35.811 56.4786 34.9285 56.4786C32.4427 56.4786 30.4213 54.4572 30.4213 51.9715C30.4213 51.0889 30.6804 50.2317 31.1717 49.4901L29.2923 48.2461C28.5567 49.3575 28.1677 50.6449 28.1677 51.9715C28.1677 55.7001 31.1998 58.7322 34.9285 58.7322Z" fill="#EB6441"/>
</g>
<defs>
<clipPath id="clip0">
<rect width="70" height="70" fill="white"/>
</clipPath>
</defs>
</svg>
