<svg width="70" height="70" viewBox="0 0 70 70" fill="none" xmlns="http://www.w3.org/2000/svg">
<g clip-path="url(#clip0)">
<mask id="path-1-outside-1" maskUnits="userSpaceOnUse" x="-0.818726" y="-1" width="71" height="72" fill="black">
<rect fill="white" x="-0.818726" y="-1" width="71" height="72"/>
<path d="M67.0801 54.0578C65.4086 52.3865 63.1823 51.4371 60.8795 51.336L58.2303 48.6869C59.7438 46.2088 60.8518 43.5361 61.5326 40.7208H68.384V27.481H61.5326C60.8519 24.6659 59.7439 21.9933 58.2303 19.5152L63.0769 14.6686L53.7151 5.30685L48.8685 10.1532C46.3905 8.64004 43.7178 7.53222 40.9025 6.85136V0H27.6629V6.85136C24.8476 7.53208 22.1749 8.64018 19.697 10.1535L14.8503 5.30713L5.48854 14.6689L10.3349 19.5154C8.82146 21.9935 7.71349 24.6662 7.03277 27.4813H0.181274V40.7211H7.03277C7.71349 43.5365 8.82159 46.2093 10.3349 48.6871L5.48854 53.5337L14.8503 62.8954L19.697 58.049C22.1749 59.5624 24.8476 60.6703 27.6629 61.3512V68.2027H40.9025V61.3512C43.7178 60.6705 46.3905 59.5624 48.8684 58.049L51.1532 60.3339C51.0719 62.8809 52.0314 65.416 53.8771 67.2615C55.6662 69.0506 58.0468 70 60.4746 70C61.6615 70 62.8597 69.773 64.0054 69.3062L65.4347 68.7237L59.3446 62.6338L60.0075 60.1887L62.4523 59.5257L68.5426 65.6159L69.125 64.1866C70.5464 60.6971 69.7438 56.7217 67.0801 54.0578ZM48.4543 55.8866C45.7601 57.6429 42.8036 58.8685 39.6662 59.5293L38.8526 59.7006V66.1527H29.7123V59.7006L28.8987 59.5293C25.7617 58.8685 22.8049 57.6429 20.1106 55.8866L19.4141 55.4327L14.8499 59.9967L8.38683 53.5334L12.9509 48.9692L12.4969 48.2727C10.7406 45.5787 9.51503 42.622 8.85413 39.4846L8.68282 38.671H2.23109V29.5306H8.68296L8.85427 28.717C9.51503 25.5801 10.7406 22.6234 12.497 19.929L12.951 19.2326L8.38696 14.6684L14.8502 8.20514L19.4145 12.7695L20.111 12.3156C22.8051 10.5592 25.7618 9.33362 28.8991 8.67286L29.7127 8.50155V2.04982H38.853V8.50182L39.6666 8.67313C42.8037 9.33389 45.7605 10.5596 48.4547 12.3159L49.1511 12.7698L53.7153 8.20569L60.1786 14.6689L55.6144 19.2331L56.0684 19.9296C57.8248 22.624 59.0504 25.5807 59.7111 28.7175L59.8824 29.5311H66.3344V38.6716H59.8824L59.7111 39.4852C59.0505 42.6222 57.8248 45.5791 56.0684 48.2733L55.7844 48.7086L47.2465 40.1703L46.3453 39.269C47.0475 37.6369 47.4029 35.9021 47.4029 34.1016C47.4029 26.8673 41.5173 20.9816 34.283 20.9816C27.0487 20.9816 21.1631 26.8672 21.1631 34.1016C21.1631 41.3359 27.0487 47.2215 34.283 47.2215C36.0769 47.2215 37.806 46.8685 39.4333 46.1711L48.7357 55.474L48.8748 55.6131L48.4543 55.8866ZM41.8866 28.1644C39.2231 25.5005 35.2473 24.6977 31.7583 26.1195L30.3289 26.7019L36.4191 32.792L35.7562 35.2369L33.3112 35.8999L27.2211 29.8098L26.6387 31.239C25.2172 34.7281 26.0199 38.7037 28.6835 41.3675C30.9064 43.5904 34.1104 44.5362 37.1705 43.908L37.8471 44.5846C36.7066 44.9737 35.5131 45.1714 34.2828 45.1714C28.1787 45.1714 23.2126 40.2053 23.2126 34.1012C23.2126 27.997 28.1787 23.0309 34.2828 23.0309C40.3868 23.0309 45.353 27.997 45.353 34.1012C45.353 35.3382 45.1534 36.5377 44.76 37.6838L44.2942 37.218C45.1594 34.0174 44.2484 30.526 41.8866 28.1644ZM67.6706 61.845L63.0621 57.2365L58.3368 58.5179L57.0555 63.2431L61.664 67.8517C59.3773 68.2303 57.0144 67.5 55.3263 65.8119C53.765 64.2506 53.0171 62.0568 53.2346 59.904C53.2433 59.8204 53.2528 59.737 53.2643 59.6537C53.2699 59.6123 53.2752 59.5707 53.2817 59.5296C53.3004 59.4094 53.3221 59.2902 53.3468 59.1714C53.3529 59.1418 53.3591 59.1123 53.3656 59.0828C53.3932 58.9574 53.4236 58.8326 53.4578 58.7091C53.4634 58.6888 53.4695 58.6685 53.4753 58.6482C53.5092 58.5295 53.5461 58.412 53.5859 58.2954C53.7251 58.0032 54.5079 56.4231 55.6543 55.2768L54.2051 53.8275C53.4333 54.5992 52.8126 55.5029 52.3812 56.221L45.6425 49.482L39.8566 43.6957H39.8565L37.7935 41.6326L37.2189 41.79C34.6946 42.4826 31.9793 41.765 30.1327 39.9184C28.4448 38.2304 27.7143 35.8673 28.093 33.5806L32.7015 38.1891L37.4267 36.9076L38.7081 32.1825L34.0994 27.5739C36.3863 27.1959 38.7493 27.9258 40.4373 29.6137C42.4016 31.5781 43.0799 34.5438 42.1654 37.1693L41.9867 37.6823C41.6918 38.1976 41.2242 38.9218 40.6459 39.5002L42.0953 40.9493C42.6352 40.4094 43.0865 39.7932 43.4315 39.2541L57.9697 53.7931L58.5442 53.6358C58.7012 53.5927 58.859 53.5551 59.017 53.5229C59.0449 53.5171 59.0731 53.5125 59.1011 53.5071C59.1518 53.4974 59.2024 53.4874 59.253 53.4788C59.2959 53.4716 59.339 53.4656 59.3819 53.459C59.4183 53.4535 59.4546 53.4474 59.491 53.4425C59.5326 53.4369 59.5743 53.4325 59.6157 53.4276C59.6544 53.4229 59.6932 53.4177 59.7319 53.4139C59.761 53.4109 59.7903 53.409 59.8195 53.4064C59.8716 53.4017 59.9237 53.3967 59.9755 53.3932C59.9831 53.3927 59.9907 53.3926 59.9984 53.392C62.0702 53.2575 64.135 54.0119 65.6303 55.5075C67.3188 57.1952 68.0493 59.5583 67.6706 61.845Z"/>
</mask>
<path d="M67.0801 54.0578C65.4086 52.3865 63.1823 51.4371 60.8795 51.336L58.2303 48.6869C59.7438 46.2088 60.8518 43.5361 61.5326 40.7208H68.384V27.481H61.5326C60.8519 24.6659 59.7439 21.9933 58.2303 19.5152L63.0769 14.6686L53.7151 5.30685L48.8685 10.1532C46.3905 8.64004 43.7178 7.53222 40.9025 6.85136V0H27.6629V6.85136C24.8476 7.53208 22.1749 8.64018 19.697 10.1535L14.8503 5.30713L5.48854 14.6689L10.3349 19.5154C8.82146 21.9935 7.71349 24.6662 7.03277 27.4813H0.181274V40.7211H7.03277C7.71349 43.5365 8.82159 46.2093 10.3349 48.6871L5.48854 53.5337L14.8503 62.8954L19.697 58.049C22.1749 59.5624 24.8476 60.6703 27.6629 61.3512V68.2027H40.9025V61.3512C43.7178 60.6705 46.3905 59.5624 48.8684 58.049L51.1532 60.3339C51.0719 62.8809 52.0314 65.416 53.8771 67.2615C55.6662 69.0506 58.0468 70 60.4746 70C61.6615 70 62.8597 69.773 64.0054 69.3062L65.4347 68.7237L59.3446 62.6338L60.0075 60.1887L62.4523 59.5257L68.5426 65.6159L69.125 64.1866C70.5464 60.6971 69.7438 56.7217 67.0801 54.0578ZM48.4543 55.8866C45.7601 57.6429 42.8036 58.8685 39.6662 59.5293L38.8526 59.7006V66.1527H29.7123V59.7006L28.8987 59.5293C25.7617 58.8685 22.8049 57.6429 20.1106 55.8866L19.4141 55.4327L14.8499 59.9967L8.38683 53.5334L12.9509 48.9692L12.4969 48.2727C10.7406 45.5787 9.51503 42.622 8.85413 39.4846L8.68282 38.671H2.23109V29.5306H8.68296L8.85427 28.717C9.51503 25.5801 10.7406 22.6234 12.497 19.929L12.951 19.2326L8.38696 14.6684L14.8502 8.20514L19.4145 12.7695L20.111 12.3156C22.8051 10.5592 25.7618 9.33362 28.8991 8.67286L29.7127 8.50155V2.04982H38.853V8.50182L39.6666 8.67313C42.8037 9.33389 45.7605 10.5596 48.4547 12.3159L49.1511 12.7698L53.7153 8.20569L60.1786 14.6689L55.6144 19.2331L56.0684 19.9296C57.8248 22.624 59.0504 25.5807 59.7111 28.7175L59.8824 29.5311H66.3344V38.6716H59.8824L59.7111 39.4852C59.0505 42.6222 57.8248 45.5791 56.0684 48.2733L55.7844 48.7086L47.2465 40.1703L46.3453 39.269C47.0475 37.6369 47.4029 35.9021 47.4029 34.1016C47.4029 26.8673 41.5173 20.9816 34.283 20.9816C27.0487 20.9816 21.1631 26.8672 21.1631 34.1016C21.1631 41.3359 27.0487 47.2215 34.283 47.2215C36.0769 47.2215 37.806 46.8685 39.4333 46.1711L48.7357 55.474L48.8748 55.6131L48.4543 55.8866ZM41.8866 28.1644C39.2231 25.5005 35.2473 24.6977 31.7583 26.1195L30.3289 26.7019L36.4191 32.792L35.7562 35.2369L33.3112 35.8999L27.2211 29.8098L26.6387 31.239C25.2172 34.7281 26.0199 38.7037 28.6835 41.3675C30.9064 43.5904 34.1104 44.5362 37.1705 43.908L37.8471 44.5846C36.7066 44.9737 35.5131 45.1714 34.2828 45.1714C28.1787 45.1714 23.2126 40.2053 23.2126 34.1012C23.2126 27.997 28.1787 23.0309 34.2828 23.0309C40.3868 23.0309 45.353 27.997 45.353 34.1012C45.353 35.3382 45.1534 36.5377 44.76 37.6838L44.2942 37.218C45.1594 34.0174 44.2484 30.526 41.8866 28.1644ZM67.6706 61.845L63.0621 57.2365L58.3368 58.5179L57.0555 63.2431L61.664 67.8517C59.3773 68.2303 57.0144 67.5 55.3263 65.8119C53.765 64.2506 53.0171 62.0568 53.2346 59.904C53.2433 59.8204 53.2528 59.737 53.2643 59.6537C53.2699 59.6123 53.2752 59.5707 53.2817 59.5296C53.3004 59.4094 53.3221 59.2902 53.3468 59.1714C53.3529 59.1418 53.3591 59.1123 53.3656 59.0828C53.3932 58.9574 53.4236 58.8326 53.4578 58.7091C53.4634 58.6888 53.4695 58.6685 53.4753 58.6482C53.5092 58.5295 53.5461 58.412 53.5859 58.2954C53.7251 58.0032 54.5079 56.4231 55.6543 55.2768L54.2051 53.8275C53.4333 54.5992 52.8126 55.5029 52.3812 56.221L45.6425 49.482L39.8566 43.6957H39.8565L37.7935 41.6326L37.2189 41.79C34.6946 42.4826 31.9793 41.765 30.1327 39.9184C28.4448 38.2304 27.7143 35.8673 28.093 33.5806L32.7015 38.1891L37.4267 36.9076L38.7081 32.1825L34.0994 27.5739C36.3863 27.1959 38.7493 27.9258 40.4373 29.6137C42.4016 31.5781 43.0799 34.5438 42.1654 37.1693L41.9867 37.6823C41.6918 38.1976 41.2242 38.9218 40.6459 39.5002L42.0953 40.9493C42.6352 40.4094 43.0865 39.7932 43.4315 39.2541L57.9697 53.7931L58.5442 53.6358C58.7012 53.5927 58.859 53.5551 59.017 53.5229C59.0449 53.5171 59.0731 53.5125 59.1011 53.5071C59.1518 53.4974 59.2024 53.4874 59.253 53.4788C59.2959 53.4716 59.339 53.4656 59.3819 53.459C59.4183 53.4535 59.4546 53.4474 59.491 53.4425C59.5326 53.4369 59.5743 53.4325 59.6157 53.4276C59.6544 53.4229 59.6932 53.4177 59.7319 53.4139C59.761 53.4109 59.7903 53.409 59.8195 53.4064C59.8716 53.4017 59.9237 53.3967 59.9755 53.3932C59.9831 53.3927 59.9907 53.3926 59.9984 53.392C62.0702 53.2575 64.135 54.0119 65.6303 55.5075C67.3188 57.1952 68.0493 59.5583 67.6706 61.845Z" fill="#EB6441"/>
<path d="M67.0801 54.0578C65.4086 52.3865 63.1823 51.4371 60.8795 51.336L58.2303 48.6869C59.7438 46.2088 60.8518 43.5361 61.5326 40.7208H68.384V27.481H61.5326C60.8519 24.6659 59.7439 21.9933 58.2303 19.5152L63.0769 14.6686L53.7151 5.30685L48.8685 10.1532C46.3905 8.64004 43.7178 7.53222 40.9025 6.85136V0H27.6629V6.85136C24.8476 7.53208 22.1749 8.64018 19.697 10.1535L14.8503 5.30713L5.48854 14.6689L10.3349 19.5154C8.82146 21.9935 7.71349 24.6662 7.03277 27.4813H0.181274V40.7211H7.03277C7.71349 43.5365 8.82159 46.2093 10.3349 48.6871L5.48854 53.5337L14.8503 62.8954L19.697 58.049C22.1749 59.5624 24.8476 60.6703 27.6629 61.3512V68.2027H40.9025V61.3512C43.7178 60.6705 46.3905 59.5624 48.8684 58.049L51.1532 60.3339C51.0719 62.8809 52.0314 65.416 53.8771 67.2615C55.6662 69.0506 58.0468 70 60.4746 70C61.6615 70 62.8597 69.773 64.0054 69.3062L65.4347 68.7237L59.3446 62.6338L60.0075 60.1887L62.4523 59.5257L68.5426 65.6159L69.125 64.1866C70.5464 60.6971 69.7438 56.7217 67.0801 54.0578ZM48.4543 55.8866C45.7601 57.6429 42.8036 58.8685 39.6662 59.5293L38.8526 59.7006V66.1527H29.7123V59.7006L28.8987 59.5293C25.7617 58.8685 22.8049 57.6429 20.1106 55.8866L19.4141 55.4327L14.8499 59.9967L8.38683 53.5334L12.9509 48.9692L12.4969 48.2727C10.7406 45.5787 9.51503 42.622 8.85413 39.4846L8.68282 38.671H2.23109V29.5306H8.68296L8.85427 28.717C9.51503 25.5801 10.7406 22.6234 12.497 19.929L12.951 19.2326L8.38696 14.6684L14.8502 8.20514L19.4145 12.7695L20.111 12.3156C22.8051 10.5592 25.7618 9.33362 28.8991 8.67286L29.7127 8.50155V2.04982H38.853V8.50182L39.6666 8.67313C42.8037 9.33389 45.7605 10.5596 48.4547 12.3159L49.1511 12.7698L53.7153 8.20569L60.1786 14.6689L55.6144 19.2331L56.0684 19.9296C57.8248 22.624 59.0504 25.5807 59.7111 28.7175L59.8824 29.5311H66.3344V38.6716H59.8824L59.7111 39.4852C59.0505 42.6222 57.8248 45.5791 56.0684 48.2733L55.7844 48.7086L47.2465 40.1703L46.3453 39.269C47.0475 37.6369 47.4029 35.9021 47.4029 34.1016C47.4029 26.8673 41.5173 20.9816 34.283 20.9816C27.0487 20.9816 21.1631 26.8672 21.1631 34.1016C21.1631 41.3359 27.0487 47.2215 34.283 47.2215C36.0769 47.2215 37.806 46.8685 39.4333 46.1711L48.7357 55.474L48.8748 55.6131L48.4543 55.8866ZM41.8866 28.1644C39.2231 25.5005 35.2473 24.6977 31.7583 26.1195L30.3289 26.7019L36.4191 32.792L35.7562 35.2369L33.3112 35.8999L27.2211 29.8098L26.6387 31.239C25.2172 34.7281 26.0199 38.7037 28.6835 41.3675C30.9064 43.5904 34.1104 44.5362 37.1705 43.908L37.8471 44.5846C36.7066 44.9737 35.5131 45.1714 34.2828 45.1714C28.1787 45.1714 23.2126 40.2053 23.2126 34.1012C23.2126 27.997 28.1787 23.0309 34.2828 23.0309C40.3868 23.0309 45.353 27.997 45.353 34.1012C45.353 35.3382 45.1534 36.5377 44.76 37.6838L44.2942 37.218C45.1594 34.0174 44.2484 30.526 41.8866 28.1644ZM67.6706 61.845L63.0621 57.2365L58.3368 58.5179L57.0555 63.2431L61.664 67.8517C59.3773 68.2303 57.0144 67.5 55.3263 65.8119C53.765 64.2506 53.0171 62.0568 53.2346 59.904C53.2433 59.8204 53.2528 59.737 53.2643 59.6537C53.2699 59.6123 53.2752 59.5707 53.2817 59.5296C53.3004 59.4094 53.3221 59.2902 53.3468 59.1714C53.3529 59.1418 53.3591 59.1123 53.3656 59.0828C53.3932 58.9574 53.4236 58.8326 53.4578 58.7091C53.4634 58.6888 53.4695 58.6685 53.4753 58.6482C53.5092 58.5295 53.5461 58.412 53.5859 58.2954C53.7251 58.0032 54.5079 56.4231 55.6543 55.2768L54.2051 53.8275C53.4333 54.5992 52.8126 55.5029 52.3812 56.221L45.6425 49.482L39.8566 43.6957H39.8565L37.7935 41.6326L37.2189 41.79C34.6946 42.4826 31.9793 41.765 30.1327 39.9184C28.4448 38.2304 27.7143 35.8673 28.093 33.5806L32.7015 38.1891L37.4267 36.9076L38.7081 32.1825L34.0994 27.5739C36.3863 27.1959 38.7493 27.9258 40.4373 29.6137C42.4016 31.5781 43.0799 34.5438 42.1654 37.1693L41.9867 37.6823C41.6918 38.1976 41.2242 38.9218 40.6459 39.5002L42.0953 40.9493C42.6352 40.4094 43.0865 39.7932 43.4315 39.2541L57.9697 53.7931L58.5442 53.6358C58.7012 53.5927 58.859 53.5551 59.017 53.5229C59.0449 53.5171 59.0731 53.5125 59.1011 53.5071C59.1518 53.4974 59.2024 53.4874 59.253 53.4788C59.2959 53.4716 59.339 53.4656 59.3819 53.459C59.4183 53.4535 59.4546 53.4474 59.491 53.4425C59.5326 53.4369 59.5743 53.4325 59.6157 53.4276C59.6544 53.4229 59.6932 53.4177 59.7319 53.4139C59.761 53.4109 59.7903 53.409 59.8195 53.4064C59.8716 53.4017 59.9237 53.3967 59.9755 53.3932C59.9831 53.3927 59.9907 53.3926 59.9984 53.392C62.0702 53.2575 64.135 54.0119 65.6303 55.5075C67.3188 57.1952 68.0493 59.5583 67.6706 61.845Z" stroke="#EB6441" stroke-width="0.2" mask="url(#path-1-outside-1)"/>
<path d="M41.9725 42.6257L41.9371 42.661L41.9725 42.6964L43.4628 44.1867L43.4982 44.2221L43.5335 44.1867L44.9829 42.7374L45.0182 42.702L44.9829 42.6667L43.4925 41.1764L43.4572 41.141L43.4218 41.1764L41.9725 42.6257Z" fill="#EB6441" stroke="#EB6441" stroke-width="0.1"/>
<path d="M45.2489 45.9033L45.2135 45.9387L45.2489 45.974L50.1352 50.8603L50.1705 50.8957L50.2059 50.8603L51.6551 49.4111L51.6905 49.3757L51.6551 49.3404L46.7689 44.4541L46.7335 44.4187L46.6981 44.4541L45.2489 45.9033Z" fill="#EB6441" stroke="#EB6441" stroke-width="0.1"/>
<path d="M39.3037 52.2186L39.2556 52.232L39.269 52.2802L39.8186 54.2548L39.832 54.303L39.8802 54.2896C40.7414 54.0499 41.5945 53.7513 42.4164 53.4022L42.4624 53.3827L42.4429 53.3366L41.6416 51.4501L41.622 51.404L41.576 51.4236C40.8397 51.7365 40.0752 52.0039 39.3037 52.2186Z" fill="#EB6441" stroke="#EB6441" stroke-width="0.1"/>
<path d="M15.8915 31.0725L15.8999 31.0232L15.8507 31.0148L13.8302 30.6697L13.781 30.6613L13.7725 30.7106C13.5749 31.8676 13.4746 33.0545 13.4746 34.238C13.4746 45.714 22.8109 55.0501 34.2868 55.0501C34.9613 55.0501 35.6421 55.0175 36.31 54.9528L36.3597 54.948L36.3549 54.8983L36.158 52.8582L36.1532 52.8084L36.1034 52.8132C35.5039 52.8711 34.8927 52.9006 34.2869 52.9006C23.9964 52.9006 15.6243 44.5285 15.6243 34.238C15.6243 33.1753 15.7143 32.1105 15.8915 31.0725Z" fill="#EB6441" stroke="#EB6441" stroke-width="0.1"/>
<path d="M21.3763 20.7617L21.4124 20.7271L21.3778 20.691L19.9596 19.2111L19.925 19.175L19.889 19.2096C19.3024 19.7718 18.7431 20.3742 18.2264 21.0004L18.1946 21.039L18.2332 21.0708L19.8142 22.3754L19.8528 22.4072L19.8846 22.3686C20.3481 21.8067 20.85 21.2659 21.3763 20.7617Z" fill="#EB6441" stroke="#EB6441" stroke-width="0.1"/>
<path d="M40.6692 16.6947L40.7162 16.7118L40.7333 16.6648L41.4342 14.7388L41.4513 14.6918L41.4043 14.6747C39.1264 13.8456 36.7317 13.4255 34.2869 13.4255C29.7132 13.4255 25.3731 14.881 21.7361 17.6345L21.6962 17.6647L21.7264 17.7045L22.9635 19.3386L22.9937 19.3785L23.0336 19.3483C26.2941 16.8799 30.1854 15.5751 34.2869 15.5751C36.4805 15.5751 38.6278 15.9519 40.6692 16.6947Z" fill="#EB6441" stroke="#EB6441" stroke-width="0.1"/>
</g>
<defs>
<clipPath id="clip0">
<rect width="70" height="70" fill="white"/>
</clipPath>
</defs>
</svg>
