<svg width="70" height="70" viewBox="0 0 70 70" fill="none" xmlns="http://www.w3.org/2000/svg">
<path d="M49.5475 29.3481L49.8061 27.1047L47.4193 26.8281V23.4568L49.5475 23.7029L49.8061 21.4595L47.4193 21.1829V14.6774H42.8716C42.7293 12.1981 42.123 10.8432 41.5811 9.63064C41.4919 9.42855 41.405 9.23097 41.3214 9.03226H47.4193V2.25806H40.6451C40.6451 1.01274 39.6324 0 38.3871 0H31.6129C30.3676 0 29.3548 1.01274 29.3548 2.25806H22.5806V9.03226H28.6785C28.595 9.23097 28.508 9.42855 28.4177 9.63064C27.8758 10.8432 27.2695 12.1981 27.1272 14.6774H22.5806V18.3174L20.4524 18.0713L20.1938 20.3147L22.5806 20.5913V23.9626L20.4524 23.7165L20.1938 25.9598L22.5806 26.2365V29.6077L20.4524 29.3616L20.1938 31.605L22.5806 31.8816V35.2529L20.4524 35.0068L20.1938 37.2502L22.5806 37.5268V40.8981L20.4524 40.6519L20.1938 42.8953L22.5806 43.1719V46.5432L20.4524 46.2971L20.1938 48.5405L22.5806 48.8171V55.3226H47.4193V51.6826L49.5475 51.9287L49.8061 49.6853L47.4193 49.4087V46.0374L49.5475 46.2835L49.8061 44.0402L47.4193 43.7635V40.3923L49.5475 40.6384L49.8061 38.395L47.4193 38.1184V34.7471L49.5475 34.9932L49.8061 32.7498L47.4193 32.4732V29.1019L49.5475 29.3481ZM40.6451 4.51613H45.1613V6.77419H40.7084C40.67 6.43323 40.6451 6.06516 40.6451 5.64516V4.51613ZM30.4805 10.5519C31.0371 9.30661 31.6129 8.01839 31.6129 5.64516V2.25806H38.3871V5.64516C38.3871 8.01839 38.9629 9.30661 39.5195 10.5519C40.0117 11.6505 40.4758 12.7073 40.6056 14.6774H29.3932C29.523 12.7073 29.9882 11.6505 30.4805 10.5519ZM24.8387 6.77419V4.51613H29.3548V5.64516C29.3548 6.06516 29.33 6.43323 29.2916 6.77419H24.8387ZM45.1613 53.0645H24.8387V49.0768L45.1613 51.4218V53.0645ZM45.1613 49.149L24.8387 46.804V43.4327L45.1613 45.7777V49.149ZM45.1613 43.5039L24.8387 41.1589V37.7876L45.1613 40.1326V43.5039ZM45.1613 37.8587L24.8387 35.5137V32.1424L45.1613 34.4874V37.8587ZM45.1613 32.2135L24.8387 29.8685V26.4973L45.1613 28.8423V32.2135ZM45.1613 26.5673L24.8387 24.2223V20.851L45.1613 23.196V26.5673ZM45.1613 20.9232L24.8387 18.5782V16.9355H45.1613V20.9232Z" fill="#EB6441"/>
<path d="M42.9031 57.5806H40.6451V66.6128C40.6451 67.2349 40.1381 67.7419 39.5161 67.7419H30.4838C29.8617 67.7419 29.3548 67.2349 29.3548 66.6128V57.5806H27.0967V59.8386H20.3225V66.6128H27.0967C27.0967 68.4802 28.6164 69.9999 30.4838 69.9999H39.5161C41.3835 69.9999 42.9031 68.4802 42.9031 66.6128H49.6773V59.8386H42.9031V57.5806ZM27.0967 64.3548H22.5806V62.0967H27.0967V64.3548ZM47.4193 62.0967V64.3548H42.9031V62.0967H47.4193Z" fill="#EB6441"/>
</svg>
