<svg width="70" height="70" viewBox="0 0 70 70" fill="none" xmlns="http://www.w3.org/2000/svg">
<path d="M65.1666 33.9534C63.2619 20.449 52.7969 9.66565 39.4529 7.27774C39.1368 4.46194 36.7692 2.25806 33.871 2.25806C30.9739 2.25806 28.6074 4.46081 28.289 7.27435C27.1227 7.4821 25.9745 7.77339 24.8387 8.1121V0H0V18.0645H2.25806V38.3871C2.25806 55.8182 16.4398 70 33.871 70C48.9921 70 61.6598 59.3273 64.7545 45.1206C67.6776 44.9118 70 42.4923 70 39.5161C70 36.6811 67.8921 34.3508 65.1666 33.9534ZM33.871 4.51613C35.4008 4.51613 36.6823 5.54242 37.1011 6.9379C36.0387 6.82952 34.9616 6.77419 33.871 6.77419C32.7848 6.77419 31.7066 6.84758 30.6352 6.95597C31.0484 5.55145 32.3344 4.51613 33.871 4.51613ZM24.8387 16.4285C26.8823 16.0232 29.1471 15.8065 31.6129 15.8065C41.0471 15.8065 50.8064 22.1415 50.8064 32.7419C50.8064 37.4082 48.9097 41.6387 45.8466 44.704C46.8469 42.8163 47.4194 40.6689 47.4194 38.3871C47.4194 30.9163 41.3418 24.8387 33.871 24.8387C29.1618 24.8387 25.0092 27.2571 22.5806 30.914V18.0645H24.8387V16.4285ZM35 29.3548V27.1544C37.2671 27.3802 39.3377 28.2811 41.011 29.6506L36.1505 34.5111C35.7937 34.3011 35.4098 34.1385 35 34.0313V31.6129H32.7419V34.0313C32.3321 34.1374 31.9471 34.3 31.5915 34.5111L26.731 29.6506C28.4042 28.2811 30.4748 27.3802 32.7419 27.1544V29.3548H35ZM29.995 36.1076C29.785 36.4644 29.6224 36.8482 29.5152 37.2581H22.6382C22.864 34.991 23.7639 32.9203 25.1345 31.2471L29.995 36.1076ZM29.5152 39.5161C29.6213 39.926 29.7839 40.311 29.995 40.6666L25.1345 45.5271C23.765 43.8539 22.864 41.7832 22.6382 39.5161H29.5152ZM31.5915 42.2631C31.9482 42.4731 32.3321 42.6356 32.7419 42.7429V49.6198C30.4748 49.394 28.4042 48.4931 26.731 47.1235L31.5915 42.2631ZM31.6129 38.3871C31.6129 37.1418 32.6256 36.129 33.871 36.129C35.1163 36.129 36.129 37.1418 36.129 38.3871C36.129 39.6324 35.1163 40.6452 33.871 40.6452C32.6256 40.6452 31.6129 39.6324 31.6129 38.3871ZM35 42.7429C35.4098 42.6368 35.7948 42.4742 36.1505 42.2631L41.011 47.1235C39.3434 48.4885 37.2818 49.3884 35.0237 49.6187C35.0158 49.6198 35.0079 49.6198 35 49.6198V42.7429ZM37.7469 40.6666C37.9569 40.3098 38.1195 39.926 38.2268 39.5161H45.1037C44.8779 41.7832 43.9781 43.8539 42.6074 45.5271L37.7469 40.6666ZM38.2268 37.2581C38.1206 36.8482 37.9581 36.4632 37.7469 36.1076L42.6074 31.2471C43.9769 32.9203 44.8779 34.991 45.1037 37.2581H38.2268ZM2.25806 6.77419H18.0645V4.51613H2.25806V2.25806H22.5806V4.51613H20.3226V6.77419H22.5806V15.8065H2.25806V6.77419ZM33.871 67.7419C17.6852 67.7419 4.51613 54.5729 4.51613 38.3871V18.0645H20.3226V38.3871C20.3226 45.8579 26.4002 51.9355 33.871 51.9355C34.3384 51.9355 34.799 51.9118 35.254 51.8655C45.1918 51.1519 53.0645 42.8581 53.0645 32.7419C53.0645 20.7279 42.1569 13.5484 31.6129 13.5484C29.1742 13.5484 26.9105 13.7494 24.8387 14.1276V10.4718C27.7494 9.53129 30.7797 9.03226 33.871 9.03226C50.0568 9.03226 63.2258 22.2013 63.2258 38.3871C63.2258 54.5729 50.0568 67.7419 33.871 67.7419ZM65.17 42.7926C65.3721 41.3519 65.4839 39.8831 65.4839 38.3871C65.4839 37.6894 65.4534 36.9995 65.4082 36.3131C66.7585 36.759 67.7419 38.0179 67.7419 39.5161C67.7419 41.1013 66.6434 42.4256 65.17 42.7926Z" fill="#EB6441"/>
<path d="M9.03223 20.3226H6.77417V22.5807H9.03223V20.3226Z" fill="#EB6441"/>
<path d="M15.8064 35H13.5483V37.2581H15.8064V35Z" fill="#EB6441"/>
<path d="M21.4517 55.3226H19.1936V57.5807H21.4517V55.3226Z" fill="#EB6441"/>
<path d="M41.7742 53.0645H39.5161V55.3225H41.7742V53.0645Z" fill="#EB6441"/>
<path d="M33.871 62.0968H31.6129V64.3549H33.871V62.0968Z" fill="#EB6441"/>
<path d="M57.5807 44.0322H55.3226V46.2903H57.5807V44.0322Z" fill="#EB6441"/>
</svg>
