<svg width="68" height="68" viewBox="0 0 68 68" fill="none" xmlns="http://www.w3.org/2000/svg">
<g clip-path="url(#clip0)">
<path d="M58.3011 54.6816C56.3623 54.6816 54.7849 56.2589 54.7849 58.1978C54.7849 60.1366 56.3622 61.7139 58.3011 61.7139C60.2399 61.7139 61.8172 60.1366 61.8172 58.1978C61.8172 56.2591 60.2399 54.6816 58.3011 54.6816ZM58.301 59.6301C57.5113 59.6301 56.8687 58.9875 56.8687 58.1978C56.8687 57.4081 57.5113 56.7656 58.301 56.7656C59.0907 56.7656 59.7332 57.4081 59.7332 58.1978C59.7332 58.9875 59.0907 59.6301 58.301 59.6301Z" fill="#EB6441"/>
<path d="M67.7746 58.0151C67.7082 55.4408 66.6186 53.0731 64.7063 51.3482L43.7283 32.4271L62.2767 13.8788C62.3986 13.8424 62.519 13.7971 62.6353 13.7357L66.6519 11.6158C67.2068 11.3228 67.5789 10.7987 67.6726 10.1783C67.7663 9.55784 67.5657 8.94743 67.1219 8.50331L62.5994 3.98091C62.1555 3.53718 61.5455 3.3365 60.9245 3.43027C60.3041 3.5239 59.7802 3.89604 59.4871 4.45106L57.367 8.46745C57.3051 8.58472 57.2575 8.70598 57.221 8.82909L48.466 17.5841C48.0591 17.9912 48.0591 18.6507 48.466 19.0578C48.8731 19.4645 49.5326 19.4645 49.9397 19.0578L57.9738 11.0236L60.0793 13.129L39.5332 33.6751L37.4277 31.5697L46.3959 22.6016C46.8028 22.1945 46.8028 21.535 46.3959 21.1279C45.9888 20.7213 45.3293 20.7213 44.9222 21.1279L38.4152 27.6349L31.3333 21.2475C33.3412 15.468 31.8872 9.03788 27.5316 4.68242C23.0703 0.221119 16.3776 -1.20064 10.481 1.06076C10.1515 1.1872 9.9083 1.47168 9.83499 1.81686C9.76167 2.16204 9.86779 2.5209 10.1173 2.77046L18.2975 10.9508C18.5395 11.1928 18.673 11.5146 18.673 11.8568C18.673 12.1991 18.5396 12.5209 18.2975 12.763L12.9852 18.0754C12.7432 18.3175 12.4214 18.4508 12.0791 18.4508C11.7369 18.4508 11.4151 18.3176 11.1729 18.0754L2.99262 9.89505C2.74293 9.64549 2.38434 9.53938 2.03902 9.61269C1.69385 9.68613 1.40936 9.92918 1.28292 10.2587C-0.978475 16.155 0.443283 22.8477 4.90472 27.3093C9.15352 31.558 15.4591 33.0538 21.1476 31.2158L26.623 37.2034C26.3599 37.7175 26.0178 38.197 25.5958 38.6189C24.0175 40.1973 21.652 40.6945 19.5688 39.886C19.1838 39.7362 18.747 39.8283 18.4548 40.1204L5.69695 52.8782C2.24329 56.332 2.24329 61.9516 5.69695 65.4051C7.37025 67.0787 9.59473 68 11.9608 68C14.3267 68 16.5513 67.0787 18.2243 65.4056L30.9822 52.6479C31.2741 52.3559 31.3661 51.9189 31.2166 51.5339C30.4079 49.4509 30.9052 47.0851 32.4834 45.5067C34.062 43.9284 36.4276 43.4311 38.5107 44.2397C38.896 44.3895 39.3325 44.2971 39.6247 44.0053L42.0313 41.5987C42.7559 40.8741 43.1549 39.9105 43.1549 38.8859C43.1549 37.8612 42.7559 36.8977 42.0313 36.1731L41.0069 35.1487L42.2531 33.9025L63.3107 52.8956C64.7945 54.234 65.6401 56.0713 65.6915 58.0688C65.7429 60.0663 64.9931 61.9447 63.5801 63.3575C62.1739 64.764 60.3003 65.5125 58.3159 65.4696C56.3276 65.4253 54.4935 64.5926 53.1514 63.1248L37.4942 46.0033C37.1055 45.5784 36.4468 45.5492 36.0222 45.9376C35.5976 46.326 35.5681 46.9851 35.9564 47.4097L51.6134 64.5312C53.3432 66.4226 55.707 67.4957 58.2693 67.5529C58.341 67.5545 58.4126 67.5553 58.4842 67.5553C60.9662 67.5553 63.2919 66.5926 65.0536 64.8311C66.8745 63.0101 67.8407 60.5895 67.7746 58.0151ZM59.2541 9.35663L61.2488 5.57758L65.5253 9.85401L61.7462 11.8487L59.2541 9.35663ZM22.2227 29.3036C21.9358 28.9902 21.4877 28.8821 21.0895 29.0305C15.9944 30.9311 10.2195 29.6771 6.37814 25.8361C2.89022 22.3481 1.53872 17.2914 2.72965 12.5795L9.69925 19.5491C10.335 20.1847 11.1801 20.5347 12.079 20.5347C12.9779 20.5347 13.8229 20.1847 14.4586 19.5491L19.771 14.2367C20.4066 13.6009 20.7566 12.7558 20.7566 11.857C20.7566 10.9581 20.4066 10.113 19.771 9.47735L12.8015 2.50749C17.513 1.31603 22.5702 2.66792 26.058 6.15598C29.9971 10.0948 31.2076 15.9845 29.1422 21.1609C28.9806 21.5658 29.0881 22.0287 29.4121 22.3207L36.9398 29.1104L35.954 30.0961L34.9296 29.0717C34.205 28.3471 33.2415 27.9481 32.2168 27.9481C31.1922 27.9481 30.2286 28.3471 29.504 29.0717L27.0974 31.4783C26.8055 31.7703 26.7135 32.2073 26.863 32.5923C27.1402 33.3062 27.2604 34.0528 27.2398 34.7901L22.2227 29.3036ZM40.5574 40.1252L38.6075 42.0753C35.9257 41.3022 33.0076 42.0355 31.0099 44.033H31.0098C29.0123 46.0307 28.2788 48.9484 29.0522 51.6307L16.7508 63.9318C15.4713 65.2113 13.7702 65.916 11.9609 65.916C10.1516 65.916 8.45028 65.2113 7.17103 63.9318C4.52979 61.2907 4.52979 56.9932 7.17103 54.3519L19.4723 42.0507C22.1543 42.8242 25.072 42.0903 27.0698 40.0928C29.0673 38.0951 29.801 35.1774 29.0276 32.4952L30.9777 30.5453C31.6609 29.8618 32.7729 29.8618 33.4561 30.5453L35.2173 32.3065L38.7962 35.8854L40.5574 37.6466C41.2409 38.3301 41.2409 39.442 40.5574 40.1252Z" fill="#EB6441"/>
<path d="M21.5589 45.9863C21.1519 45.5795 20.4923 45.5795 20.0852 45.9863L10.2149 55.8566C9.80793 56.2637 9.80793 56.9232 10.2149 57.3303C10.4183 57.5336 10.6852 57.6354 10.9517 57.6354C11.2183 57.6354 11.4851 57.5336 11.6886 57.3303L21.5589 47.4599C21.9657 47.0529 21.9657 46.3932 21.5589 45.9863Z" fill="#EB6441"/>
<path d="M25.2058 49.6332C24.7989 49.2264 24.1392 49.2264 23.7321 49.6332L13.8618 59.5035C13.4548 59.9105 13.4548 60.5701 13.8618 60.9771C14.0653 61.1805 14.3319 61.2822 14.5986 61.2822C14.8652 61.2822 15.132 61.1805 15.3355 60.9771L25.2058 51.1069C25.6128 50.6998 25.6128 50.0403 25.2058 49.6332Z" fill="#EB6441"/>
</g>
<defs>
<clipPath id="clip0">
<rect width="68" height="68" fill="white"/>
</clipPath>
</defs>
</svg>
