<svg width="100" height="100" viewBox="0 0 100 100" fill="none" xmlns="http://www.w3.org/2000/svg">
<mask id="mask0" mask-type="alpha" maskUnits="userSpaceOnUse" x="0" y="0" width="100" height="100">
<path d="M99 50C99 77.062 77.062 99 50 99C22.938 99 1 77.062 1 50C1 22.938 22.938 1 50 1C77.062 1 99 22.938 99 50Z" stroke="#EB6441" stroke-width="2"/>
</mask>
<g mask="url(#mask0)">
<rect x="50" width="50" height="80" fill="#EB5B36"/>
<rect y="80" width="100" height="20" fill="#EB5B36"/>
</g>
<g clip-path="url(#clip0)">
<path d="M76.2171 64.8708H76.2903V59.4516C76.2903 59.3351 76.2795 56.563 75.3138 53.6763L72.3693 46.8064H69.9676H67.5659L64.5942 53.7467C63.6557 56.563 63.6449 59.3349 63.6449 59.4514V61.2579H60.9354C59.4415 61.2579 58.2256 60.042 58.2256 58.5481V54.7863C62.5376 52.2825 65.4514 47.6256 65.4514 42.2902V42.162C67.0048 41.7581 68.1611 40.3564 68.1611 38.6774C68.1611 37.0543 67.5496 36.0291 67.2072 35.5811C67.2379 35.414 67.2579 35.2433 67.2579 35.0644V33.258C67.2579 24.2936 59.9644 17 50.9999 17C42.0354 17 34.7419 24.2935 34.7419 33.258V35.0644C34.7419 35.2433 34.7619 35.414 34.7926 35.5811C34.4502 36.0291 33.8387 37.0543 33.8387 38.6774C33.8387 40.3564 34.9948 41.7583 36.5484 42.162V42.2902C36.5484 47.6256 39.4622 52.2825 43.7742 54.7863V58.5481C43.7742 60.042 42.5583 61.2579 41.0644 61.2579H36.5482V59.9851C38.324 58.9085 39.258 57.1743 39.258 54.9352C39.258 52.7368 37.7749 50.1769 34.9405 49.5375L33.8385 49.2891V54.0319H32.032V49.2874L30.9283 49.5375C28.0949 50.1824 26.6128 52.7404 26.6128 54.9352C26.6128 57.1743 27.5467 58.9076 29.3225 59.9851V62.2569C25.5976 63.9731 23 67.7331 23 72.0968V73H24.8065V72.0968C24.8065 67.4216 28.3779 63.5649 32.9355 63.1106V73H34.7419V63.0645H37.4515V73H39.258V63.0645H41.0644C41.433 63.0645 41.7852 63.0076 42.1285 62.9246C42.9134 67.1102 46.5895 70.2903 50.9999 70.2903C55.4103 70.2903 59.0864 67.11 59.8713 62.9246C60.2146 63.0076 60.5668 63.0645 60.9354 63.0645H62.7418V73H64.5483V63.0645H67.2581V73H69.0645V63.1104C73.6223 63.5657 77.1935 67.4216 77.1935 72.0966V72.9998H79V72.0966C78.9998 69.3191 77.9412 66.7911 76.2171 64.8708ZM35.2431 58.6422L34.7418 58.8915V61.2579H33.8385C32.9019 61.2579 31.9968 61.3897 31.1288 61.6146V58.8915L30.6277 58.6422C29.1419 57.9044 28.4193 56.6922 28.4193 54.9354C28.4193 53.7747 29.0361 52.4633 30.2257 51.7425V55.8386H35.645V51.7406C36.8345 52.4595 37.4515 53.7728 37.4515 54.9354C37.4515 56.6922 36.7288 57.9042 35.2431 58.6422ZM65.4516 37.9026C65.7027 37.7381 65.9339 37.5648 66.139 37.3796C66.2573 37.7076 66.3548 38.1374 66.3548 38.6776C66.3546 39.3432 65.9889 39.9194 65.4516 40.2329V37.9026ZM50.0967 18.8528V25.1292H51.9031V18.8528C59.2924 19.3135 65.1832 25.3378 65.4271 32.7832C62.2125 31.0698 55.4655 30.5486 50.9999 30.5486C46.5343 30.5486 39.7873 31.0698 36.5727 32.7823C36.8166 25.3376 42.7074 19.3122 50.0967 18.8528ZM36.5484 40.232C36.0109 39.9194 35.6452 39.3432 35.6452 38.6776C35.6452 38.1366 35.7427 37.7066 35.861 37.3787C36.0661 37.5648 36.2973 37.7381 36.5484 37.9016V40.232ZM36.5492 35.0673C36.7262 34.146 41.9802 32.3549 50.9999 32.3549C60.0249 32.3549 65.2807 34.1477 65.4514 35.0646C65.4516 36.8402 60.0458 38.6774 50.9999 38.6774C41.9586 38.6774 36.5537 36.8421 36.5492 35.0673ZM38.3547 42.2902V38.7992C42.337 40.3166 48.5087 40.4837 50.9999 40.4837C53.4911 40.4837 59.6626 40.3166 63.6451 38.7992V42.2902C63.6451 49.2631 57.9728 54.9354 50.9999 54.9354C44.027 54.9354 38.3547 49.2631 38.3547 42.2902ZM50.9999 68.4838C47.2993 68.4838 44.2429 65.6857 43.8265 62.0943C44.8861 61.2679 45.5806 59.9935 45.5806 58.5483V55.678C47.2561 56.3589 49.0834 56.742 50.9999 56.742C52.9164 56.742 54.7437 56.3591 56.4192 55.678V58.5483C56.4192 59.9935 57.1138 61.2679 58.1733 62.0943C57.757 65.6855 54.7005 68.4838 50.9999 68.4838ZM67.9625 61.2581H65.4516V59.4516C65.4516 59.4263 65.4614 56.8593 66.2816 54.3881L68.7565 48.6129H69.0645V56.908C68.0158 57.2819 67.2581 58.2756 67.2581 59.4516C67.2581 60.1481 67.5299 60.7774 67.9625 61.2581ZM69.9676 60.3548C69.4699 60.3548 69.0643 59.9502 69.0643 59.4516C69.0643 58.9529 69.4699 58.5483 69.9676 58.5483C70.4653 58.5483 70.8708 58.9529 70.8708 59.4516C70.8708 59.9502 70.4653 60.3548 69.9676 60.3548ZM74.4838 63.3109C73.5498 62.6372 72.5112 62.0997 71.3885 61.7484C72.1589 61.2706 72.6773 60.4233 72.6773 59.4514C72.6773 58.2754 71.9196 57.2819 70.8708 56.9078V48.6127H71.1789L73.6266 54.3176C74.4703 56.8465 74.4838 59.4262 74.4838 59.4523V63.3109Z" fill="#EB6441"/>
<path d="M51.9032 44.7934H56.8321V42.9869H50.0967V48.8191H51.9032V44.7934Z" fill="#EB6441"/>
<path d="M41.0645 28.7419H39.2581V30.5484H41.0645V28.7419Z" fill="#EB6441"/>
<path d="M44.6773 27.8387H42.8708V29.6452H44.6773V27.8387Z" fill="#EB6441"/>
</g>
<defs>
<clipPath id="clip0">
<rect width="56" height="56" fill="white" transform="translate(23 17)"/>
</clipPath>
</defs>
</svg>
