<svg width="18" height="18" viewBox="0 0 18 18" fill="none" xmlns="http://www.w3.org/2000/svg">
<g clip-path="url(#clip0)">
<path d="M18.001 3.41937C17.3385 3.71293 16.6276 3.91202 15.8807 4.0009C16.6434 3.54422 17.2271 2.81987 17.5038 1.95939C16.7884 2.38231 15.9988 2.6894 15.1575 2.85587C14.4837 2.13713 13.5254 1.68945 12.4625 1.68945C10.4232 1.68945 8.76978 3.3429 8.76978 5.38102C8.76978 5.67008 8.8024 5.9524 8.8654 6.22237C5.79699 6.06826 3.07613 4.59816 1.2551 2.36431C0.936772 2.90872 0.755684 3.54307 0.755684 4.22022C0.755684 5.50137 1.40807 6.63179 2.39789 7.29314C1.79274 7.27291 1.2236 7.10644 0.725331 6.82973V6.87585C0.725331 8.66426 1.9986 10.1569 3.68689 10.4966C3.37757 10.5798 3.05139 10.6259 2.71395 10.6259C2.47551 10.6259 2.24492 10.6023 2.01883 10.5573C2.48898 12.0252 3.85225 13.0926 5.46746 13.1218C4.20431 14.1117 2.6116 14.6999 0.881684 14.6999C0.583625 14.6999 0.290036 14.6819 0.000976562 14.6493C1.6353 15.6987 3.57557 16.3106 5.66093 16.3106C12.4535 16.3106 16.1665 10.6844 16.1665 5.80508L16.1541 5.32705C16.8796 4.80961 17.5072 4.15949 18.001 3.41937Z" fill="white"/>
</g>
<defs>
<clipPath id="clip0">
<rect width="18" height="18" fill="white"/>
</clipPath>
</defs>
</svg>
