<svg width="25" height="25" viewBox="0 0 25 25" fill="none" xmlns="http://www.w3.org/2000/svg">
<g clip-path="url(#clip0)">
<path d="M12.4999 25.0005C19.4033 25.0005 24.9997 19.4041 24.9997 12.5006C24.9997 5.59717 19.4033 0.000793457 12.4999 0.000793457C5.59637 0.000793457 0 5.59717 0 12.5006C0 19.4041 5.59637 25.0005 12.4999 25.0005Z" fill="#41B4E6"/>
<path d="M11.286 14.3213L16.935 18.5863L19.7865 6.41406L5.21338 12.1464L9.6478 13.6152L17.7407 8.18672L11.286 14.3213Z" fill="white"/>
<path d="M9.64795 13.6152L10.8625 17.9855L11.2861 14.3213L17.7409 8.18671L9.64795 13.6152Z" fill="#D2D2D7"/>
<path d="M13.1219 15.7074L10.8623 17.9855L11.286 14.3213L13.1219 15.7074Z" fill="#B9B9BE"/>
</g>
<defs>
<clipPath id="clip0">
<rect width="25" height="25" fill="white"/>
</clipPath>
</defs>
</svg>
