<svg width="17" height="17" viewBox="0 0 17 17" fill="none" xmlns="http://www.w3.org/2000/svg">
<path d="M15.4013 5.57629C14.6104 3.73254 13.2666 2.39164 11.4074 1.59872C10.4782 1.20243 9.50471 1 8.48767 1C7.47081 1 6.50449 1.20051 5.5763 1.59872C3.73255 2.38953 2.38272 3.72958 1.59049 5.57629C1.1935 6.50148 1 7.47077 1 8.48763C1 9.50469 1.1935 10.482 1.59049 11.4074C2.38272 13.2541 3.73272 14.6022 5.5763 15.3932C6.50466 15.7914 7.47078 15.9917 8.48767 15.9917C9.50456 15.9917 10.4782 15.7893 11.4073 15.3932C13.2664 14.6003 14.6103 13.251 15.4013 11.4074C15.7995 10.479 16 9.50469 16 8.48763C16 7.47077 15.7997 6.50462 15.4013 5.57629ZM14.204 11.8011C13.6153 12.8108 12.8087 13.6118 11.7929 14.204C10.7832 14.7927 9.67689 15.0897 8.48784 15.0897C7.59397 15.0897 6.74103 14.9175 5.92902 14.5648C5.11703 14.2122 4.41596 13.7487 3.82949 13.1625C3.24301 12.576 2.77623 11.8681 2.42718 11.0547C2.07917 10.2443 1.91051 9.3817 1.91051 8.48766C1.91051 7.29844 2.2027 6.19776 2.78814 5.19087C3.37566 4.18031 4.1824 3.37845 5.19105 2.78794C6.19953 2.19745 7.29865 1.90211 8.48767 1.90211C9.67689 1.90211 10.783 2.19919 11.7927 2.78794C12.8085 3.38019 13.6134 4.18203 14.2038 5.19085C14.7943 6.1995 15.0895 7.29844 15.0895 8.48763C15.0895 9.67687 14.7963 10.7851 14.204 11.8011Z" fill="white" stroke="white" stroke-width="0.5"/>
<path d="M8.96336 8.42151V4.17325C8.96336 3.91904 8.74186 3.71399 8.48762 3.71399C8.24985 3.71399 8.03656 3.91904 8.03656 4.17325V8.4871C8.03656 8.49534 8.05301 8.52823 8.05301 8.55274C8.03656 8.70039 8.07769 8.8234 8.17602 8.92191L10.6283 11.374C10.7924 11.5381 11.0958 11.5381 11.2598 11.374C11.4484 11.1854 11.436 10.9118 11.2598 10.7343L8.96336 8.42151Z" fill="white" stroke="white" stroke-width="0.5"/>
</svg>
