<svg width="18" height="18" viewBox="0 0 18 18" fill="none" xmlns="http://www.w3.org/2000/svg">
<g clip-path="url(#clip0)">
<path d="M17.9046 13.1399C17.8828 13.0929 17.8625 13.0539 17.8436 13.0227C17.5313 12.4603 16.9345 11.7699 16.0536 10.9514L16.0349 10.9326L16.0256 10.9235L16.0162 10.914H16.0068C15.6069 10.5329 15.3538 10.2766 15.2477 10.1454C15.0537 9.8955 15.0103 9.64251 15.1163 9.38618C15.1912 9.19251 15.4726 8.78351 15.9598 8.15861C16.216 7.82744 16.419 7.56201 16.5689 7.36204C17.6499 5.92495 18.1185 5.00663 17.9747 4.60672L17.9189 4.51327C17.8814 4.45701 17.7845 4.40554 17.6285 4.3586C17.4721 4.31175 17.2723 4.30401 17.0285 4.33522L14.3295 4.35387C14.2858 4.33837 14.2234 4.33982 14.142 4.3586C14.0608 4.37737 14.0201 4.38679 14.0201 4.38679L13.9732 4.41026L13.9359 4.43846C13.9046 4.4571 13.8703 4.4899 13.8327 4.53677C13.7954 4.58348 13.7642 4.6383 13.7392 4.70077C13.4454 5.45676 13.1113 6.15965 12.7363 6.8094C12.5051 7.19683 12.2928 7.5326 12.0989 7.8169C11.9053 8.1011 11.7428 8.3105 11.6117 8.44472C11.4804 8.57907 11.3619 8.68671 11.2555 8.76802C11.1493 8.84936 11.0682 8.88372 11.012 8.87115C10.9557 8.85858 10.9027 8.84611 10.8525 8.83363C10.7651 8.77737 10.6948 8.70085 10.6418 8.60402C10.5885 8.50719 10.5527 8.38531 10.5339 8.23848C10.5153 8.09155 10.5043 7.96518 10.5011 7.85892C10.4982 7.7528 10.4995 7.60269 10.5059 7.40902C10.5124 7.21525 10.5153 7.08414 10.5153 7.01541C10.5153 6.77795 10.5199 6.52024 10.5292 6.24221C10.5387 5.96418 10.5463 5.74389 10.5527 5.5816C10.5591 5.41915 10.562 5.24727 10.562 5.06608C10.562 4.88488 10.551 4.74278 10.5292 4.63965C10.5077 4.53664 10.4746 4.43665 10.4311 4.33972C10.3872 4.24289 10.3231 4.16798 10.2389 4.1148C10.1546 4.06169 10.0498 4.01954 9.92498 3.98823C9.59381 3.91329 9.1721 3.87275 8.65967 3.86645C7.49762 3.85397 6.75094 3.92901 6.4198 4.09146C6.2886 4.1601 6.16987 4.25388 6.06371 4.37251C5.95122 4.51002 5.93553 4.58506 6.01674 4.5974C6.39167 4.65356 6.6571 4.78792 6.81331 5.00033L6.86961 5.11289C6.9134 5.1941 6.95712 5.33787 7.00088 5.54401C7.04457 5.75016 7.07276 5.97819 7.08517 6.228C7.11635 6.68417 7.11635 7.07466 7.08517 7.3995C7.05389 7.72447 7.02435 7.97745 6.99615 8.15865C6.96795 8.33984 6.9258 8.48667 6.86961 8.5991C6.81331 8.71156 6.77586 8.78029 6.75708 8.80524C6.73834 8.83019 6.72271 8.84591 6.71031 8.85208C6.6291 8.8832 6.54464 8.89905 6.45722 8.89905C6.36968 8.89905 6.26352 8.85527 6.13859 8.76775C6.01369 8.68024 5.88406 8.56003 5.74971 8.40694C5.61535 8.25381 5.46383 8.03982 5.29508 7.76494C5.12645 7.49006 4.9515 7.16519 4.7703 6.79033L4.62039 6.51847C4.52667 6.34357 4.39865 6.08891 4.2362 5.75472C4.07365 5.42039 3.92997 5.097 3.80507 4.7846C3.75515 4.6534 3.68014 4.55351 3.58019 4.48478L3.53328 4.45658C3.5021 4.43163 3.45204 4.40514 3.38337 4.37691C3.3146 4.34871 3.24284 4.32849 3.1678 4.31605L0.599915 4.3347C0.337509 4.3347 0.159465 4.39414 0.0657162 4.51287L0.0281969 4.56904C0.00945368 4.60032 0 4.65028 0 4.71905C0 4.78779 0.0187432 4.87215 0.0562625 4.97203C0.431127 5.85306 0.838784 6.70275 1.27923 7.52121C1.71968 8.33968 2.10243 8.99897 2.42723 9.49851C2.7521 9.99841 3.08325 10.4702 3.42066 10.9137C3.75807 11.3573 3.98141 11.6416 4.09069 11.7665C4.20009 11.8916 4.28603 11.9852 4.3485 12.0477L4.58284 12.2725C4.73278 12.4225 4.95297 12.6021 5.24351 12.8114C5.53411 13.0208 5.85583 13.2269 6.20883 13.4302C6.5619 13.633 6.97265 13.7986 7.44129 13.9267C7.90987 14.0549 8.36595 14.1063 8.80958 14.0815H9.88737C10.1059 14.0626 10.2716 13.9939 10.3841 13.8752L10.4214 13.8283C10.4465 13.791 10.4699 13.733 10.4916 13.6551C10.5135 13.577 10.5244 13.4909 10.5244 13.3974C10.518 13.1288 10.5385 12.8867 10.5852 12.6711C10.6319 12.4557 10.6852 12.2932 10.7447 12.1838C10.8042 12.0745 10.8714 11.9823 10.9461 11.9075C11.0211 11.8326 11.0744 11.7872 11.1057 11.7715C11.1369 11.7558 11.1617 11.7451 11.1805 11.7387C11.3304 11.6888 11.5069 11.7372 11.7101 11.8841C11.9132 12.0309 12.1037 12.2122 12.2819 12.4277C12.4599 12.6434 12.6739 12.8853 12.9238 13.1539C13.1738 13.4226 13.3924 13.6224 13.5798 13.7538L13.7671 13.8662C13.8923 13.9413 14.0547 14.01 14.2547 14.0725C14.4543 14.1349 14.6292 14.1505 14.7794 14.1193L17.1785 14.0819C17.4158 14.0819 17.6004 14.0426 17.7314 13.9647C17.8626 13.8866 17.9406 13.8005 17.9657 13.7069C17.9908 13.6133 17.9922 13.507 17.9705 13.3881C17.9483 13.2696 17.9264 13.1867 17.9046 13.1399Z" fill="white"/>
</g>
<defs>
<clipPath id="clip0">
<rect width="18" height="18" fill="white"/>
</clipPath>
</defs>
</svg>
