<svg width="25" height="25" viewBox="0 0 25 25" fill="none" xmlns="http://www.w3.org/2000/svg">
<path d="M0 25L2.15 18.5504C1.05905 16.7155 0.431034 14.5741 0.431034 12.2845C0.431034 5.5 5.93103 0 12.7155 0C19.5 0 25 5.5 25 12.2845C25 19.069 19.5 24.569 12.7155 24.569C10.6513 24.569 8.70733 24.0573 7 23.1582L0 25Z" fill="#2CB742"/>
<path d="M20.5534 16.3728C19.9861 15.3008 17.8943 14.075 17.8943 14.075C17.4211 13.8051 16.8499 13.775 16.5801 14.256C16.5801 14.256 15.9004 15.0711 15.7275 15.1883C14.9379 15.7232 14.2064 15.7025 13.468 14.9642L11.7521 13.2482L10.0362 11.5323C9.29779 10.7939 9.2771 10.0625 9.81201 9.2728C9.92925 9.09996 10.7443 8.42022 10.7443 8.42022C11.2254 8.14996 11.1952 7.57927 10.9254 7.10599C10.9254 7.10599 9.69951 5.01418 8.62753 4.44694C8.17149 4.20556 7.61158 4.29004 7.24693 4.6547L6.48917 5.41246C4.08529 7.81634 5.26891 10.5301 7.67279 12.934L9.86977 15.131L12.0668 17.328C14.4706 19.7319 17.1844 20.9155 19.5883 18.5116L20.3461 17.7538C20.7107 17.3883 20.7948 16.8284 20.5534 16.3728Z" fill="white"/>
</svg>
