<svg width="158" height="54" viewBox="0 0 158 54" fill="none" xmlns="http://www.w3.org/2000/svg">
<path d="M9.502 48.041C9.414 49.031 9.06933 49.8047 8.468 50.362C7.874 50.912 7.08933 51.187 6.114 51.187C4.99933 51.187 4.11567 50.8203 3.463 50.087C2.81033 49.3463 2.484 48.349 2.484 47.095C2.484 45.9217 2.81033 44.9463 3.463 44.169C4.123 43.3843 5.03233 42.992 6.191 42.992C7.01967 42.992 7.74933 43.2157 8.38 43.663C9.01067 44.1103 9.36267 44.73 9.436 45.522H8.402C8.28467 45.0087 8.028 44.609 7.632 44.323C7.236 44.0297 6.74833 43.883 6.169 43.883C5.29633 43.883 4.63633 44.191 4.189 44.807C3.749 45.423 3.529 46.182 3.529 47.084C3.529 48.0813 3.76367 48.866 4.233 49.438C4.70233 50.01 5.344 50.296 6.158 50.296C6.82533 50.296 7.357 50.1053 7.753 49.724C8.149 49.3353 8.38733 48.7743 8.468 48.041H9.502ZM17.3305 43.168V44.07H12.9415V46.523H17.0445V47.392H12.9415V50.098H17.3855V51H11.9075V43.168H17.3305ZM25.1661 43.168V44.07H22.5371V51H21.5031V44.07H18.8741V43.168H25.1661ZM32.9895 48.679C32.9895 49.4123 32.7768 49.9843 32.3515 50.395C31.9335 50.7983 31.3432 51 30.5805 51H27.1485V43.168H28.1825V46.347H30.5805C31.3505 46.347 31.9445 46.5523 32.3625 46.963C32.7805 47.3663 32.9895 47.9383 32.9895 48.679ZM31.9445 48.679C31.9445 47.7183 31.3725 47.238 30.2285 47.238H28.1825V50.098H30.2285C31.3725 50.098 31.9445 49.625 31.9445 48.679ZM42.8318 43.168L45.8898 51H44.7348L43.8658 48.602H40.5768L39.6858 51H38.5858L41.6658 43.168H42.8318ZM43.5578 47.777L42.2268 44.158L40.8738 47.777H43.5578ZM47.7756 43.168H51.1196C51.8383 43.168 52.4323 43.3257 52.9016 43.641C53.3783 43.9563 53.6166 44.4513 53.6166 45.126C53.6166 45.5147 53.5103 45.863 53.2976 46.171C53.0923 46.4717 52.8136 46.6843 52.4616 46.809C52.9456 46.919 53.316 47.1463 53.5726 47.491C53.8366 47.8357 53.9686 48.2683 53.9686 48.789C53.9686 50.263 52.9786 51 50.9986 51H47.7756V43.168ZM48.7876 44.048V46.523H50.6466C50.8593 46.523 51.039 46.5193 51.1856 46.512C51.3396 46.4973 51.512 46.468 51.7026 46.424C51.8933 46.38 52.0436 46.3177 52.1536 46.237C52.271 46.149 52.37 46.0243 52.4506 45.863C52.5386 45.7017 52.5826 45.5073 52.5826 45.28C52.5826 45.0527 52.546 44.862 52.4726 44.708C52.3993 44.5467 52.3113 44.4257 52.2086 44.345C52.106 44.257 51.963 44.191 51.7796 44.147C51.6036 44.103 51.4423 44.0773 51.2956 44.07C51.1563 44.0553 50.973 44.048 50.7456 44.048H48.7876ZM48.7876 47.337V50.131H50.8556C51.1123 50.131 51.3213 50.1273 51.4826 50.12C51.644 50.1053 51.8236 50.0723 52.0216 50.021C52.227 49.9697 52.3883 49.8963 52.5056 49.801C52.623 49.6983 52.722 49.5553 52.8026 49.372C52.8833 49.1813 52.9236 48.954 52.9236 48.69C52.9236 48.47 52.8943 48.2793 52.8356 48.118C52.7843 47.9567 52.6926 47.8283 52.5606 47.733C52.436 47.6377 52.315 47.5607 52.1976 47.502C52.0876 47.4433 51.9263 47.403 51.7136 47.381C51.501 47.359 51.336 47.348 51.2186 47.348C51.1013 47.3407 50.9216 47.337 50.6796 47.337H48.7876ZM61.8399 43.168V44.07H59.2109V51H58.1769V44.07H55.5479V43.168H61.8399ZM66.929 42.981C68.117 42.981 69.041 43.355 69.701 44.103C70.361 44.8437 70.691 45.8153 70.691 47.018C70.691 48.228 70.3646 49.2253 69.712 50.01C69.0593 50.7947 68.1353 51.187 66.94 51.187C66.3313 51.187 65.785 51.077 65.301 50.857C64.817 50.637 64.421 50.3327 64.113 49.944C63.8123 49.5553 63.5813 49.1117 63.42 48.613C63.266 48.1143 63.189 47.5753 63.189 46.996C63.189 45.7713 63.5263 44.796 64.201 44.07C64.883 43.344 65.7923 42.981 66.929 42.981ZM66.929 43.883C66.0563 43.883 65.3853 44.191 64.916 44.807C64.454 45.4157 64.223 46.171 64.223 47.073C64.223 48.0557 64.4686 48.8403 64.96 49.427C65.4586 50.0063 66.1223 50.296 66.951 50.296C67.7723 50.296 68.4286 50.0027 68.92 49.416C69.4113 48.8293 69.657 48.0483 69.657 47.073C69.657 46.105 69.4076 45.3313 68.909 44.752C68.4176 44.1727 67.7576 43.883 66.929 43.883ZM78.327 43.168V44.07H75.698V51H74.664V44.07H72.035V43.168H78.327ZM85.7324 43.168V44.07H81.3434V46.523H85.4464V47.392H81.3434V50.098H85.7874V51H80.3094V43.168H85.7324ZM93.81 43.168L91.203 46.963L93.953 51H92.699L90.587 47.777L88.398 51H87.21L89.971 46.963L87.386 43.168H88.629L90.598 46.182L92.633 43.168H93.81ZM101.866 52.947V51H95.8926V43.168H96.9266V50.098H100.975V43.168H102.009V50.098H102.867V52.947H101.866ZM110.42 43.168V44.07H106.031V46.523H110.134V47.392H106.031V50.098H110.475V51H104.997V43.168H110.42ZM119.026 43.168V51H117.992V47.337H113.856V51H112.822V43.168H113.856V46.435H117.992V43.168H119.026ZM127.294 43.168V44.07H124.665V51H123.631V44.07H121.002V43.168H127.294ZM129.321 43.168H132.544C133.343 43.168 133.977 43.3513 134.447 43.718C134.916 44.0773 135.151 44.6457 135.151 45.423C135.151 46.9997 134.26 47.788 132.478 47.788H130.355V51H129.321V43.168ZM130.355 44.059V46.919H132.346C132.903 46.919 133.336 46.8163 133.644 46.611C133.959 46.3983 134.117 46.0243 134.117 45.489C134.117 45.1883 134.065 44.939 133.963 44.741C133.867 44.543 133.724 44.3963 133.534 44.301C133.343 44.2057 133.145 44.1433 132.94 44.114C132.734 44.0773 132.489 44.059 132.203 44.059H130.355ZM140.809 42.981C141.997 42.981 142.921 43.355 143.581 44.103C144.241 44.8437 144.571 45.8153 144.571 47.018C144.571 48.228 144.245 49.2253 143.592 50.01C142.94 50.7947 142.016 51.187 140.82 51.187C140.212 51.187 139.665 51.077 139.181 50.857C138.697 50.637 138.301 50.3327 137.993 49.944C137.693 49.5553 137.462 49.1117 137.3 48.613C137.146 48.1143 137.069 47.5753 137.069 46.996C137.069 45.7713 137.407 44.796 138.081 44.07C138.763 43.344 139.673 42.981 140.809 42.981ZM140.809 43.883C139.937 43.883 139.266 44.191 138.796 44.807C138.334 45.4157 138.103 46.171 138.103 47.073C138.103 48.0557 138.349 48.8403 138.84 49.427C139.339 50.0063 140.003 50.296 140.831 50.296C141.653 50.296 142.309 50.0027 142.8 49.416C143.292 48.8293 143.537 48.0483 143.537 47.073C143.537 46.105 143.288 45.3313 142.789 44.752C142.298 44.1727 141.638 43.883 140.809 43.883ZM146.967 43.168H150.311C151.03 43.168 151.624 43.3257 152.093 43.641C152.57 43.9563 152.808 44.4513 152.808 45.126C152.808 45.5147 152.702 45.863 152.489 46.171C152.284 46.4717 152.005 46.6843 151.653 46.809C152.137 46.919 152.507 47.1463 152.764 47.491C153.028 47.8357 153.16 48.2683 153.16 48.789C153.16 50.263 152.17 51 150.19 51H146.967V43.168ZM147.979 44.048V46.523H149.838C150.051 46.523 150.23 46.5193 150.377 46.512C150.531 46.4973 150.703 46.468 150.894 46.424C151.085 46.38 151.235 46.3177 151.345 46.237C151.462 46.149 151.561 46.0243 151.642 45.863C151.73 45.7017 151.774 45.5073 151.774 45.28C151.774 45.0527 151.737 44.862 151.664 44.708C151.591 44.5467 151.503 44.4257 151.4 44.345C151.297 44.257 151.154 44.191 150.971 44.147C150.795 44.103 150.634 44.0773 150.487 44.07C150.348 44.0553 150.164 44.048 149.937 44.048H147.979ZM147.979 47.337V50.131H150.047C150.304 50.131 150.513 50.1273 150.674 50.12C150.835 50.1053 151.015 50.0723 151.213 50.021C151.418 49.9697 151.58 49.8963 151.697 49.801C151.814 49.6983 151.913 49.5553 151.994 49.372C152.075 49.1813 152.115 48.954 152.115 48.69C152.115 48.47 152.086 48.2793 152.027 48.118C151.976 47.9567 151.884 47.8283 151.752 47.733C151.627 47.6377 151.506 47.5607 151.389 47.502C151.279 47.4433 151.118 47.403 150.905 47.381C150.692 47.359 150.527 47.348 150.41 47.348C150.293 47.3407 150.113 47.337 149.871 47.337H147.979Z" fill="#EB6441"/>
<path fill-rule="evenodd" clip-rule="evenodd" d="M26.4579 15.4855C24.714 14.2366 22.3721 13.6872 20.2794 14.0868C16.5424 14.6363 13.6027 14.0868 11.6594 12.3384C12.1577 14.1367 13.1044 15.6853 14.5494 16.6843C15.0975 17.1339 15.7452 17.4836 16.4428 17.7334C16.5923 17.7833 16.6919 17.7833 16.8912 17.8832C17.1902 18.0331 17.5888 18.083 17.8877 18.133C18.0372 18.133 18.1867 18.1829 18.3362 18.1829C18.386 18.1829 18.386 18.1829 18.4857 18.1829C18.6351 18.1829 18.7348 18.2329 18.8843 18.2329C18.9341 18.2329 18.9341 18.2329 19.0338 18.2329C19.1832 18.2329 19.2829 18.2329 19.4822 18.2329C19.9306 18.2329 20.3791 18.1829 20.7777 18.083C23.4683 17.5835 26.9562 17.5835 29.3479 19.8314C28.8496 18.083 27.8531 16.5345 26.4579 15.4855Z" fill="#EB6441"/>
<path fill-rule="evenodd" clip-rule="evenodd" d="M27.3548 19.4817C27.3049 19.4817 27.3049 19.4817 27.2053 19.4318C25.0627 18.5326 22.5714 18.7324 20.4289 19.2319C18.8842 19.6316 17.24 19.5317 15.6953 19.0321C16.1438 19.7814 16.6919 20.4808 17.4393 21.0303C18.9341 22.0793 20.8275 22.4789 22.6212 22.0293C24.8136 21.5298 27.7534 21.33 29.7963 23.2282C29.3976 21.6796 28.5008 20.3809 27.3548 19.4817Z" fill="#EB6441"/>
<path fill-rule="evenodd" clip-rule="evenodd" d="M22.9202 28.4233C21.4254 28.9728 20.1798 29.1227 18.4358 29.1227C11.6594 29.1227 7.47398 24.6768 7.47398 17.5335C7.47398 10.2404 11.8089 5.74461 18.7348 5.74461C22.3223 5.74461 25.561 6.44395 28.3513 7.74274L28.5008 7.79269L28.8994 1.49859H28.8496C25.2122 0.249766 22.2226 0 18.8344 0C7.07537 0 0 6.54386 0 17.4836C0 28.2735 6.87606 34.9672 17.9376 34.9672C23.0697 34.9672 28.152 33.5685 29.8461 33.1689L29.9956 33.1189V23.8276H22.9202C22.9202 23.8276 22.9202 28.2735 22.9202 28.4233Z" fill="#EB6441"/>
<path fill-rule="evenodd" clip-rule="evenodd" d="M52.0688 19.3319H46.9864V24.0275H59.0445V22.379C59.0445 18.2828 57.8985 8.84171 47.3352 8.84171C47.1858 8.84171 47.0861 8.84171 46.9366 8.84171V13.5873C48.3318 13.5873 49.6273 14.1367 50.574 15.0858C51.5207 16.035 52.0189 17.4836 52.0189 19.182V19.3319H52.0688ZM46.9864 34.9172V29.7721C47.684 29.9719 48.4314 30.0218 49.2785 30.0218C51.9193 30.0218 54.4604 29.4723 57.1012 28.2735L57.2507 28.2235V33.4186H57.2009C54.5601 34.4177 51.421 34.9672 48.4812 34.9672C47.983 35.0171 47.4847 35.0171 46.9864 34.9172ZM46.9864 19.3319H41.9041C42.0536 16.0849 44.1463 13.6372 46.9864 13.6372V8.89166C39.8612 9.09147 34.8288 14.3865 34.8288 21.9794C34.8288 26.1754 36.2239 29.5723 38.8149 31.8201C40.8578 33.6185 43.6979 34.7174 46.9366 34.9672V29.7721C43.4986 28.9728 42.0536 26.3253 41.8543 24.0275H46.9366V19.3319H46.9864Z" fill="#EB6441"/>
<path fill-rule="evenodd" clip-rule="evenodd" d="M78.2775 8.84171C76.7329 8.84171 72.8464 9.29128 70.2554 13.1876V9.24133H63.6783V34.6175H70.5046V20.9304C70.5046 18.2329 72.2983 14.3865 76.3343 14.3865C79.4235 14.3865 80.4699 16.8842 80.4699 19.2819V34.5676H87.2961V16.8842C87.2463 11.9888 83.7086 8.84171 78.2775 8.84171Z" fill="#EB6441"/>
<path fill-rule="evenodd" clip-rule="evenodd" d="M103.589 19.4318L102.842 19.132C100.949 18.5826 99.2545 18.083 99.2545 16.1848C99.2545 15.4355 99.703 13.6872 103.49 13.6872C105.981 13.6872 107.974 14.4364 108.971 14.8361L109.27 14.9859L109.818 10.0406L109.768 9.99062C106.33 8.9416 103.44 8.9416 101.895 8.9416H101.696C92.9266 8.9416 92.4781 15.2357 92.4781 16.4845C92.4781 20.5807 95.0193 22.1792 97.8096 23.3281L99.5535 24.0274C101.547 24.7767 103.54 25.4761 103.54 27.4243C103.54 27.8738 103.34 30.0718 99.4538 30.0718C96.7134 30.0718 93.9729 29.0228 92.5279 28.3734L92.3286 28.3234V28.4733L92.1293 33.4686L92.1792 33.5185C94.7203 34.4177 98.0587 34.9672 100.5 34.9672C107.825 34.9672 110.366 30.7212 110.366 27.1245C110.416 22.1792 106.529 20.3809 103.589 19.4318Z" fill="#EB6441"/>
<path fill-rule="evenodd" clip-rule="evenodd" d="M131.094 19.3319H125.962V24.0275H138.02V22.379C138.02 18.2828 136.874 8.84171 126.31 8.84171C126.161 8.84171 126.061 8.84171 125.912 8.84171V13.5873C127.357 13.5873 128.602 14.1367 129.549 15.0858C130.496 16.035 131.044 17.4836 131.044 19.182V19.3319H131.094ZM126.011 34.9172V29.7721C126.709 29.9719 127.506 30.0218 128.303 30.0218C130.994 30.0218 133.535 29.4723 136.126 28.2735L136.276 28.2235V33.4186H136.226C133.585 34.4177 130.496 34.9672 127.506 34.9672C127.008 35.0171 126.51 35.0171 126.011 34.9172ZM126.011 19.3319H120.929C121.079 16.0849 123.171 13.6372 126.011 13.6372V8.89166C118.886 9.09147 113.854 14.3865 113.854 21.9794C113.854 26.1754 115.249 29.5723 117.84 31.8201C119.883 33.6185 122.723 34.7174 125.962 34.9672V29.7721C122.524 28.9728 121.079 26.3253 120.879 24.0275H125.962V19.3319H126.011Z" fill="#EB6441"/>
<path fill-rule="evenodd" clip-rule="evenodd" d="M157.9 9.14142C157.502 9.09147 156.455 8.84171 155.708 8.84171C151.572 8.84171 149.53 11.9388 148.932 14.6363V9.24133H142.653V34.6175H149.48V22.379C149.48 14.5863 154.064 13.9869 155.509 13.9869C156.206 13.9869 157.203 14.1367 157.651 14.1867H157.701L158 9.19138H157.9V9.14142Z" fill="#EB6441"/>
</svg>
