<svg width="21" height="25" viewBox="0 0 21 25" fill="none" xmlns="http://www.w3.org/2000/svg">
<path fill-rule="evenodd" clip-rule="evenodd" d="M19.0394 11.1C17.8563 10.2667 16.2676 9.9 14.8479 10.1667C12.3127 10.5333 10.3183 10.1667 9 9C9.33803 10.2 9.98028 11.2333 10.9606 11.9C11.3324 12.2 11.7718 12.4333 12.2451 12.6C12.3465 12.6333 12.4141 12.6333 12.5493 12.7C12.7521 12.8 13.0225 12.8333 13.2254 12.8667C13.3268 12.8667 13.4282 12.9 13.5296 12.9C13.5634 12.9 13.5634 12.9 13.631 12.9C13.7324 12.9 13.8 12.9333 13.9014 12.9333C13.9352 12.9333 13.9352 12.9333 14.0028 12.9333C14.1042 12.9333 14.1718 12.9333 14.307 12.9333C14.6113 12.9333 14.9155 12.9 15.1859 12.8333C17.0113 12.5 19.3775 12.5 21 14C20.662 12.8333 19.9859 11.8 19.0394 11.1Z" fill="#EB6441"/>
<path fill-rule="evenodd" clip-rule="evenodd" d="M19.2686 13.4576C19.2332 13.4576 19.2332 13.4576 19.1625 13.4237C17.6431 12.8136 15.8763 12.9492 14.3569 13.2881C13.2615 13.5593 12.0954 13.4915 11 13.1525C11.318 13.661 11.7067 14.1356 12.2367 14.5085C13.2968 15.2203 14.6396 15.4915 15.9117 15.1864C17.4664 14.8475 19.5512 14.7119 21 16C20.7173 14.9492 20.0813 14.0678 19.2686 13.4576Z" fill="#EB6441"/>
<path fill-rule="evenodd" clip-rule="evenodd" d="M16.0465 20.3214C15 20.7143 14.1279 20.8214 12.907 20.8214C8.16279 20.8214 5.23256 17.6429 5.23256 12.5357C5.23256 7.32143 8.26744 4.10714 13.1163 4.10714C15.6279 4.10714 17.8953 4.60714 19.8488 5.53571L19.9535 5.57143L20.2326 1.07143H20.1977C17.6512 0.178571 15.5581 0 13.186 0C4.95349 0 0 4.67857 0 12.5C0 20.2143 4.81395 25 12.5581 25C16.1512 25 19.7093 24 20.8953 23.7143L21 23.6786V17.0357H16.0465C16.0465 17.0357 16.0465 20.2143 16.0465 20.3214Z" fill="#EB6441"/>
</svg>
